<svg width="48" height="48" viewBox="0 0 48 48" fill="none" xmlns="http://www.w3.org/2000/svg">
<g opacity="0.4">
<path fill-rule="evenodd" clip-rule="evenodd" d="M26.4009 20.8405C27.2409 21.3405 27.941 21.5004 28.521 21.5004L28.5611 21.5204C29.2611 21.5204 29.7611 21.2604 30.0611 21.0404C30.6211 20.6204 31.481 19.6404 30.981 17.5204L30.441 14.9804L32.4209 12.9804C33.3809 12.0004 33.7609 10.8604 33.4209 9.80044C33.0809 8.76044 32.121 8.02042 30.761 7.78042L28.2811 7.38028C28.2411 7.36028 28.1609 7.34048 28.1609 7.34048L26.761 4.5004C26.141 3.2404 25.1411 2.5004 24.0411 2.5004C22.9811 2.4804 21.9211 3.2204 21.2811 4.5004L19.8611 7.3605L17.2811 7.78042C15.9411 8.02042 14.9809 8.74042 14.6409 9.78042C14.3009 10.8404 14.6611 12.0004 15.6211 12.9804L17.6211 15.0605L17.0611 17.5204C16.5611 19.6404 17.401 20.6404 17.961 21.0404C18.521 21.4404 19.7211 21.9405 21.5811 20.8405L24.021 19.4203L26.4009 20.8405ZM25.5611 16.8205C25.1211 16.5605 24.561 16.4203 24.001 16.4203L24.0611 16.4003C23.5011 16.4003 22.941 16.5404 22.481 16.8004L20.1011 18.2204C20.0853 18.2283 20.0727 18.2393 20.0606 18.2497C20.0422 18.2657 20.0253 18.2804 20.001 18.2804C20.001 18.2404 20.021 18.1403 20.021 18.1403L20.5811 15.6603C20.7811 14.6803 20.441 13.5205 19.761 12.8405L17.7811 10.8405C17.7669 10.8263 17.7527 10.8146 17.7394 10.8037C17.7152 10.7838 17.6939 10.7662 17.681 10.7404C17.701 10.7204 17.7811 10.7204 17.7811 10.7204L20.3809 10.3004C21.2409 10.1404 22.1211 9.48031 22.5611 8.66031L23.961 5.84048C23.9698 5.82295 23.9824 5.80539 23.9938 5.78952C24.0084 5.76919 24.021 5.75162 24.021 5.74039C24.041 5.76039 24.0611 5.82046 24.0611 5.82046L25.481 8.70035C25.901 9.48035 26.781 10.1405 27.701 10.3205L30.241 10.7404C30.281 10.7604 30.3211 10.7604 30.3611 10.7604C30.3211 10.7804 30.261 10.8605 30.261 10.8605L28.2811 12.8605C27.6011 13.5605 27.261 14.7204 27.461 15.7204L28.021 18.1803C28.041 18.2203 28.0411 18.2604 28.0411 18.3004C28.0011 18.2804 27.941 18.2404 27.941 18.2404L25.5611 16.8205Z" fill="#44C5E2"/>
<path fill-rule="evenodd" clip-rule="evenodd" d="M18 45.5H7C6.18 45.5 5.5 44.82 5.5 44V36C5.5 32.86 5.50007 31.1401 6.82007 29.8201C8.14007 28.5001 9.86 28.5 13 28.5H14C16.14 28.5 17.42 28.5 18.46 29.5C19.5 30.58 19.5 31.86 19.5 34V44C19.5 44.82 18.82 45.5 18 45.5ZM8.5 42.5H16.5V34C16.5 33.0203 16.5 31.78 16.3401 31.6201C16.2201 31.5001 14.98 31.5 14 31.5H13C10.8205 31.5 9.37988 31.5 8.93994 31.9399C8.5 32.3799 8.5 33.8196 8.5 35.9991V42.5Z" fill="#44C5E2"/>
<path fill-rule="evenodd" clip-rule="evenodd" d="M41 45.5H30C29.18 45.5 28.5 44.82 28.5 44V38C28.5 35.86 28.5 34.58 29.5 33.54C30.58 32.5 31.86 32.5 34 32.5H35C38.14 32.5 39.8599 32.5001 41.1799 33.8201C42.4999 35.1401 42.5 36.86 42.5 40V44C42.5 44.82 41.82 45.5 41 45.5ZM31.5 42.5H39.5V40C39.5 37.8205 39.5 36.3799 39.0601 35.9399C38.6201 35.5 37.1804 35.5 35.0009 35.5H34C33.0203 35.5 31.78 35.5 31.6201 35.6599C31.5001 35.7799 31.5 37.02 31.5 38V42.5Z" fill="#44C5E2"/>
</g>
<path fill-rule="evenodd" clip-rule="evenodd" d="M4 45.5C3.18 45.5 2.5 44.82 2.5 44C2.5 43.18 3.18 42.5 4 42.5H16.5V32C16.5 28.86 16.5001 27.1401 17.8201 25.8201C19.1401 24.5001 20.86 24.5 24 24.5C27.14 24.5 28.8599 24.5001 30.1799 25.8201C31.4999 27.1401 31.5 28.86 31.5 32V42.5H44C44.82 42.5 45.5 43.18 45.5 44C45.5 44.82 44.82 45.5 44 45.5H4ZM28.5 42.5V32C28.5 29.8205 28.5 28.3799 28.0601 27.9399C27.6201 27.5 26.1804 27.5 24.0009 27.5C21.8214 27.5 20.3799 27.5 19.9399 27.9399C19.5 28.3799 19.5 29.8196 19.5 31.9991V42.5H28.5Z" fill="#44C5E2"/>
</svg>
