<svg width="48" height="48" viewBox="0 0 48 48" fill="none" xmlns="http://www.w3.org/2000/svg">
<path opacity="0.4" fill-rule="evenodd" clip-rule="evenodd" d="M32 19.5C29.5147 19.5 27.5 21.5147 27.5 24C27.5 26.4853 29.5147 28.5 32 28.5C34.4853 28.5 36.5 26.4853 36.5 24C36.5 21.5147 34.4853 19.5 32 19.5ZM24.5 24C24.5 19.8579 27.8579 16.5 32 16.5C36.1421 16.5 39.5 19.8579 39.5 24C39.5 28.1421 36.1421 31.5 32 31.5C27.8579 31.5 24.5 28.1421 24.5 24Z" fill="#44C5E2"/>
<path fill-rule="evenodd" clip-rule="evenodd" d="M2.5 24C2.5 16.5442 8.54416 10.5 16 10.5H32C39.4558 10.5 45.5 16.5442 45.5 24C45.5 31.4558 39.4558 37.5 32 37.5H16C8.54416 37.5 2.5 31.4558 2.5 24ZM16 13.5C10.201 13.5 5.5 18.201 5.5 24C5.5 29.799 10.201 34.5 16 34.5H32C37.799 34.5 42.5 29.799 42.5 24C42.5 18.201 37.799 13.5 32 13.5H16Z" fill="#44C5E2"/>
</svg>
