<svg width="48" height="48" viewBox="0 0 48 48" fill="none" xmlns="http://www.w3.org/2000/svg">
<path opacity="0.4" fill-rule="evenodd" clip-rule="evenodd" d="M24 17.5C20.4101 17.5 17.5 20.4101 17.5 24C17.5 24.4398 17.5435 24.8679 17.6259 25.2808C17.6282 25.2926 17.6305 25.3042 17.6328 25.3156C17.6998 25.2491 17.7721 25.1768 17.851 25.0979L18.9393 24.0096C19.5251 23.4238 20.4749 23.4238 21.0607 24.0096C21.6464 24.5954 21.6464 25.5451 21.0607 26.1309L19.9724 27.2192C19.9498 27.2417 19.9271 27.2645 19.9043 27.2874C19.5317 27.6605 19.1146 28.0781 18.7035 28.3563C18.1727 28.7154 17.4525 28.9813 16.6006 28.7231C15.8263 28.4885 15.3528 27.9636 15.0848 27.3566C14.893 26.9222 14.787 26.3879 14.7017 25.9574C14.6956 25.9271 14.6897 25.8972 14.6839 25.868C14.5631 25.2628 14.5 24.638 14.5 24C14.5 18.7533 18.7533 14.5 24 14.5C25.2571 14.5 26.4606 14.7449 27.5628 15.1911C28.3307 15.5019 28.7012 16.3764 28.3904 17.1443C28.0796 17.9122 27.2051 18.2828 26.4372 17.9719C25.6865 17.6681 24.8647 17.5 24 17.5ZM30.3984 22.8474C30.3326 22.9128 30.2618 22.9835 30.1848 23.0605L29.1847 24.0607C28.5989 24.6464 27.6491 24.6464 27.0633 24.0607C26.4775 23.4749 26.4775 22.5251 27.0633 21.9393L28.0635 20.9392C28.0863 20.9163 28.1093 20.8933 28.1325 20.8701C28.5112 20.4909 28.934 20.0675 29.3501 19.7867C29.8879 19.4239 30.6186 19.1573 31.4789 19.4292C31.8193 19.5369 32.1475 19.7162 32.4296 19.9933C32.7042 20.2628 32.8748 20.5659 32.9875 20.8375C33.1715 21.2809 33.2658 21.8248 33.342 22.2641C33.3474 22.295 33.3527 22.3255 33.3579 22.3553C33.4514 22.8905 33.5 23.4402 33.5 24C33.5 29.2467 29.2467 33.5 24 33.5C22.7429 33.5 21.5394 33.2551 20.4372 32.8089C19.6693 32.4981 19.2988 31.6236 19.6096 30.8557C19.9204 30.0878 20.7949 29.7172 21.5628 30.0281C22.3135 30.3319 23.1353 30.5 24 30.5C27.5899 30.5 30.5 27.5899 30.5 24C30.5 23.614 30.4665 23.2371 30.4027 22.8717C30.4012 22.8635 30.3998 22.8554 30.3984 22.8474Z" fill="#44C5E2"/>
<path fill-rule="evenodd" clip-rule="evenodd" d="M16.9621 7.01572C16.8327 7.08592 16.6835 7.17053 16.4937 7.27831L13.0443 9.23678C12.8509 9.34656 12.6987 9.43307 12.5693 9.50984C12.5604 9.51512 12.5518 9.52028 12.5433 9.52534C12.5905 9.73764 12.6633 10.0207 12.7684 10.4252C13.9884 15.1239 11.0376 19.9972 6.36856 21.2561C5.97845 21.3613 5.70523 21.4356 5.5035 21.4975C5.50331 21.506 5.50313 21.5147 5.50296 21.5236C5.50007 21.6727 5.50002 21.8463 5.50002 22.0671L5.50002 25.9343C5.50002 26.1551 5.50007 26.3287 5.50296 26.4778C5.50313 26.4867 5.50331 26.4954 5.5035 26.5039C5.70524 26.5658 5.97849 26.6402 6.36863 26.7454C11.0376 28.0046 13.9857 32.8781 12.7653 37.5762C12.6602 37.9806 12.5874 38.2637 12.5401 38.4759C12.5486 38.481 12.5573 38.4861 12.5661 38.4914C12.6955 38.5682 12.8478 38.6547 13.0411 38.7645L16.4905 40.7229C16.6804 40.8307 16.8295 40.9153 16.9589 40.9855C16.9657 40.9892 16.9724 40.9928 16.9789 40.9964C17.1299 40.8555 17.3264 40.6604 17.6059 40.3815C21.1115 36.8833 26.8917 36.8832 30.3973 40.3813C30.6768 40.6602 30.8733 40.8553 31.0243 40.9962C31.0308 40.9926 31.0375 40.989 31.0443 40.9854C31.1737 40.9151 31.3228 40.8305 31.5127 40.7227L34.9621 38.7643C35.1554 38.6545 35.3077 38.568 35.4371 38.4912C35.446 38.4859 35.4546 38.4808 35.4631 38.4757C35.4158 38.2635 35.3429 37.9805 35.2379 37.5763C34.0169 32.8787 36.9625 28.0049 41.6313 26.7455C42.0215 26.6402 42.2948 26.5658 42.4965 26.5039C42.4967 26.4954 42.4969 26.4867 42.4971 26.4778C42.5 26.3287 42.5 26.1551 42.5 25.9343V22.0671C42.5 21.8464 42.5 21.6727 42.4971 21.5237C42.4969 21.5148 42.4967 21.5061 42.4965 21.4975C42.2948 21.4356 42.0215 21.3613 41.6314 21.256C36.9625 19.9969 34.0143 15.1233 35.2348 10.4252C35.3398 10.0208 35.4127 9.73778 35.4599 9.52553C35.4514 9.52048 35.4428 9.51532 35.4339 9.51005C35.3045 9.43327 35.1523 9.34675 34.9589 9.23697L31.5095 7.2785C31.3197 7.17072 31.1705 7.08611 31.0411 7.01591C31.0343 7.01222 31.0276 7.00861 31.0211 7.00508C30.87 7.14593 30.6735 7.34107 30.3939 7.62003C26.8899 11.1156 21.1132 11.1155 17.6093 7.61983C17.3297 7.34088 17.1332 7.14574 16.9821 7.00489C16.9756 7.00842 16.9689 7.01203 16.9621 7.01572ZM16.0294 4.13054C16.3558 3.98721 16.8354 3.82168 17.4042 3.8983C18.0225 3.98161 18.4809 4.33665 18.7444 4.55832C19.0243 4.7937 19.3458 5.11457 19.6878 5.45577L19.7281 5.49599C22.0611 7.82348 25.9421 7.82354 28.2751 5.49616L28.3155 5.45591C28.6574 5.11472 28.979 4.79387 29.2588 4.5585C29.5224 4.33683 29.9807 3.98179 30.5991 3.8985C31.1678 3.82187 31.6474 3.98741 31.9738 4.13073C32.2739 4.26249 32.6125 4.45483 32.941 4.64143L36.4902 6.65659C36.8256 6.8469 37.1692 7.04188 37.4393 7.23414C37.731 7.44172 38.125 7.77217 38.3512 8.3069C38.5981 8.89066 38.5184 9.47896 38.4597 9.81928C38.3962 10.1875 38.2788 10.6392 38.1527 11.1244L38.1384 11.1795C37.3454 14.232 39.28 17.5147 42.4126 18.3595L42.4677 18.3744C42.9419 18.5022 43.3861 18.622 43.7336 18.748C44.0586 18.8659 44.6018 19.0873 44.9846 19.587C45.3364 20.0462 45.4296 20.5494 45.4663 20.9056C45.5002 21.2342 45.5001 21.6272 45.5 22.0095V25.9919C45.5001 26.3743 45.5002 26.7673 45.4664 27.0958C45.4297 27.452 45.3364 27.9552 44.9847 28.4144C44.6019 28.9141 44.0587 29.1354 43.7337 29.2534C43.3862 29.3794 42.9419 29.4992 42.4678 29.6271L42.4126 29.6419C39.2812 30.4866 37.3479 33.7688 38.1414 36.8216L38.1558 36.8769C38.2819 37.3619 38.3993 37.8136 38.4628 38.1817C38.5216 38.5221 38.6013 39.1104 38.3545 39.6942C38.1283 40.229 37.7342 40.5595 37.4426 40.7671C37.1724 40.9593 36.8288 41.1543 36.4935 41.3446L32.9441 43.3599C32.6156 43.5465 32.277 43.7388 31.9769 43.8706C31.6504 44.0139 31.1709 44.1794 30.602 44.1028C29.9837 44.0194 29.5253 43.6643 29.2618 43.4426C28.9819 43.2072 28.6604 42.8863 28.3186 42.5451L28.2782 42.5049C25.9437 40.1754 22.0595 40.1754 19.725 42.505L19.6847 42.5452C19.3428 42.8864 19.0213 43.2074 18.7414 43.4428C18.4779 43.6645 18.0195 44.0196 17.4012 44.1029C16.8324 44.1796 16.3528 44.0141 16.0263 43.8708C15.7261 43.739 15.3875 43.5466 15.059 43.36L11.5099 41.3449C11.1745 41.1546 10.8308 40.9596 10.5607 40.7673C10.2691 40.5597 9.87499 40.2293 9.64883 39.6945C9.40193 39.1108 9.48164 38.5225 9.54033 38.1822C9.60384 37.8139 9.72123 37.3622 9.8473 36.8771L9.86165 36.8219C10.6546 33.7695 8.72005 30.4867 5.58748 29.6419L5.53225 29.627C5.05813 29.4992 4.61389 29.3795 4.26645 29.2534C3.94142 29.1355 3.39819 28.9142 3.0154 28.4145C2.66363 27.9553 2.57038 27.452 2.53369 27.0958C2.49983 26.7673 2.49992 26.3743 2.50001 25.9919C2.50001 25.9727 2.50002 25.9535 2.50002 25.9343L2.50002 22.0671C2.50002 22.0479 2.50001 22.0287 2.50001 22.0095C2.49992 21.6271 2.49983 21.2341 2.53369 20.9056C2.57039 20.5494 2.66364 20.0461 3.01544 19.5869C3.39825 19.0872 3.94148 18.8659 4.26653 18.748C4.61398 18.6219 5.05824 18.5022 5.53236 18.3744L5.58756 18.3595C8.72131 17.5146 10.6571 14.2313 9.86465 11.1792C9.85986 11.1607 9.85507 11.1423 9.8503 11.1239C9.72429 10.6388 9.60696 10.1871 9.54349 9.81887C9.48483 9.47858 9.40517 8.89027 9.65209 8.30655C9.87826 7.77187 10.2723 7.44146 10.5639 7.2339C10.834 7.04167 11.1776 6.8467 11.5129 6.65641C11.5297 6.64691 11.5464 6.63742 11.5631 6.62794L15.0125 4.66948C15.029 4.66008 15.0456 4.65065 15.0623 4.64121C15.3907 4.45462 15.7293 4.26229 16.0294 4.13054Z" fill="#44C5E2"/>
</svg>
