<svg width="48" height="48" viewBox="0 0 48 48" fill="none" xmlns="http://www.w3.org/2000/svg">
<path fill-rule="evenodd" clip-rule="evenodd" d="M24 6.5C22.6613 6.5 21.3595 6.65004 20.1097 6.93363C19.3018 7.11695 18.4983 6.61063 18.315 5.80274C18.1316 4.99485 18.638 4.19132 19.4458 4.008C20.9119 3.67533 22.4364 3.5 24 3.5C35.3218 3.5 44.5 12.6782 44.5 24C44.5 29.5797 42.27 34.6382 38.656 38.3333H41C41.8284 38.3333 42.5 39.0049 42.5 39.8333C42.5 40.6618 41.8284 41.3333 41 41.3333H34.5064C33.6779 41.3333 33.0064 40.6618 33.0064 39.8333V34C33.0064 33.1716 33.6779 32.5 34.5064 32.5C35.3348 32.5 36.0064 33.1716 36.0064 34V36.732C39.3905 33.5398 41.5 29.016 41.5 24C41.5 14.335 33.665 6.5 24 6.5ZM5.5 8.19949C5.5 7.37107 6.17157 6.69949 7 6.69949H13.4444C14.2729 6.69949 14.9444 7.37107 14.9444 8.19949V14C14.9444 14.8284 14.2729 15.5 13.4444 15.5C12.616 15.5 11.9444 14.8284 11.9444 14V11.3146C8.58905 14.5042 6.5 19.0083 6.5 24C6.5 33.665 14.335 41.5 24 41.5C25.3387 41.5 26.6405 41.35 27.8903 41.0664C28.6982 40.8831 29.5017 41.3894 29.685 42.1973C29.8684 43.0051 29.362 43.8087 28.5542 43.992C27.0881 44.3247 25.5636 44.5 24 44.5C12.6782 44.5 3.5 35.3218 3.5 24C3.5 18.4368 5.7168 13.3917 9.31192 9.69949H7C6.17157 9.69949 5.5 9.02792 5.5 8.19949Z" fill="#44C5E2"/>
<path opacity="0.4" fill-rule="evenodd" clip-rule="evenodd" d="M25.8602 12.7713C26.5389 13.2464 26.7039 14.1816 26.2289 14.8603L20.881 22.5001H30C30.5593 22.5001 31.0722 22.8113 31.3305 23.3074C31.5888 23.8035 31.5496 24.4021 31.2289 24.8603L24.2289 34.8603C23.7538 35.539 22.8185 35.7041 22.1398 35.229C21.4611 34.7539 21.2961 33.8186 21.7712 33.1399L27.119 25.5001H18C17.4407 25.5001 16.9278 25.1889 16.6695 24.6928C16.4112 24.1967 16.4504 23.5981 16.7712 23.1399L23.7712 13.1399C24.2462 12.4613 25.1815 12.2962 25.8602 12.7713Z" fill="#44C5E2"/>
</svg>
