<svg width="48" height="48" viewBox="0 0 48 48" fill="none" xmlns="http://www.w3.org/2000/svg">
<path fill-rule="evenodd" clip-rule="evenodd" d="M22.8693 2.5H23.1307C27.0266 2.49995 30.1295 2.49992 32.5612 2.88454C35.0914 3.28475 37.0993 4.12921 38.6533 5.95746C39.8797 7.40024 40.5568 9.14304 40.9442 11.2531C41.327 13.3377 41.4433 15.8779 41.4814 18.9816C41.4916 19.8099 40.8283 20.4897 40 20.4999C39.1716 20.5101 38.4918 19.8468 38.4816 19.0184C38.4436 15.9232 38.3263 13.6068 37.9936 11.7949C37.6656 10.0086 37.1452 8.81534 36.3675 7.90041C35.4319 6.79973 34.1916 6.17972 32.0925 5.8477C29.9219 5.50438 27.0566 5.5 23 5.5C18.9434 5.5 16.0781 5.50438 13.9075 5.8477C11.8084 6.17972 10.5681 6.79973 9.6325 7.90041C8.66701 9.03627 8.09823 10.6011 7.8015 13.1976C7.50231 15.8156 7.5 19.2498 7.5 24C7.5 28.7502 7.50231 32.1844 7.8015 34.8024C8.09823 37.3989 8.66702 38.9637 9.6325 40.0996C10.5681 41.2003 11.8084 41.8203 13.9075 42.1523C16.0781 42.4956 18.9434 42.5 23 42.5C23.8284 42.5 24.5 43.1716 24.5 44C24.5 44.8284 23.8284 45.5 23 45.5H22.8693C18.9734 45.5001 15.8705 45.5001 13.4388 45.1155C10.9086 44.7153 8.9007 43.8708 7.34668 42.0425C5.82258 40.2495 5.14657 37.9928 4.8209 35.143C4.49997 32.3348 4.49998 28.7292 4.5 24.099V23.901C4.49998 19.2708 4.49997 15.6652 4.8209 12.857C5.14657 10.0072 5.82258 7.75053 7.34668 5.95746C8.9007 4.12921 10.9086 3.28475 13.4388 2.88454C15.8705 2.49992 18.9734 2.49995 22.8693 2.5Z" fill="#44C5E2"/>
<g opacity="0.4">
<path d="M16 14.5C15.1716 14.5 14.5 15.1716 14.5 16C14.5 16.8284 15.1716 17.5 16 17.5H30C30.8284 17.5 31.5 16.8284 31.5 16C31.5 15.1716 30.8284 14.5 30 14.5H16Z" fill="#44C5E2"/>
<path d="M16 24.5C15.1716 24.5 14.5 25.1716 14.5 26C14.5 26.8284 15.1716 27.5 16 27.5H22C22.8284 27.5 23.5 26.8284 23.5 26C23.5 25.1716 22.8284 24.5 22 24.5H16Z" fill="#44C5E2"/>
<path fill-rule="evenodd" clip-rule="evenodd" d="M34.75 22.5C30.1937 22.5 26.5 26.1937 26.5 30.75C26.5 33.0954 27.4798 35.212 29.0483 36.7126L28.1726 39.4698C27.962 40.133 27.7845 40.6919 27.6702 41.1381C27.5617 41.5621 27.4502 42.0929 27.5243 42.6236C27.7463 44.2153 29.0707 45.4939 30.7441 45.5C31.3015 45.502 31.8192 45.2946 32.203 45.1222C32.6121 44.9384 33.1176 44.6731 33.7102 44.3621L33.7524 44.34C34.3443 44.0294 34.4668 43.9723 34.5732 43.9402C34.8526 43.8559 35.1474 43.8559 35.4268 43.9402C35.5332 43.9723 35.6557 44.0294 36.2476 44.34L36.2898 44.3621C36.8824 44.6731 37.3879 44.9384 37.797 45.1222C38.1808 45.2946 38.6985 45.502 39.2559 45.5C40.9293 45.4939 42.2537 44.2153 42.4757 42.6236C42.5498 42.0929 42.4383 41.5621 42.3298 41.1381C42.2155 40.6919 42.0381 40.1332 41.8275 39.47L40.9517 36.7126C42.5202 35.212 43.5 33.0954 43.5 30.75C43.5 26.1937 39.8063 22.5 35.25 22.5H34.75ZM31.0455 40.3349L31.6597 38.4012C32.6147 38.7873 33.6583 39 34.75 39H35.25C36.3417 39 37.3853 38.7873 38.3403 38.4012L38.9545 40.3349C39.1824 41.0526 39.3331 41.529 39.4235 41.8821C39.481 42.1067 39.4945 42.2129 39.4983 42.2434C39.4648 42.4011 39.3651 42.4716 39.2914 42.4927C39.2478 42.478 39.1634 42.4472 39.0263 42.3856C38.7114 42.2442 38.2882 42.0228 37.6416 41.6835L37.549 41.6349C37.1016 41.3996 36.7098 41.1937 36.293 41.068C35.4487 40.8133 34.5513 40.8133 33.707 41.068C33.2902 41.1937 32.8984 41.3996 32.451 41.6349L32.3584 41.6835C31.7118 42.0228 31.2886 42.2442 30.9737 42.3856C30.8366 42.4472 30.7522 42.478 30.7086 42.4927C30.6349 42.4716 30.5352 42.4016 30.5016 42.244C30.5055 42.2134 30.519 42.1067 30.5765 41.8821C30.6669 41.529 30.8176 41.0526 31.0455 40.3349ZM29.5 30.75C29.5 27.8505 31.8505 25.5 34.75 25.5H35.25C38.1495 25.5 40.5 27.8505 40.5 30.75C40.5 32.4948 39.6503 34.041 38.3357 34.9981C37.4697 35.6285 36.4054 36 35.25 36H34.75C33.5946 36 32.5303 35.6285 31.6643 34.9981C30.3497 34.041 29.5 32.4948 29.5 30.75Z" fill="#44C5E2"/>
</g>
</svg>
