<svg width="48" height="48" viewBox="0 0 48 48" fill="none" xmlns="http://www.w3.org/2000/svg">
<path fill-rule="evenodd" clip-rule="evenodd" d="M22.4735 2.79302C23.4543 2.40233 24.5457 2.40233 25.5265 2.79302C26.1439 3.03893 26.6195 3.45132 27.0341 3.88698C27.4312 4.30432 27.8728 4.85435 28.3844 5.4915L28.4225 5.53896C29.0978 6.38004 29.2251 6.50706 29.3392 6.5789C29.4982 6.67894 29.6771 6.73735 29.8607 6.75064C29.9892 6.75993 30.1645 6.73358 31.2132 6.44969L31.2708 6.43409C32.0475 6.22381 32.7176 6.04238 33.2747 5.93987C33.8548 5.83311 34.4726 5.77804 35.1067 5.93594C36.1709 6.20097 37.0836 6.87783 37.6531 7.81302C37.9896 8.36565 38.1268 8.9647 38.2047 9.55022C38.2794 10.1118 38.3148 10.8041 38.3559 11.6082L38.3589 11.6669C38.4133 12.7281 38.4411 12.9106 38.4923 13.0415C38.5666 13.2317 38.6864 13.3973 38.8382 13.5241C38.939 13.6083 39.0956 13.6893 40.086 14.0711L40.1409 14.0922C40.8838 14.3786 41.5247 14.6256 42.0303 14.8695C42.5575 15.1238 43.0819 15.4396 43.4994 15.9314C44.2246 16.7856 44.5778 17.8953 44.4856 19.011C44.4328 19.65 44.1957 20.2103 43.9185 20.7263C43.6529 21.2206 43.2807 21.7966 42.8486 22.4652L42.8169 22.5142C42.248 23.3945 42.1656 23.5554 42.1307 23.6896C42.0779 23.893 42.0779 24.107 42.1307 24.3104C42.1656 24.4446 42.248 24.6055 42.8169 25.4858L42.8486 25.5348C43.2807 26.2034 43.6529 26.7794 43.9185 27.2737C44.1957 27.7897 44.4328 28.35 44.4856 28.989C44.5778 30.1047 44.2246 31.2144 43.4994 32.0686C43.0819 32.5604 42.5575 32.8762 42.0303 33.1305C41.5247 33.3744 40.8839 33.6214 40.1409 33.9077L40.086 33.9289C39.0956 34.3107 38.939 34.3917 38.8382 34.4759C38.6864 34.6027 38.5666 34.7682 38.4923 34.9585C38.4411 35.0894 38.4133 35.2719 38.3589 36.3331L38.3559 36.3918C38.3148 37.1959 38.2794 37.8882 38.2047 38.4498C38.1268 39.0353 37.9896 39.6344 37.6531 40.187C37.0836 41.1222 36.1709 41.799 35.1067 42.0641C34.4726 42.222 33.8548 42.1669 33.2747 42.0601C32.7176 41.9576 32.0475 41.7762 31.2708 41.5659L31.2132 41.5503C30.1645 41.2664 29.9892 41.2401 29.8607 41.2494C29.6771 41.2626 29.4982 41.3211 29.3392 41.4211C29.2251 41.4929 29.0978 41.62 28.4225 42.461L28.3843 42.5086C27.8728 43.1457 27.4312 43.6957 27.0341 44.113C26.6195 44.5487 26.1439 44.9611 25.5265 45.207C24.5457 45.5977 23.4543 45.5977 22.4735 45.207C21.8561 44.9611 21.3805 44.5487 20.9659 44.113C20.5688 43.6957 20.1272 43.1457 19.6156 42.5085L19.5775 42.461C18.9022 41.62 18.7749 41.4929 18.6608 41.4211C18.5018 41.3211 18.3229 41.2626 18.1393 41.2494C18.0108 41.2401 17.8355 41.2664 16.7868 41.5503L16.7292 41.5659C15.9525 41.7762 15.2824 41.9576 14.7253 42.0601C14.1452 42.1669 13.5274 42.222 12.8933 42.0641C11.8291 41.799 10.9164 41.1222 10.3469 40.187C10.0104 39.6344 9.87321 39.0353 9.79532 38.4498C9.72062 37.8882 9.6852 37.1959 9.64405 36.3918L9.64105 36.3331C9.58672 35.2719 9.55889 35.0894 9.50772 34.9585C9.43335 34.7682 9.3136 34.6027 9.16182 34.4759C9.06098 34.3917 8.90443 34.3107 7.91402 33.9289L7.85906 33.9077C7.11613 33.6214 6.47528 33.3744 5.96972 33.1305C5.44246 32.8762 4.91814 32.5604 4.50061 32.0686C3.77541 31.2144 3.42219 30.1047 3.5144 28.989C3.56721 28.35 3.80431 27.7897 4.08154 27.2737C4.3471 26.7794 4.71937 26.2033 5.15147 25.5348L5.18313 25.4858C5.75202 24.6055 5.83438 24.4446 5.86928 24.3104C5.92214 24.107 5.92214 23.893 5.86928 23.6896C5.83438 23.5554 5.75202 23.3945 5.18313 22.5142L5.15148 22.4653C4.71938 21.7967 4.3471 21.2206 4.08153 20.7263C3.80431 20.2103 3.56721 19.65 3.5144 19.011C3.42219 17.8953 3.77541 16.7856 4.50061 15.9314C4.91814 15.4396 5.44246 15.1238 5.96972 14.8695C6.47528 14.6256 7.11612 14.3786 7.85905 14.0923L7.91402 14.0711C8.90443 13.6893 9.06098 13.6083 9.16182 13.5241C9.3136 13.3973 9.43335 13.2318 9.50772 13.0415C9.55889 12.9106 9.58672 12.7281 9.64105 11.6669L9.64405 11.6082C9.6852 10.8041 9.72062 10.1118 9.79532 9.55021C9.87321 8.9647 10.0104 8.36564 10.3469 7.81302C10.9164 6.87783 11.8291 6.20097 12.8933 5.93594C13.5274 5.77804 14.1452 5.83311 14.7253 5.93987C15.2824 6.04238 15.9525 6.2238 16.7292 6.43409L16.7868 6.44969C17.8355 6.73358 18.0108 6.75993 18.1393 6.75064C18.3229 6.73735 18.5018 6.67894 18.6608 6.5789C18.7749 6.50706 18.9022 6.38004 19.5775 5.53896L19.6156 5.49157C20.1271 4.85439 20.5687 4.30433 20.9659 3.88698C21.3805 3.45132 21.8561 3.03893 22.4735 2.79302ZM24.4164 5.58006C24.1484 5.47331 23.8516 5.47331 23.5836 5.58006C23.5519 5.59269 23.431 5.64841 23.1392 5.95505C22.8398 6.26968 22.4772 6.71917 21.9168 7.41719C21.8797 7.46339 21.8429 7.50939 21.8063 7.55515C21.3132 8.17135 20.857 8.74134 20.2588 9.11786C19.6852 9.47887 19.0321 9.69388 18.3558 9.74281C17.6492 9.79394 16.9391 9.60046 16.1761 9.39255C16.1187 9.3769 16.061 9.36118 16.0029 9.34547C15.1523 9.11519 14.6028 8.9677 14.1823 8.89032C13.7712 8.81465 13.6454 8.84027 13.6183 8.84703C13.3288 8.91913 13.0724 9.10534 12.9093 9.37328C12.888 9.40826 12.8244 9.53015 12.7691 9.94582C12.7124 10.3718 12.6821 10.9409 12.6371 11.8203C12.6342 11.8782 12.6313 11.9358 12.6285 11.993C12.5896 12.7738 12.5541 13.4883 12.3018 14.1338C12.0449 14.791 11.627 15.3739 11.085 15.8266C10.5513 16.2724 9.88025 16.5298 9.1557 16.8078C9.10178 16.8285 9.04755 16.8493 8.99307 16.8703C8.17964 17.1839 7.65483 17.3874 7.27299 17.5716C6.90042 17.7513 6.80988 17.8467 6.78756 17.873C6.58144 18.1158 6.47717 18.4368 6.5042 18.7638C6.50771 18.8062 6.52832 18.9418 6.72429 19.3065C6.92545 19.681 7.23013 20.1545 7.70278 20.8859C7.7338 20.9339 7.76471 20.9816 7.79543 21.029C8.21508 21.6762 8.59979 22.2696 8.77273 22.9347C8.95432 23.6331 8.95432 24.3669 8.77273 25.0653C8.59979 25.7304 8.21508 26.3238 7.79543 26.971C7.76471 27.0184 7.7338 27.0661 7.70278 27.1141C7.23013 27.8455 6.92545 28.319 6.72429 28.6935C6.52832 29.0582 6.50771 29.1938 6.5042 29.2362C6.47717 29.5632 6.58144 29.8842 6.78756 30.127C6.80988 30.1533 6.90042 30.2487 7.27299 30.4284C7.65484 30.6126 8.17964 30.8161 8.99307 31.1297C9.04755 31.1507 9.10178 31.1715 9.1557 31.1922C9.88025 31.4702 10.5513 31.7276 11.085 32.1734C11.627 32.6261 12.0449 33.209 12.3018 33.8662C12.5541 34.5117 12.5896 35.2262 12.6285 36.007C12.6313 36.0642 12.6342 36.1218 12.6371 36.1797C12.6821 37.0591 12.7124 37.6282 12.7691 38.0542C12.8244 38.4698 12.888 38.5917 12.9093 38.6267C13.0724 38.8947 13.3288 39.0809 13.6183 39.153C13.6454 39.1597 13.7712 39.1853 14.1823 39.1097C14.6028 39.0323 15.1523 38.8848 16.0029 38.6545C16.061 38.6388 16.1187 38.6231 16.1761 38.6075C16.9391 38.3995 17.6492 38.2061 18.3558 38.2572C19.0321 38.3061 19.6852 38.5211 20.2588 38.8821C20.857 39.2587 21.3132 39.8287 21.8063 40.4449C21.8429 40.4906 21.8797 40.5366 21.9168 40.5828C22.4772 41.2808 22.8397 41.7303 23.1392 42.045C23.431 42.3516 23.5519 42.4073 23.5836 42.4199C23.8516 42.5267 24.1484 42.5267 24.4164 42.4199C24.4481 42.4073 24.569 42.3516 24.8608 42.045C25.1602 41.7303 25.5227 41.2808 26.0832 40.5828C26.1203 40.5366 26.1571 40.4906 26.1937 40.4448C26.6869 39.8286 27.143 39.2587 27.7412 38.8821C28.3148 38.5211 28.9679 38.3061 29.6442 38.2572C30.3508 38.2061 31.0609 38.3995 31.8239 38.6074C31.8813 38.6231 31.939 38.6388 31.9971 38.6545C32.8477 38.8848 33.3972 39.0323 33.8177 39.1097C34.2288 39.1853 34.3546 39.1597 34.3817 39.153C34.6712 39.0809 34.9276 38.8947 35.0907 38.6267C35.112 38.5917 35.1756 38.4698 35.2309 38.0542C35.2876 37.6282 35.3179 37.0591 35.3629 36.1797C35.3658 36.1218 35.3687 36.0642 35.3715 36.007C35.4103 35.2262 35.4459 34.5117 35.6982 33.8662C35.9551 33.209 36.373 32.6261 36.915 32.1734C37.4487 31.7276 38.1197 31.4702 38.8443 31.1922C38.8982 31.1715 38.9524 31.1507 39.0069 31.1297C39.8204 30.8161 40.3452 30.6126 40.727 30.4284C41.0996 30.2487 41.1901 30.1533 41.2124 30.127C41.4186 29.8842 41.5228 29.5632 41.4958 29.2362C41.4923 29.1938 41.4717 29.0582 41.2757 28.6935C41.0745 28.319 40.7699 27.8455 40.2972 27.1141C40.2662 27.0661 40.2353 27.0184 40.2046 26.9711C39.7849 26.3238 39.4002 25.7304 39.2273 25.0653C39.0457 24.3669 39.0457 23.6331 39.2273 22.9347C39.4002 22.2696 39.7849 21.6762 40.2046 21.0289C40.2353 20.9816 40.2662 20.9339 40.2972 20.8859C40.7699 20.1545 41.0745 19.681 41.2757 19.3065C41.4717 18.9418 41.4923 18.8062 41.4958 18.7638C41.5228 18.4368 41.4186 18.1158 41.2124 17.873C41.1901 17.8467 41.0996 17.7513 40.727 17.5716C40.3452 17.3874 39.8204 17.1839 39.0069 16.8703C38.9524 16.8493 38.8982 16.8285 38.8443 16.8078C38.1198 16.5298 37.4487 16.2724 36.915 15.8266C36.373 15.3739 35.9551 14.791 35.6982 14.1338C35.4459 13.4883 35.4103 12.7738 35.3715 11.993C35.3687 11.9358 35.3658 11.8782 35.3629 11.8203C35.3179 10.9409 35.2876 10.3718 35.2309 9.94582C35.1756 9.53015 35.112 9.40826 35.0907 9.37328C34.9276 9.10534 34.6712 8.91913 34.3817 8.84702C34.3546 8.84027 34.2288 8.81465 33.8177 8.89032C33.3972 8.9677 32.8477 9.11519 31.9971 9.34547C31.939 9.36118 31.8813 9.3769 31.8239 9.39255C31.0609 9.60046 30.3508 9.79394 29.6442 9.74281C28.9679 9.69388 28.3148 9.47887 27.7412 9.11786C27.143 8.74134 26.6868 8.17135 26.1937 7.55514C26.1571 7.50939 26.1203 7.46339 26.0832 7.41719C25.5227 6.71917 25.1602 6.26968 24.8608 5.95505C24.569 5.64841 24.4481 5.59269 24.4164 5.58006Z" fill="#44C5E2"/>
<path opacity="0.4" fill-rule="evenodd" clip-rule="evenodd" d="M33.4213 19.521C33.6861 20.306 33.2644 21.157 32.4794 21.4217C31.4955 21.7536 30.3872 22.4561 29.2364 23.4173C28.0999 24.3665 26.9981 25.5033 26.0254 26.6138C25.0555 27.7211 24.2321 28.7813 23.6509 29.5655C23.3608 29.9568 23.1324 30.2776 22.9777 30.4988C22.9004 30.6093 22.8415 30.6949 22.8027 30.7518L22.7597 30.8152L22.7498 30.8299L22.7478 30.8328C22.4541 31.273 21.9499 31.5261 21.4214 31.4983C20.8928 31.4706 20.418 31.1663 20.1719 30.6977C19.3932 29.2144 18.6822 28.5992 18.2897 28.3501C18.1684 28.273 18.0358 28.1988 17.8951 28.1635C17.1156 28.1096 16.5 27.4602 16.5 26.6671C16.5 25.8386 17.1716 25.1671 18 25.1671C18.685 25.1671 19.3121 25.4456 19.8978 25.8174C20.4258 26.1527 20.993 26.6419 21.5641 27.3476C22.1476 26.5774 22.9014 25.6272 23.7687 24.6371C24.8033 23.4559 26.0178 22.1968 27.3133 21.1148C28.5944 20.0447 30.0339 19.0806 31.5206 18.5791C32.3056 18.3143 33.1565 18.736 33.4213 19.521Z" fill="#44C5E2"/>
</svg>
