<svg width="106" height="48" viewBox="0 0 106 48" fill="none" xmlns="http://www.w3.org/2000/svg">
<g clip-path="url(#clip0_93_935)">
<path d="M2.45214 18.6667L0 20.1318V17.2017L2.45214 18.6667Z" fill="#44C5E2"/>
<path d="M3.22041 8.90634V17.2331L0 15.3042V6.43994C1.01033 7.14613 2.02065 7.84179 3.03098 8.54798C3.14674 8.6323 3.20989 8.71662 3.22041 8.8431C3.22041 8.86418 3.22041 8.88526 3.22041 8.90634Z" fill="#44C5E2"/>
<path d="M3.22041 28.3531C3.22041 28.3531 3.22041 28.4058 3.22041 28.4374C3.20989 28.5849 3.13622 28.6798 2.9994 28.7747C1.9996 29.4703 0.999801 30.166 0 30.8616V22.0184L3.22041 20.1001V27.5415C3.22041 27.8155 3.22041 28.0896 3.22041 28.3636" fill="#44C5E2"/>
<path d="M3.22041 0V6.68248C3.12569 6.61924 3.06255 6.57707 2.9994 6.53491C1.9996 5.83926 0.999801 5.14361 0 4.44796V0H3.22041Z" fill="#44C5E2"/>
<path d="M3.22041 36.5849V37.3649H0V32.8537L3.02045 30.7456C3.07307 30.7035 3.13622 30.6718 3.22041 30.6191V30.8932C3.22041 32.7693 3.22041 34.6455 3.22041 36.5216C3.22041 36.5427 3.22041 36.5638 3.22041 36.5849Z" fill="#44C5E2"/>
<path d="M37.3098 0V37.365H4.84256V30.6509C4.91622 30.693 4.9478 30.7141 4.97937 30.7352C5.93707 31.4097 6.9053 32.0738 7.86301 32.7484C8.21031 32.9908 8.55761 33.2437 8.91543 33.4756C9.43112 33.8234 10.1047 33.5283 10.1889 32.9381C10.2415 32.5692 10.0836 32.2951 9.77842 32.0843C8.18926 30.9776 6.6001 29.8709 5.00042 28.7536C4.9057 28.6904 4.85308 28.6271 4.84256 28.5217C4.84256 28.5007 4.84256 28.4796 4.84256 28.448C4.84256 28.1634 4.84256 27.8788 4.84256 27.5837V20.0896L11.6728 24.1792C11.778 24.2424 11.8938 24.3057 11.999 24.3794C12.1043 24.4427 12.1358 24.5165 12.1464 24.6324C12.2306 25.7918 12.3148 26.9407 12.3884 28.1001C12.4516 28.9223 12.5042 29.7549 12.5673 30.5771C12.5884 30.9354 12.7673 31.1884 13.1041 31.3254C13.4093 31.4414 13.6934 31.3781 13.9355 31.1568C14.146 30.9671 14.2091 30.7246 14.1986 30.4401C14.0828 28.8696 13.9776 27.2991 13.8618 25.718C13.8618 25.6548 13.8618 25.5916 13.8513 25.4862L14.0618 25.6126C15.672 26.5718 17.2717 27.531 18.8713 28.4901C19.0503 28.5955 19.2292 28.6588 19.4291 28.6377C19.7764 28.5955 20.0606 28.3426 20.1343 28.0158C20.2184 27.668 20.0711 27.3202 19.7659 27.141C18.1873 26.1924 16.5981 25.2437 15.009 24.2951L14.6932 24.1054C14.7985 24.0527 14.8616 24.0211 14.9353 23.9895C16.3455 23.3465 17.7558 22.7141 19.1555 22.0817C19.4186 21.9657 19.608 21.776 19.6712 21.502C19.7449 21.1858 19.6607 20.9012 19.4081 20.6904C19.1345 20.4585 18.8187 20.4374 18.503 20.585C16.7349 21.386 14.9669 22.1871 13.1988 22.9881C13.0515 23.0514 12.9357 23.0619 12.7883 22.9671C12.6936 22.9038 12.5884 22.8511 12.4937 22.7879L5.58978 18.6667L12.0727 14.7984C12.3148 14.6509 12.5673 14.5033 12.8094 14.3557C12.9357 14.2819 13.0304 14.2819 13.1567 14.3347C14.9248 15.1357 16.6928 15.9368 18.4609 16.7378C18.7977 16.8959 19.1134 16.8959 19.4081 16.6535C19.8817 16.274 19.7764 15.5573 19.2186 15.2833C18.8398 15.0935 18.4399 14.9249 18.061 14.7563C16.998 14.2714 15.9246 13.7866 14.8511 13.3017C14.809 13.2806 14.7774 13.2596 14.7038 13.2174L14.9037 13.1014C16.5139 12.1318 18.1347 11.1726 19.7449 10.2029C20.2711 9.88669 20.3026 9.1805 19.8185 8.83267C19.5238 8.62187 19.2186 8.62187 18.9029 8.81159C17.2927 9.77075 15.6825 10.7404 14.0723 11.6996L13.8408 11.8366C13.8408 11.7312 13.8408 11.668 13.8408 11.5942C13.946 10.0132 14.0618 8.43215 14.1775 6.86166C14.2091 6.37681 13.8934 5.99736 13.4303 5.9552C12.9778 5.92358 12.5884 6.26087 12.5568 6.74572C12.42 8.69565 12.2727 10.6456 12.1464 12.5955C12.1358 12.7852 12.0727 12.9012 11.9043 13.0066C11.6728 13.1436 11.4307 13.2912 11.1992 13.4282L4.83203 17.2332V8.87484C4.83203 8.85375 4.83203 8.83267 4.83203 8.81159C4.84256 8.72727 4.89518 8.66403 4.96885 8.61133C5.91603 7.9473 6.86321 7.29381 7.81039 6.62978C8.48394 6.15547 9.16801 5.68116 9.84156 5.21739C10.1362 5.00659 10.2625 4.73254 10.2099 4.37418C10.1573 4.05797 9.95733 3.83663 9.6416 3.74177C9.36797 3.65744 9.12591 3.72069 8.89438 3.88933C7.61043 4.79578 6.31595 5.6917 5.02147 6.59816C4.96885 6.62978 4.91623 6.67194 4.83203 6.72464V6.47167C4.83203 4.59552 4.83203 2.72991 4.83203 0.853755V0.0105402H37.2993L37.3098 0Z" fill="#44C5E2"/>
<path d="M74.3419 2.50871C74.5629 2.70898 74.826 2.80384 75.1522 2.80384C75.4469 2.80384 75.689 2.70898 75.91 2.50871C76.1205 2.30845 76.2362 2.05548 76.2362 1.73928C76.2362 1.42307 76.131 1.18065 75.91 0.990926C75.6995 0.801203 75.4469 0.695801 75.1522 0.695801C74.826 0.695801 74.5524 0.801203 74.3419 1.00147C74.1314 1.20173 74.0156 1.45469 74.0156 1.73928C74.0156 2.05548 74.1314 2.30845 74.3524 2.50871" fill="#374C82"/>
<path d="M104.675 4.32143C104.38 4.32143 104.149 4.56385 104.149 4.85898V9.22261C104.149 10.1923 103.896 10.9301 103.401 11.4361C102.907 11.942 102.202 12.1844 101.286 12.1844C100.718 12.1844 100.223 12.0685 99.802 11.8471C99.381 11.6258 99.0443 11.299 98.8127 10.8774C98.5707 10.4558 98.4549 9.97097 98.4549 9.4018V4.86952C98.4549 4.57439 98.2128 4.33197 97.9287 4.33197H97.1288C96.8342 4.33197 96.6026 4.57439 96.6026 4.86952V9.15937C96.6026 10.108 96.329 10.8247 95.7712 11.299C95.2134 11.7839 94.5083 12.0158 93.6453 12.0158H91.3931V4.33197H90.0671C89.7724 4.33197 89.5304 4.57439 89.5304 4.86952V12.0158H76.0699V4.60601C76.0699 4.45845 75.9436 4.33197 75.7962 4.33197H74.4912C74.3439 4.33197 74.2176 4.45845 74.2176 4.60601V12.0158H54.7478V3.41497C54.7478 3.36227 54.7057 3.30957 54.6425 3.30957H52.001C50.7907 3.30957 49.7277 3.53091 48.8121 3.9736C47.8965 4.41629 47.1914 5.03816 46.6757 5.82867C46.1705 6.62973 45.918 7.54672 45.918 8.60074V8.6429C45.918 9.6653 46.16 10.5718 46.6441 11.3623C47.1283 12.1528 47.8123 12.7641 48.6964 13.2068C49.5804 13.6389 50.5907 13.8603 51.7484 13.8603H52.864V14.05C52.864 14.5454 52.7587 14.9459 52.5588 15.2621C52.3588 15.5783 52.0746 15.8102 51.7063 15.9578C51.3379 16.1054 50.8959 16.1791 50.3802 16.1791C49.8646 16.1791 49.3173 16.1264 48.8016 16.0316C48.4543 15.9683 48.086 15.8735 47.7071 15.7575C47.4335 15.6732 47.1703 15.9156 47.223 16.1897L47.465 17.5494C47.9912 17.7285 48.4964 17.855 48.97 17.9288C49.4436 18.0026 49.9382 18.0447 50.4539 18.0447C51.4116 18.0447 52.2115 17.9077 52.8429 17.6231C53.4744 17.3491 53.948 16.8853 54.2637 16.2424C54.5584 15.6416 54.7162 14.8511 54.7373 13.8603H93.6348C94.5609 13.8603 95.3397 13.6706 95.9712 13.3017C96.6026 12.9328 97.0868 12.4057 97.4025 11.7206C97.5709 12.2055 97.834 12.6166 98.2128 12.9644C98.5917 13.3122 99.0443 13.5862 99.5705 13.776C100.097 13.9657 100.665 14.0606 101.286 14.0606C102.865 14.0606 104.043 13.6495 104.833 12.8168C105.611 11.9841 106.001 10.7299 106.001 9.03289V4.33197H104.675V4.32143ZM51.6116 12.0052C50.8538 12.0052 50.1803 11.8682 49.5804 11.5836C48.991 11.3096 48.5174 10.909 48.1807 10.4031C47.8439 9.88664 47.665 9.30693 47.665 8.65344V8.61128C47.665 7.91563 47.8334 7.3043 48.1702 6.77729C48.5069 6.25028 48.97 5.84975 49.5488 5.57571C50.1382 5.30166 50.8223 5.16464 51.601 5.16464H52.8534V12.0158H51.601L51.6116 12.0052Z" fill="#374C82"/>
<path d="M53.9179 26.7089C53.6022 26.4559 53.2443 26.2451 52.8444 26.087C52.4445 25.9183 52.0341 25.7708 51.6131 25.6443C51.1921 25.5178 50.7817 25.3808 50.3818 25.2649C49.9818 25.1384 49.624 24.9908 49.3083 24.8327C48.9926 24.6746 48.74 24.4638 48.5505 24.2214C48.3611 23.9895 48.2664 23.6838 48.2664 23.3255C48.2664 23.0409 48.319 22.7774 48.4348 22.5349C48.54 22.2925 48.7084 22.0817 48.9294 21.9025C49.1504 21.7234 49.4135 21.5863 49.7398 21.4809C50.066 21.3755 50.4344 21.3228 50.8553 21.3228C51.3079 21.3228 51.6868 21.3755 52.0025 21.4809C52.3182 21.5863 52.5918 21.6917 52.8129 21.8182C53.0339 21.9447 53.2233 22.0501 53.3706 22.1555C53.518 22.2609 53.6443 22.3136 53.76 22.3136C53.8548 22.3136 53.9389 22.2925 54.0126 22.2504C54.0863 22.2082 54.1389 22.1344 54.2021 22.0501L54.6546 21.228C54.1705 20.7958 53.6022 20.4691 52.9602 20.2372C52.3182 20.0053 51.6131 19.8999 50.8343 19.8999C50.1397 19.8999 49.5293 19.9948 48.982 20.195C48.4453 20.3953 47.9928 20.6588 47.6244 20.9855C47.2561 21.3123 46.9824 21.6917 46.7825 22.1133C46.593 22.5349 46.4983 22.9776 46.4983 23.4309C46.4983 24 46.593 24.4743 46.7825 24.8643C46.9719 25.2543 47.2245 25.5705 47.5402 25.834C47.8559 26.087 48.2138 26.2978 48.6137 26.4664C49.0136 26.6245 49.4241 26.7721 49.845 26.888C50.266 27.0145 50.6659 27.1305 51.0764 27.2464C51.4763 27.3624 51.8341 27.5099 52.1498 27.6786C52.4656 27.8472 52.7181 28.058 52.9076 28.3004C53.097 28.5534 53.1917 28.8696 53.1917 29.2596C53.1917 29.6074 53.1286 29.9342 53.0023 30.2187C52.876 30.5033 52.6866 30.7563 52.4445 30.9566C52.2025 31.1674 51.9078 31.3255 51.5499 31.4414C51.2026 31.5573 50.8027 31.61 50.3502 31.61C49.9924 31.61 49.6661 31.5784 49.382 31.5152C49.0978 31.4519 48.8452 31.3782 48.6137 31.2728C48.3927 31.1779 48.1927 31.0725 48.0138 30.9566C47.8349 30.8406 47.677 30.7352 47.5402 30.6404C47.4034 30.5455 47.2876 30.4612 47.1719 30.3979C47.0561 30.3347 46.9719 30.3031 46.8877 30.3031C46.793 30.3031 46.7088 30.3241 46.6351 30.3663C46.5615 30.4085 46.4983 30.4612 46.4457 30.5349L45.8984 31.3571C46.4246 31.8736 47.0561 32.2846 47.7928 32.5797C48.5295 32.8854 49.3609 33.033 50.266 33.033C51.0027 33.033 51.6657 32.9276 52.2445 32.7168C52.8234 32.506 53.318 32.2214 53.7179 31.8525C54.1179 31.4836 54.4231 31.062 54.6335 30.5666C54.844 30.0712 54.9493 29.5442 54.9493 28.975C54.9493 28.4375 54.8546 27.9948 54.6651 27.6259C54.4757 27.257 54.2231 26.9513 53.9074 26.6983" fill="#374C82"/>
<path d="M68.6376 20.0156H67.5641C67.4062 20.0156 67.2694 20.1421 67.2694 20.3108V29.1329C67.2694 29.2594 67.2694 29.4069 67.2799 29.5545C67.2905 29.7021 67.301 29.8496 67.3115 30.0077L59.2289 20.3108C59.1763 20.2475 59.1237 20.2053 59.0816 20.1632C59.0395 20.121 58.9869 20.0894 58.9448 20.0683C58.9027 20.0472 58.85 20.0367 58.7869 20.0262C58.7237 20.0262 58.6606 20.0156 58.5764 20.0156H57.5977V32.6006C57.5977 32.7587 57.7239 32.8957 57.8923 32.8957H58.9658C59.1237 32.8957 59.2605 32.7692 59.2605 32.6006V23.7258C59.2605 23.5993 59.2605 23.4623 59.2605 23.3252C59.2605 23.1777 59.25 23.0301 59.2289 22.8826L67.3115 32.5795C67.4062 32.6955 67.5115 32.7692 67.6062 32.8219C67.7114 32.8641 67.8272 32.8957 67.9851 32.8957H68.9322V20.3108C68.9322 20.1526 68.806 20.0156 68.6376 20.0156Z" fill="#374C82"/>
<path d="M83.5119 21.7127C82.9121 21.133 82.1859 20.6798 81.3334 20.353C80.481 20.0263 79.5443 19.8682 78.5235 19.8682C77.5026 19.8682 76.566 20.0263 75.7135 20.353C74.8716 20.6798 74.1454 21.133 73.535 21.7127C72.9246 22.2924 72.4615 22.9881 72.1353 23.7997C71.809 24.6007 71.6406 25.4861 71.6406 26.4558C71.6406 27.4255 71.809 28.3109 72.1353 29.1119C72.472 29.913 72.9351 30.6086 73.535 31.1883C74.1349 31.768 74.861 32.2213 75.7135 32.5375C76.5554 32.8537 77.4921 33.0223 78.5235 33.0223C79.5548 33.0223 80.4915 32.8642 81.3334 32.5375C82.1754 32.2213 82.9015 31.768 83.5119 31.1883C84.1224 30.6086 84.5854 29.913 84.9117 29.1119C85.2484 28.3109 85.4063 27.4255 85.4063 26.4558C85.4063 25.4861 85.2379 24.6112 84.9117 23.7997C84.5854 22.9881 84.1118 22.3029 83.5119 21.7127ZM83.1226 28.5744C82.891 29.1962 82.5542 29.7338 82.1228 30.1659C81.6913 30.5981 81.1756 30.9354 80.5652 31.1672C79.9548 31.3991 79.2707 31.5151 78.5129 31.5151C77.7552 31.5151 77.0816 31.3991 76.4818 31.1672C75.8714 30.9354 75.3452 30.6086 74.9137 30.1659C74.4822 29.7338 74.1454 29.2068 73.9139 28.5744C73.6823 27.9525 73.5666 27.2358 73.5666 26.4452C73.5666 25.6547 73.6823 24.9485 73.9139 24.3161C74.1454 23.6837 74.4822 23.1567 74.9137 22.7246C75.3452 22.2924 75.8714 21.9551 76.4818 21.7232C77.0922 21.4914 77.7762 21.3754 78.5129 21.3754C79.2496 21.3754 79.9442 21.4914 80.5652 21.7232C81.1756 21.9551 81.6913 22.2924 82.1228 22.7246C82.5542 23.1567 82.8805 23.6943 83.1226 24.3161C83.3541 24.9485 83.4699 25.6547 83.4699 26.4452C83.4699 27.2358 83.3541 27.9419 83.1226 28.5744Z" fill="#374C82"/>
<path d="M104.526 20.0156C104.368 20.0156 104.221 20.0578 104.115 20.1421C104 20.2264 103.926 20.3213 103.894 20.4267L101 29.3753C100.958 29.5334 100.916 29.7021 100.874 29.8812C100.832 30.0604 100.8 30.2501 100.769 30.4504C100.727 30.2501 100.674 30.0604 100.632 29.8812C100.579 29.7021 100.527 29.5334 100.474 29.3753L97.2011 20.4267C97.1485 20.3107 97.0748 20.2053 96.9695 20.1316C96.8643 20.0578 96.7275 20.0156 96.5591 20.0156H96.0118C95.854 20.0156 95.7066 20.0578 95.6014 20.1421C95.4856 20.2264 95.412 20.3213 95.3699 20.4267L92.0863 29.3753C92.0232 29.5334 91.9705 29.7021 91.9284 29.8918C91.8758 30.0815 91.8337 30.2818 91.7916 30.4926C91.7495 30.2818 91.7074 30.0815 91.6653 29.9023C91.6232 29.7126 91.5811 29.544 91.539 29.3858L88.6554 20.4372C88.6238 20.3213 88.5502 20.2159 88.4344 20.1421C88.3186 20.0683 88.1818 20.0262 88.0134 20.0262H86.4453L90.7076 32.6322C90.7602 32.7903 90.9076 32.8957 91.076 32.8957H92.2126C92.381 32.8957 92.5283 32.7903 92.5809 32.6322L96.0434 23.0723C96.075 22.9774 96.1066 22.872 96.1381 22.7666C96.1697 22.6612 96.2013 22.5453 96.2328 22.4293C96.2644 22.5453 96.296 22.6612 96.3276 22.7666C96.3591 22.872 96.3907 22.9774 96.4223 23.0723L99.8637 32.6322C99.9163 32.7903 100.064 32.8957 100.232 32.8957H101.369C101.537 32.8957 101.684 32.7903 101.737 32.6322L105.999 20.0262H104.526V20.0156Z" fill="#374C82"/>
<path d="M3.05077 41.6021H2.39827L0.503906 46.5349H1.15641L1.68262 45.133L1.88258 44.606L2.71399 42.3715H2.75609L3.5875 44.606L3.78746 45.133L4.30315 46.5349H4.95565L3.06129 41.6021H3.05077ZM1.39847 45.1436H4.05057V44.6165H1.39847V45.1436Z" fill="#374C82"/>
<path d="M6.32383 41.5598C6.23963 41.486 6.14492 41.4438 6.02915 41.4438C5.91338 41.4438 5.80814 41.486 5.72395 41.5598C5.63975 41.6336 5.59766 41.7284 5.59766 41.8338C5.59766 41.9392 5.63975 42.0341 5.72395 42.1079C5.80814 42.1817 5.90286 42.2238 6.02915 42.2238C6.15544 42.2238 6.23963 42.1922 6.32383 42.1079C6.40802 42.0341 6.45012 41.9392 6.45012 41.8338C6.45012 41.7284 6.40802 41.6336 6.32383 41.5598ZM5.71342 46.5453H6.3133V42.8457H5.71342V46.5453Z" fill="#374C82"/>
<path d="M9.19927 42.7827C9.13613 42.7827 9.07298 42.7827 9.04141 42.7827C8.80988 42.7827 8.59939 42.8354 8.40996 42.9514C8.22052 43.0673 8.09423 43.2149 8.03109 43.394H7.98899V42.8354H7.41016V46.535H8.01004V44.1951C8.01004 44.0265 8.05213 43.8789 8.13633 43.7524C8.22052 43.6259 8.33629 43.5205 8.48363 43.4467C8.63097 43.373 8.79935 43.3308 8.98879 43.3308C9.06246 43.3308 9.14665 43.3308 9.2098 43.3413C9.28347 43.3413 9.32557 43.3624 9.34661 43.3624V42.7827C9.34661 42.7827 9.26242 42.7827 9.19927 42.7827Z" fill="#374C82"/>
<path d="M15.4815 45.4493C15.3867 45.5863 15.2815 45.6917 15.1447 45.7866C15.0079 45.8709 14.871 45.9447 14.7132 45.9868C14.5553 46.029 14.3869 46.0606 14.2185 46.0606C13.9028 46.0606 13.6187 45.9868 13.3661 45.8287C13.1135 45.6812 12.9135 45.4598 12.7557 45.1541C12.6083 44.859 12.5347 44.5007 12.5347 44.0685C12.5347 43.6364 12.6083 43.278 12.7557 42.9829C12.903 42.6877 13.1135 42.4664 13.3661 42.3188C13.6187 42.1713 13.9028 42.0869 14.2185 42.0869C14.3869 42.0869 14.5553 42.108 14.7132 42.1502C14.871 42.1924 15.0184 42.2661 15.1447 42.3505C15.271 42.4348 15.3867 42.5507 15.4815 42.6772C15.5762 42.8037 15.6393 42.9618 15.6709 43.1304H16.3023C16.2602 42.8775 16.1655 42.6456 16.0498 42.4559C15.9235 42.2556 15.7656 42.0869 15.5867 41.9499C15.3973 41.8129 15.1868 41.7075 14.9658 41.6337C14.7342 41.5599 14.4922 41.5283 14.2291 41.5283C13.7871 41.5283 13.3977 41.6337 13.0504 41.834C12.7031 42.0448 12.4294 42.3399 12.24 42.7088C12.04 43.0883 11.9453 43.5415 11.9453 44.058C11.9453 44.5744 12.04 45.0277 12.24 45.4071C12.44 45.7866 12.7031 46.0817 13.0504 46.2819C13.3977 46.4927 13.7871 46.5876 14.2291 46.5876C14.4922 46.5876 14.7342 46.556 14.9658 46.4822C15.1973 46.4084 15.4078 46.303 15.5867 46.166C15.7761 46.029 15.9235 45.8603 16.0498 45.6601C16.1761 45.4598 16.2602 45.2385 16.3023 44.975H15.6709C15.6393 45.1436 15.5762 45.3017 15.4815 45.4282" fill="#374C82"/>
<path d="M20.341 43.6997C20.1936 43.4046 19.9831 43.1832 19.72 43.0251C19.4569 42.867 19.1517 42.7827 18.8044 42.7827C18.4571 42.7827 18.1519 42.867 17.8783 43.0251C17.6152 43.1832 17.4152 43.4046 17.2679 43.6997C17.1205 43.9843 17.0469 44.3216 17.0469 44.7116C17.0469 45.1016 17.1205 45.4283 17.2679 45.7129C17.4152 45.9975 17.6257 46.2188 17.8783 46.3769C18.1414 46.535 18.4466 46.6193 18.8044 46.6193C19.1622 46.6193 19.4569 46.535 19.72 46.3769C19.9831 46.2188 20.1936 45.9975 20.341 45.7129C20.4883 45.4283 20.562 45.091 20.562 44.7116C20.562 44.3321 20.4883 43.9843 20.341 43.6997ZM19.8358 45.3967C19.7516 45.6075 19.6253 45.7761 19.4569 45.9132C19.2885 46.0396 19.0675 46.1134 18.8044 46.1134C18.5413 46.1134 18.3203 46.0502 18.1519 45.9132C17.9835 45.7867 17.8572 45.6075 17.773 45.3967C17.6889 45.1859 17.6468 44.954 17.6468 44.7116C17.6468 44.4691 17.6889 44.2373 17.773 44.0159C17.8572 43.8051 17.9835 43.6259 18.1519 43.4994C18.3203 43.373 18.5413 43.2992 18.8044 43.2992C19.0675 43.2992 19.2885 43.3624 19.4569 43.4994C19.6253 43.6365 19.7516 43.8051 19.8358 44.0159C19.92 44.2267 19.9621 44.4586 19.9621 44.7116C19.9621 44.9645 19.92 45.1859 19.8358 45.3967Z" fill="#374C82"/>
<path d="M24.3722 43.4043C24.2565 43.1935 24.1091 43.0459 23.9092 42.9405C23.7092 42.8457 23.4882 42.793 23.2146 42.793C22.9199 42.793 22.6884 42.8457 22.4989 42.9616C22.3095 43.0776 22.1727 43.2251 22.0885 43.4148H22.0359V42.8351H21.457V46.5347H22.0569V44.3002C22.0569 44.0894 22.099 43.8997 22.1832 43.7521C22.2674 43.6046 22.3832 43.4886 22.5305 43.4043C22.6778 43.3305 22.8462 43.2884 23.0357 43.2884C23.3093 43.2884 23.5303 43.3727 23.6882 43.5308C23.846 43.6889 23.9197 43.9208 23.9197 44.2159V46.5347H24.5196V44.1843C24.5196 43.8681 24.467 43.6046 24.3617 43.4043" fill="#374C82"/>
<path d="M28.2775 41.6021V43.4255H28.2249C28.1828 43.3623 28.1197 43.2779 28.046 43.1831C27.9723 43.0777 27.8566 42.9934 27.7092 42.909C27.5619 42.8353 27.3619 42.7931 27.1093 42.7931C26.7831 42.7931 26.4989 42.8669 26.2463 43.025C25.9938 43.1831 25.8043 43.4044 25.6675 43.689C25.5307 43.9736 25.457 44.3109 25.457 44.7009C25.457 45.0909 25.5307 45.4387 25.6675 45.7233C25.8043 46.0078 25.9938 46.2292 26.2463 46.3873C26.4989 46.5454 26.7831 46.6192 27.0988 46.6192C27.3514 46.6192 27.5514 46.577 27.6987 46.5032C27.846 46.4189 27.9618 46.3346 28.046 46.2292C28.1302 46.1343 28.1828 46.0395 28.2354 45.9762H28.3091V46.5454H28.8879V41.6126H28.288L28.2775 41.6021ZM28.1618 45.4281C28.0776 45.6389 27.9513 45.8076 27.7829 45.9235C27.625 46.0395 27.4145 46.1027 27.183 46.1027C26.9515 46.1027 26.7199 46.0395 26.5621 45.913C26.3937 45.7865 26.2674 45.6179 26.1832 45.4071C26.099 45.1963 26.0569 44.9538 26.0569 44.6903C26.0569 44.4268 26.099 44.1949 26.1832 43.9841C26.2674 43.7733 26.3937 43.6152 26.5621 43.4887C26.7305 43.3623 26.9409 43.3096 27.1935 43.3096C27.4461 43.3096 27.6355 43.3623 27.8039 43.4887C27.9723 43.6047 28.0986 43.7628 28.1828 43.9736C28.267 44.1844 28.3091 44.4268 28.3091 44.7009C28.3091 44.9749 28.267 45.2279 28.1828 45.4387" fill="#374C82"/>
<path d="M30.6453 41.5598C30.5611 41.486 30.4664 41.4438 30.3507 41.4438C30.2349 41.4438 30.1296 41.486 30.056 41.5598C29.9718 41.6336 29.9297 41.7284 29.9297 41.8338C29.9297 41.9392 29.9718 42.0341 30.056 42.1079C30.1402 42.1817 30.2454 42.2238 30.3507 42.2238C30.4559 42.2238 30.5717 42.1922 30.6453 42.1079C30.7295 42.0341 30.7716 41.9392 30.7716 41.8338C30.7716 41.7284 30.7295 41.6336 30.6453 41.5598ZM30.0455 46.5453H30.6348V42.8457H30.0455V46.5453Z" fill="#374C82"/>
<path d="M31.4141 43.3202H33.4242V42.8459H31.4141V43.3202ZM33.3716 46.008C33.3716 46.008 33.3084 46.008 33.2663 46.029C33.2242 46.029 33.1716 46.029 33.1085 46.029C33.0243 46.029 32.9401 46.0185 32.8559 45.9869C32.7822 45.9553 32.7191 45.9026 32.6664 45.8288C32.6138 45.7445 32.5928 45.6285 32.5928 45.4704V41.9395H32.0034V45.618C32.0034 45.8393 32.056 46.0185 32.1613 46.1555C32.2665 46.2925 32.4033 46.398 32.5612 46.4717C32.7296 46.5455 32.8875 46.5771 33.0558 46.5771C33.1716 46.5771 33.2558 46.5771 33.3295 46.5561C33.4031 46.5455 33.4558 46.5244 33.4979 46.5139L33.3716 46.008Z" fill="#374C82"/>
<path d="M34.9293 41.5598C34.8451 41.486 34.7399 41.4438 34.6241 41.4438C34.5083 41.4438 34.4136 41.486 34.3294 41.5598C34.2452 41.6336 34.2031 41.7284 34.2031 41.8338C34.2031 41.9392 34.2452 42.0341 34.3294 42.1079C34.4136 42.1817 34.5189 42.2238 34.6241 42.2238C34.7293 42.2238 34.8451 42.1922 34.9293 42.1079C35.0135 42.0341 35.0556 41.9392 35.0556 41.8338C35.0556 41.7284 35.0135 41.6336 34.9293 41.5598ZM34.3189 46.5453H34.9188V42.8457H34.3189V46.5453Z" fill="#374C82"/>
<path d="M39.1183 43.6997C38.971 43.4046 38.7605 43.1832 38.4974 43.0251C38.2343 42.867 37.9291 42.7827 37.5818 42.7827C37.2345 42.7827 36.9293 42.867 36.6556 43.0251C36.3925 43.1832 36.182 43.4046 36.0452 43.6997C35.8979 43.9843 35.8242 44.3216 35.8242 44.7116C35.8242 45.1016 35.8979 45.4283 36.0452 45.7129C36.1926 45.9975 36.4031 46.2188 36.6556 46.3769C36.9187 46.535 37.2239 46.6193 37.5818 46.6193C37.9396 46.6193 38.2343 46.535 38.4974 46.3769C38.7605 46.2188 38.971 45.9975 39.1183 45.7129C39.2656 45.4283 39.3393 45.091 39.3393 44.7116C39.3393 44.3321 39.2656 43.9843 39.1183 43.6997ZM38.6237 45.3967C38.5395 45.6075 38.4132 45.7761 38.2448 45.9132C38.0764 46.0396 37.8554 46.1134 37.5923 46.1134C37.3292 46.1134 37.1082 46.0502 36.9398 45.9132C36.7714 45.7867 36.6346 45.6075 36.5609 45.3967C36.4767 45.1859 36.4346 44.954 36.4346 44.7116C36.4346 44.4691 36.4767 44.2373 36.5609 44.0159C36.6451 43.8051 36.7714 43.6259 36.9398 43.4994C37.1082 43.373 37.3292 43.2992 37.5923 43.2992C37.8554 43.2992 38.0764 43.3624 38.2448 43.4994C38.4132 43.6365 38.5395 43.8051 38.6237 44.0159C38.7079 44.2267 38.75 44.4586 38.75 44.7116C38.75 44.9645 38.7079 45.1859 38.6237 45.3967Z" fill="#374C82"/>
<path d="M43.1613 43.4043C43.0455 43.1935 42.8982 43.0459 42.6982 42.9405C42.4983 42.8457 42.2667 42.793 42.0036 42.793C41.709 42.793 41.4774 42.8457 41.288 42.9616C41.0986 43.0776 40.9617 43.2251 40.8775 43.4148H40.8249V42.8351H40.2461V46.5347H40.846V44.3002C40.846 44.0894 40.8881 43.8997 40.9723 43.7521C41.0565 43.6046 41.1827 43.4886 41.3301 43.4043C41.4774 43.3305 41.6458 43.2884 41.8353 43.2884C42.1089 43.2884 42.3299 43.3727 42.4878 43.5308C42.6456 43.6889 42.7298 43.9208 42.7298 44.2159V46.5347H43.3297V44.1843C43.3297 43.8681 43.2771 43.6046 43.1718 43.4043" fill="#374C82"/>
<path d="M45.0113 41.5598C44.9271 41.486 44.8324 41.4438 44.7166 41.4438C44.6009 41.4438 44.4956 41.486 44.4114 41.5598C44.3273 41.6336 44.2852 41.7284 44.2852 41.8338C44.2852 41.9392 44.3273 42.0341 44.4114 42.1079C44.4956 42.1817 44.5904 42.2238 44.7166 42.2238C44.8429 42.2238 44.9271 42.1922 45.0113 42.1079C45.0955 42.0341 45.1376 41.9392 45.1376 41.8338C45.1376 41.7284 45.0955 41.6336 45.0113 41.5598ZM44.4114 46.5453H45.0113V42.8457H44.4114V46.5453Z" fill="#374C82"/>
<path d="M49.009 43.4043C48.8932 43.1935 48.7459 43.0459 48.5459 42.9405C48.3459 42.8457 48.1249 42.793 47.8513 42.793C47.5566 42.793 47.3251 42.8457 47.1357 42.9616C46.9462 43.0776 46.8094 43.2251 46.7252 43.4148H46.6726V42.8351H46.0938V46.5347H46.6936V44.3002C46.6936 44.0894 46.7357 43.8997 46.8199 43.7521C46.9041 43.6046 47.0199 43.4886 47.1672 43.4043C47.3146 43.3305 47.4829 43.2884 47.6724 43.2884C47.946 43.2884 48.167 43.3727 48.3249 43.5308C48.4827 43.6889 48.5564 43.9208 48.5564 44.2159V46.5347H49.1563V44.1843C49.1563 43.8681 49.1037 43.6046 48.9984 43.4043" fill="#374C82"/>
<path d="M52.9275 42.8351V43.4254H52.8643C52.8222 43.3621 52.7591 43.2778 52.6854 43.183C52.6012 43.0776 52.4855 42.9932 52.3381 42.9089C52.1908 42.8351 51.9908 42.793 51.7382 42.793C51.412 42.793 51.1278 42.8668 50.8753 43.0249C50.6227 43.183 50.4332 43.3938 50.2964 43.6783C50.1596 43.9629 50.0859 44.2897 50.0859 44.6691C50.0859 45.0486 50.1596 45.3859 50.3069 45.6494C50.4438 45.9234 50.6437 46.1237 50.8963 46.2607C51.1489 46.4083 51.4225 46.4715 51.7382 46.4715C51.9908 46.4715 52.1908 46.4399 52.3381 46.3556C52.4855 46.2818 52.6012 46.1869 52.6854 46.092C52.7696 45.9972 52.8222 45.9129 52.8749 45.8496H52.9275V46.598C52.9275 46.9036 52.8222 47.1355 52.6223 47.2725C52.4223 47.4201 52.1592 47.4939 51.8435 47.4939C51.6119 47.4939 51.4225 47.4623 51.2752 47.399C51.1278 47.3358 51.0121 47.262 50.9384 47.1671C50.8542 47.0828 50.7911 46.9985 50.7279 46.9353L50.2543 47.2515C50.328 47.378 50.4438 47.5044 50.5806 47.6098C50.7174 47.7258 50.8858 47.8101 51.0963 47.8839C51.2962 47.9577 51.5488 47.9893 51.8435 47.9893C52.1487 47.9893 52.4328 47.9471 52.6854 47.8523C52.938 47.7574 53.1485 47.6098 53.2958 47.4096C53.4432 47.2093 53.5168 46.9563 53.5168 46.6296V42.8246H52.938L52.9275 42.8351ZM52.7907 45.3648C52.7065 45.565 52.5802 45.7126 52.4118 45.818C52.2539 45.9234 52.0434 45.9761 51.8119 45.9761C51.5804 45.9761 51.3488 45.9234 51.191 45.8075C51.0226 45.6915 50.8963 45.5334 50.8121 45.3437C50.7279 45.1434 50.6858 44.9221 50.6858 44.6691C50.6858 44.4162 50.7279 44.1843 50.8121 43.984C50.8963 43.7732 51.0226 43.6151 51.191 43.4886C51.3594 43.3621 51.5699 43.3094 51.8224 43.3094C52.075 43.3094 52.2645 43.3621 52.4328 43.4781C52.6012 43.594 52.7275 43.7521 52.8117 43.9524C52.8959 44.1632 52.938 44.3951 52.938 44.6586C52.938 44.9221 52.8959 45.1645 52.8117 45.3648" fill="#374C82"/>
<path d="M59.7662 45.7021C59.7662 45.7021 59.7872 45.681 59.7978 45.6704C59.903 45.5545 59.9872 45.3964 60.0714 45.1856C60.1556 44.9748 60.1872 44.7113 60.1872 44.3845H59.6083C59.6083 44.648 59.5662 44.8905 59.4715 45.1013C59.4505 45.1645 59.4189 45.2172 59.3873 45.2699L58.2612 43.9629L58.6401 43.6889C58.8506 43.5413 59.019 43.3832 59.1453 43.204C59.2716 43.0354 59.3242 42.8246 59.3242 42.5927C59.3242 42.4135 59.2716 42.2343 59.1768 42.0868C59.0716 41.9287 58.9243 41.8022 58.7453 41.7073C58.5559 41.6125 58.3349 41.5703 58.0718 41.5703C57.8087 41.5703 57.5982 41.6125 57.4088 41.7073C57.2193 41.8022 57.072 41.9392 56.9667 42.1079C56.8615 42.2765 56.8089 42.4662 56.8089 42.6876C56.8089 42.8773 56.851 43.0565 56.9352 43.2251C57.0194 43.3938 57.1457 43.5624 57.293 43.7311C57.3351 43.7732 57.3772 43.8259 57.4193 43.8786C57.2299 44.0051 57.0615 44.1316 56.9141 44.2581C56.7563 44.3951 56.63 44.5426 56.5353 44.7007C56.4405 44.8589 56.3984 45.0486 56.3984 45.2488C56.3984 45.5123 56.4616 45.7548 56.5984 45.9656C56.7352 46.1764 56.9246 46.3345 57.1667 46.4504C57.4193 46.5664 57.7034 46.6296 58.0507 46.6296C58.3033 46.6296 58.5454 46.5874 58.798 46.4926C59.0295 46.4083 59.2295 46.2923 59.3873 46.1342L59.7557 46.5558H60.4713L59.7557 45.7126L59.7662 45.7021ZM57.4403 42.677C57.4403 42.5716 57.4719 42.4768 57.5245 42.3819C57.5877 42.287 57.6613 42.2027 57.7561 42.1395C57.8508 42.0762 57.9665 42.0446 58.1034 42.0446C58.2928 42.0446 58.4401 42.0973 58.5559 42.2238C58.6717 42.3397 58.7243 42.4662 58.7243 42.5927C58.7243 42.7614 58.6822 42.8984 58.5875 43.0038C58.5033 43.1092 58.3875 43.204 58.2402 43.2989L57.9034 43.5413C57.9034 43.5413 57.8297 43.4465 57.7876 43.4043C57.6824 43.2778 57.5982 43.1619 57.5351 43.0459C57.4719 42.93 57.4298 42.8141 57.4298 42.6876M58.6085 45.9867C58.4191 46.071 58.2402 46.1026 58.0402 46.1026C57.8403 46.1026 57.6508 46.0604 57.5035 45.9761C57.3561 45.8918 57.2299 45.7864 57.1457 45.6494C57.0615 45.5123 57.0194 45.3753 57.0194 45.2172C57.0194 45.154 57.0615 45.038 57.1457 44.8799C57.2299 44.7218 57.3877 44.5637 57.6192 44.4056L57.8087 44.2686L59.04 45.6915C58.9137 45.8075 58.7664 45.9023 58.6085 45.9656" fill="#374C82"/>
<path d="M66.5444 42.3399C66.4181 42.1185 66.2287 41.9288 65.9656 41.8023C65.7025 41.6653 65.3762 41.6021 64.9658 41.6021H63.2188V46.5349H63.8502V44.606H64.9763C64.9763 44.606 65.071 44.606 65.1131 44.606C65.3552 44.606 65.5762 44.5638 65.7656 44.5006C65.8393 44.4795 65.913 44.4479 65.9761 44.4163C66.2287 44.2898 66.4286 44.1106 66.5444 43.8893C66.6707 43.6574 66.7338 43.4044 66.7338 43.1093C66.7338 42.8142 66.6707 42.5612 66.5444 42.3293M65.9971 43.6258C65.9235 43.7628 65.7972 43.8787 65.6288 43.9525C65.4604 44.0263 65.2394 44.0685 64.9658 44.0685H63.8502V42.1291H64.9447C65.2289 42.1291 65.4499 42.1712 65.6183 42.2555C65.7867 42.3399 65.913 42.4558 65.9866 42.6034C66.0708 42.7509 66.1024 42.9196 66.1024 43.1198C66.1024 43.3201 66.0603 43.4887 65.9866 43.6258M65.7656 44.5006L65.6604 44.3214H64.9552L65.1131 44.606L66.2076 46.5349H66.9338L65.7656 44.5006Z" fill="#374C82"/>
<path d="M70.8813 44.6378C70.8813 44.29 70.8392 44.0054 70.734 43.763C70.6393 43.5311 70.513 43.3413 70.3446 43.1938C70.1867 43.0462 70.0078 42.9408 69.8078 42.8776C69.6079 42.8143 69.4079 42.7827 69.208 42.7827C68.8607 42.7827 68.5555 42.867 68.2924 43.0251C68.0292 43.1938 67.8293 43.4151 67.6819 43.7103C67.5346 43.9948 67.4609 44.3321 67.4609 44.7116C67.4609 45.091 67.5346 45.4178 67.6819 45.7129C67.8293 45.9975 68.0398 46.2188 68.3029 46.3769C68.5765 46.535 68.8922 46.6088 69.2711 46.6088C69.5342 46.6088 69.7763 46.5666 69.9868 46.4929C70.1972 46.4191 70.3761 46.3031 70.513 46.1661C70.6498 46.0291 70.755 45.8605 70.8182 45.6707L70.2393 45.5126C70.1867 45.6391 70.113 45.7445 70.0289 45.8394C69.9341 45.9237 69.8289 45.9869 69.6921 46.0291C69.5658 46.0713 69.4184 46.0923 69.2711 46.0923C69.029 46.0923 68.8186 46.0396 68.6397 45.9448C68.4502 45.8499 68.3134 45.6918 68.2187 45.5021C68.124 45.3229 68.0713 45.1121 68.0713 44.8697H70.8813V44.6272V44.6378ZM68.0713 44.3848C68.0713 44.2162 68.124 44.0475 68.2082 43.9C68.3029 43.7208 68.4292 43.5732 68.6081 43.4678C68.7765 43.3624 68.9869 43.2992 69.2185 43.2992C69.4395 43.2992 69.6184 43.3519 69.7868 43.4467C69.9447 43.5416 70.071 43.6681 70.1551 43.8367C70.2393 44.0054 70.2814 44.1846 70.2814 44.3954H68.0713V44.3848Z" fill="#374C82"/>
<path d="M71.4297 43.32H73.524V42.8352H71.4297V43.32ZM73.503 41.4017C73.4082 41.3807 73.2925 41.3701 73.1451 41.3701C72.9662 41.3701 72.7873 41.4017 72.6189 41.4755C72.4505 41.5493 72.3137 41.6547 72.2085 41.7917C72.1032 41.9287 72.0506 42.1079 72.0506 42.3187V46.5348H72.6505V42.4558C72.6505 42.2766 72.6926 42.129 72.7768 42.0341C72.861 41.9393 73.0083 41.8866 73.1978 41.8866C73.282 41.8866 73.3556 41.8866 73.4082 41.9077C73.4609 41.9287 73.503 41.9393 73.5345 41.9393L73.7029 41.4439C73.7029 41.4439 73.5872 41.4017 73.4924 41.3807" fill="#374C82"/>
<path d="M76.1551 42.7827C76.092 42.7827 76.0393 42.7827 75.9867 42.7827C75.7552 42.7827 75.5447 42.8354 75.3658 42.9514C75.1764 43.0673 75.0501 43.2149 74.9764 43.394H74.9343V42.8354H74.3555V46.535H74.9448V44.1951C74.9448 44.0265 74.9869 43.8789 75.0711 43.7524C75.1553 43.6259 75.2711 43.5205 75.4184 43.4467C75.5658 43.373 75.7341 43.3308 75.9236 43.3308C75.9972 43.3308 76.0814 43.3308 76.1446 43.3413C76.2183 43.3413 76.2604 43.3624 76.2814 43.3624V42.7827C76.2814 42.7827 76.1972 42.7827 76.1341 42.7827" fill="#374C82"/>
<path d="M77.6051 41.5598C77.5209 41.486 77.4156 41.4438 77.3104 41.4438C77.2052 41.4438 77.0894 41.486 77.0052 41.5598C76.921 41.6336 76.8789 41.7284 76.8789 41.8338C76.8789 41.9392 76.921 42.0341 77.0052 42.1079C77.0894 42.1817 77.1841 42.2238 77.3104 42.2238C77.4367 42.2238 77.5209 42.1922 77.6051 42.1079C77.6893 42.0341 77.7314 41.9392 77.7314 41.8338C77.7314 41.7284 77.6893 41.6336 77.6051 41.5598ZM77.0052 46.5453H77.6051V42.8457H77.0052V46.5453Z" fill="#374C82"/>
<path d="M81.3626 42.8351V43.4254H81.2994C81.2574 43.3621 81.1942 43.2778 81.11 43.183C81.0258 43.0776 80.9206 42.9932 80.7627 42.9089C80.6154 42.8351 80.4154 42.793 80.1628 42.793C79.8366 42.793 79.5524 42.8668 79.2998 43.0249C79.0473 43.183 78.8578 43.3938 78.7105 43.6783C78.5737 43.9629 78.5 44.2897 78.5 44.6691C78.5 45.0486 78.5737 45.3859 78.7105 45.6494C78.8578 45.9234 79.0473 46.1237 79.2998 46.2607C79.5419 46.4083 79.8261 46.4715 80.1418 46.4715C80.3944 46.4715 80.5943 46.4399 80.7417 46.3556C80.889 46.2818 81.0048 46.1869 81.089 46.092C81.1732 45.9972 81.2363 45.9129 81.2784 45.8496H81.331V46.598C81.331 46.9036 81.2258 47.1355 81.0258 47.2725C80.8259 47.4201 80.5628 47.4939 80.2576 47.4939C80.026 47.4939 79.8366 47.4623 79.6892 47.399C79.5524 47.3358 79.4367 47.262 79.3525 47.1671C79.2683 47.0828 79.2051 46.9985 79.142 46.9353L78.6684 47.2515C78.7526 47.378 78.8578 47.5044 78.9946 47.6098C79.1315 47.7258 79.2998 47.8101 79.5103 47.8839C79.7208 47.9577 79.9629 47.9893 80.2576 47.9893C80.5628 47.9893 80.8469 47.9471 81.0995 47.8523C81.3521 47.7574 81.552 47.6098 81.7099 47.4096C81.8572 47.2093 81.9309 46.9563 81.9309 46.6296V42.8246H81.3521L81.3626 42.8351ZM81.2258 45.3648C81.1416 45.565 81.0153 45.7126 80.8469 45.818C80.6785 45.9234 80.4786 45.9761 80.2365 45.9761C79.9839 45.9761 79.7734 45.9234 79.605 45.8075C79.4367 45.6915 79.3104 45.5334 79.2262 45.3437C79.142 45.1434 79.0999 44.9221 79.0999 44.6691C79.0999 44.4162 79.142 44.1843 79.2262 43.984C79.3104 43.7732 79.4367 43.6151 79.605 43.4886C79.7734 43.3621 79.9839 43.3094 80.2365 43.3094C80.4891 43.3094 80.6785 43.3621 80.8469 43.4781C81.0153 43.594 81.1311 43.7521 81.2153 43.9524C81.2994 44.1632 81.3415 44.3951 81.3415 44.6586C81.3415 44.9221 81.2994 45.1645 81.2153 45.3648" fill="#374C82"/>
<path d="M86.2563 44.6378C86.2563 44.29 86.2142 44.0054 86.109 43.763C86.0143 43.5311 85.888 43.3413 85.7196 43.1938C85.5617 43.0462 85.3828 42.9408 85.1828 42.8776C84.9829 42.8143 84.7829 42.7827 84.583 42.7827C84.2357 42.7827 83.9305 42.867 83.6674 43.0251C83.4042 43.1938 83.2043 43.4151 83.0569 43.7103C82.9096 43.9948 82.8359 44.3321 82.8359 44.7116C82.8359 45.091 82.9096 45.4178 83.0569 45.7129C83.2043 45.9975 83.4148 46.2188 83.6779 46.3769C83.9515 46.535 84.2672 46.6088 84.6461 46.6088C84.9092 46.6088 85.1513 46.5666 85.3618 46.4929C85.5722 46.4191 85.7511 46.3031 85.888 46.1661C86.0248 46.0291 86.13 45.8605 86.1932 45.6707L85.6143 45.5126C85.5617 45.6391 85.488 45.7445 85.4039 45.8394C85.3091 45.9237 85.1934 45.9869 85.0671 46.0291C84.9408 46.0713 84.7934 46.0923 84.6461 46.0923C84.404 46.0923 84.1936 46.0396 84.0147 45.9448C83.8252 45.8499 83.6884 45.6918 83.5832 45.5021C83.499 45.3229 83.4463 45.1121 83.4358 44.8697H86.2458V44.6272L86.2563 44.6378ZM83.4463 44.3848C83.4463 44.2162 83.499 44.0475 83.5832 43.9C83.6779 43.7208 83.8042 43.5732 83.9831 43.4678C84.1515 43.3624 84.3619 43.2992 84.5935 43.2992C84.804 43.2992 84.9934 43.3519 85.1513 43.4467C85.3091 43.5416 85.4354 43.6681 85.5196 43.8367C85.6038 44.0054 85.6459 44.1846 85.6459 44.3954H83.4358L83.4463 44.3848Z" fill="#374C82"/>
<path d="M88.9637 42.7827C88.9006 42.7827 88.8479 42.7827 88.8058 42.7827C88.5743 42.7827 88.3638 42.8354 88.1744 42.9514C87.985 43.0673 87.8587 43.2149 87.785 43.394H87.7429V42.8354H87.1641V46.535H87.7639V44.1951C87.7639 44.0265 87.806 43.8789 87.8902 43.7524C87.9744 43.6259 88.0902 43.5205 88.2375 43.4467C88.3849 43.373 88.5533 43.3308 88.7427 43.3308C88.8164 43.3308 88.9006 43.3308 88.9637 43.3413C89.0374 43.3413 89.0795 43.3624 89.1005 43.3624V42.7827C89.1005 42.7827 89.0163 42.7827 88.9532 42.7827" fill="#374C82"/>
<path d="M92.594 43.3938C92.4888 43.2146 92.3625 43.0881 92.2152 43.0038C92.0573 42.9195 91.91 42.8562 91.7416 42.8351C91.5837 42.8035 91.4364 42.793 91.3101 42.793C91.1101 42.793 90.9101 42.814 90.7207 42.8667C90.5208 42.9195 90.3313 43.0038 90.1629 43.1303C89.9945 43.2567 89.8577 43.4359 89.763 43.6573L90.3313 43.847C90.3945 43.71 90.5102 43.5835 90.6681 43.4675C90.826 43.3516 91.047 43.2884 91.3416 43.2884C91.6363 43.2884 91.8152 43.3516 91.9521 43.4886C92.0889 43.6256 92.152 43.8048 92.152 44.0473V44.0683C92.152 44.1632 92.1204 44.2264 92.0468 44.2581C91.9836 44.3002 91.8679 44.3213 91.7205 44.3318C91.5732 44.3529 91.3837 44.374 91.1417 44.3951C90.9628 44.4162 90.7839 44.4478 90.6049 44.4899C90.426 44.5321 90.2682 44.5848 90.1208 44.6586C89.9735 44.7324 89.8577 44.8378 89.7735 44.9642C89.6788 45.1013 89.6367 45.2699 89.6367 45.4807C89.6367 45.7231 89.6999 45.9234 89.8156 46.092C89.9314 46.2607 90.0893 46.3872 90.2892 46.482C90.4892 46.5769 90.7102 46.6191 90.9628 46.6191C91.1838 46.6191 91.3837 46.5874 91.5311 46.5242C91.6889 46.461 91.8152 46.3766 91.91 46.2923C92.0047 46.1974 92.0678 46.1131 92.1099 46.0288H92.1415V46.5347H92.7414V44.0894C92.7414 43.7943 92.6887 43.5624 92.594 43.3832M92.1415 45.1961C92.1415 45.3542 92.0994 45.5018 92.0152 45.6388C91.931 45.7758 91.8047 45.8918 91.6468 45.9761C91.489 46.0604 91.289 46.1026 91.047 46.1026C90.8049 46.1026 90.6155 46.0499 90.4576 45.955C90.2997 45.8602 90.2261 45.7021 90.2261 45.5123C90.2261 45.3648 90.2682 45.2488 90.3418 45.1645C90.426 45.0802 90.5313 45.0169 90.6681 44.9748C90.8049 44.9326 90.9417 44.901 91.0996 44.8799C91.1627 44.8799 91.2469 44.8588 91.3522 44.8483C91.4574 44.8378 91.5627 44.8167 91.6679 44.8061C91.7837 44.7851 91.8784 44.7745 91.9626 44.7429C92.0468 44.7218 92.0994 44.6902 92.1204 44.6691V45.1856L92.1415 45.1961Z" fill="#374C82"/>
<path d="M93.5078 43.3202H95.5179V42.8459H93.5078V43.3202ZM95.4653 46.008C95.4653 46.008 95.4127 46.008 95.3706 46.029C95.3285 46.029 95.2759 46.029 95.2127 46.029C95.1285 46.029 95.0444 46.0185 94.9602 45.9869C94.8865 45.9553 94.8233 45.9026 94.7707 45.8288C94.7181 45.7445 94.6971 45.6285 94.6971 45.4704V41.9395H94.1077V45.618C94.1077 45.8393 94.1603 46.0185 94.2656 46.1555C94.3708 46.2925 94.5076 46.398 94.6655 46.4717C94.8233 46.5455 94.9917 46.5771 95.1601 46.5771C95.2759 46.5771 95.3601 46.5771 95.4337 46.5561C95.5074 46.5455 95.56 46.5244 95.6021 46.5139L95.4758 46.008H95.4653Z" fill="#374C82"/>
<path d="M97.023 41.5598C96.9389 41.486 96.8441 41.4438 96.7178 41.4438C96.5916 41.4438 96.5074 41.486 96.4232 41.5598C96.339 41.6336 96.2969 41.7284 96.2969 41.8338C96.2969 41.9392 96.339 42.0341 96.4232 42.1079C96.5074 42.1817 96.6126 42.2238 96.7178 42.2238C96.8231 42.2238 96.9389 42.1922 97.023 42.1079C97.1072 42.0341 97.1493 41.9392 97.1493 41.8338C97.1493 41.7284 97.1072 41.6336 97.023 41.5598ZM96.4126 46.5453H97.002V42.8457H96.4126V46.5453Z" fill="#374C82"/>
<path d="M101.224 43.6997C101.076 43.4046 100.876 43.1832 100.603 43.0251C100.34 42.867 100.035 42.7827 99.6872 42.7827C99.3399 42.7827 99.0242 42.867 98.7611 43.0251C98.498 43.1832 98.2875 43.4046 98.1507 43.6997C98.0034 43.9843 97.9297 44.3216 97.9297 44.7116C97.9297 45.1016 98.0034 45.4283 98.1507 45.7129C98.298 45.9975 98.5085 46.2188 98.7611 46.3769C99.0242 46.535 99.3294 46.6193 99.6872 46.6193C100.045 46.6193 100.34 46.535 100.603 46.3769C100.866 46.2188 101.076 45.9975 101.224 45.7129C101.371 45.4283 101.445 45.091 101.445 44.7116C101.445 44.3321 101.371 43.9843 101.224 43.6997ZM100.719 45.3967C100.634 45.6075 100.508 45.7761 100.34 45.9132C100.171 46.0396 99.9503 46.1134 99.6872 46.1134C99.4241 46.1134 99.2031 46.0502 99.0347 45.9132C98.8663 45.7761 98.7295 45.6075 98.6559 45.3967C98.5822 45.1859 98.5296 44.954 98.5296 44.7116C98.5296 44.4691 98.5717 44.2373 98.6559 44.0159C98.74 43.8051 98.8663 43.6259 99.0347 43.4994C99.2031 43.373 99.4241 43.2992 99.6872 43.2992C99.9503 43.2992 100.171 43.3624 100.34 43.4994C100.508 43.6365 100.645 43.8051 100.719 44.0159C100.803 44.2267 100.845 44.4586 100.845 44.7116C100.845 44.9645 100.803 45.1859 100.719 45.3967Z" fill="#374C82"/>
<path d="M105.252 43.4043C105.147 43.1935 104.989 43.0459 104.8 42.9405C104.6 42.8457 104.368 42.793 104.105 42.793C103.811 42.793 103.568 42.8457 103.39 42.9616C103.211 43.0776 103.063 43.2251 102.979 43.4148H102.926V42.8351H102.348V46.5347H102.948V44.3002C102.948 44.0894 102.99 43.8997 103.074 43.7521C103.158 43.6046 103.284 43.4886 103.421 43.4043C103.568 43.3305 103.737 43.2884 103.926 43.2884C104.2 43.2884 104.421 43.3727 104.579 43.5308C104.737 43.6889 104.821 43.9208 104.821 44.2159V46.5347H105.421V44.1843C105.421 43.8681 105.368 43.6046 105.252 43.4043Z" fill="#374C82"/>
</g>
<defs>
<clipPath id="clip0_93_935">
<rect width="106" height="48" fill="white"/>
</clipPath>
</defs>
</svg>
