<svg width="467" height="390" viewBox="0 0 467 390" fill="none" xmlns="http://www.w3.org/2000/svg">
<path opacity="0.3" d="M90.1045 248.638C107.838 248.638 122.213 241.677 122.213 233.09C122.213 224.503 107.838 217.542 90.1045 217.542C72.3715 217.542 57.9961 224.503 57.9961 233.09C57.9961 241.677 72.3715 248.638 90.1045 248.638Z" fill="url(#paint0_linear_50_22096)"/>
<path d="M94.9936 219.071C94.9936 219.071 95.0458 222.373 95.5165 223.316C95.9872 224.259 94.3139 228.504 93.6864 229.08C93.0589 229.657 92.013 229.447 89.9214 229.08C87.8299 228.714 86.5224 227.226 86.3657 226.948C86.2088 226.67 87.4114 221.325 87.4114 221.325L94.9936 219.071Z" fill="#FFCFCF"/>
<path d="M79.2554 222.949C79.2554 222.949 79.3077 226.251 79.7784 227.194C80.2491 228.137 78.5757 232.382 77.9481 232.958C77.3205 233.535 76.2748 233.325 74.1831 232.958C72.0915 232.591 70.7842 231.104 70.6274 230.826C70.4704 230.548 71.6732 225.202 71.6732 225.202L79.2554 222.949Z" fill="#FFCFCF"/>
<path d="M110.794 106.915C110.794 109.224 103.342 113.326 103.342 113.326L99.4005 105.19C99.4005 105.19 99.423 105.783 99.4685 106.831V106.839C99.7567 113.63 100.803 139.338 100.583 144.108C100.318 149.624 95.921 217.364 95.921 217.364C95.921 217.364 96.2543 219.97 93.245 222.477C90.2354 224.984 86.4378 222.477 86.4378 222.477C86.4378 222.477 88.9336 156.724 87.2356 157.096C85.53 157.476 80.6766 224.71 80.6766 224.71C80.6766 224.71 79.2362 226.663 74.7788 226.929C70.329 227.187 69.8061 224.71 69.8061 224.71V138.647C69.8061 138.647 62.468 141.746 59.9816 139.634C57.4952 137.515 59.1933 101.719 59.9816 100.237C60.3454 99.561 63.2867 97.8062 66.372 96.1044C68.4188 94.9649 70.5413 93.8482 71.9967 93.0885C73.1263 92.5035 73.8616 92.1314 73.8616 92.1314C73.8616 92.1314 76.2192 95.284 81.3284 94.3649C86.4377 93.4382 86.1724 89.7765 86.1724 89.7765C86.1724 89.7765 87.1049 89.4573 88.4769 89.0167C89.5609 88.675 90.9178 88.2494 92.2899 87.8469C94.7535 87.1328 95.7727 87.2757 96.9628 87.2453C99.5248 87.1767 110.794 104.605 110.794 106.915Z" fill="url(#paint1_linear_50_22096)"/>
<path d="M73.2852 85.5474L73.864 92.1346C73.864 92.1346 77.3285 95.9704 81.7159 94.5524C86.1032 93.1341 86.1747 89.7753 86.1747 89.7753L85.7592 86.0648L73.2852 85.5474Z" fill="#E2AAAA"/>
<path d="M87.4815 76.5813C87.4815 76.5813 89.1668 82.2356 88.5073 85.2463C87.8478 88.2569 85.8694 90.6153 85.2832 90.9415C84.6971 91.2677 79.7876 92.9116 75.3178 89.4828C70.848 86.0541 68.4299 79.6655 68.7231 75.7736C69.0163 71.8818 77.572 70.7802 78.6798 71.3676C79.7876 71.9552 87.4815 76.5813 87.4815 76.5813Z" fill="#FFCFCF"/>
<path d="M78.3833 79.3396C78.3833 79.3396 77.6847 84.3035 76.4148 83.4763C75.1446 82.6489 73.811 78.9577 71.9058 78.9577C70.0007 78.9577 70.6357 80.2941 71.5247 82.5852C72.4138 84.8763 73.811 86.8687 72.9219 88.0362C72.0327 89.2039 68.4765 85.7673 67.0158 83.2217C65.5552 80.676 65.3012 76.2847 65.5552 74.3756C65.8093 72.4663 72.2403 70.5353 73.2161 71.9464C74.192 73.3572 78.3833 79.3396 78.3833 79.3396Z" fill="url(#paint2_linear_50_22096)"/>
<path d="M85.8365 79.498C81.9753 81.0267 74.3789 80.8838 68.2192 77.8748C62.3952 75.0277 63.5573 73.2936 63.6995 73.1188C63.7059 73.106 63.7124 73.0995 63.7124 73.0995C62.9504 62.6042 72.4098 57.8935 79.9707 60.5658C86.6728 62.934 87.8286 69.0683 88.9845 72.103C89.1266 72.4912 89.275 72.8277 89.4299 73.0994C90.8309 75.5196 89.2084 78.1629 85.8365 79.498Z" fill="url(#paint3_linear_50_22096)"/>
<path d="M88.9844 72.1061C88.1506 74.104 86.6953 76.2615 84.1328 77.4771C82.7834 78.1228 81.1158 78.5026 79.0767 78.4494C70.8592 78.2519 65.6212 74.6815 63.7033 73.1165C63.7033 73.1089 63.7109 73.1013 63.7109 73.1013C63.4001 68.8091 64.8024 65.4816 67.0766 63.2331C67.0766 63.2331 67.0842 63.2331 67.0918 63.2254C70.3895 59.9815 75.514 58.9863 79.9712 60.5664C86.6723 62.9367 87.8323 69.0673 88.9844 72.1061Z" fill="url(#paint4_linear_50_22096)"/>
<path d="M88.0541 74.917C86.682 76.7401 84.1349 77.4771 84.1349 77.4771C84.1349 77.4771 82.6339 71.4907 78.1538 66.3706C73.795 61.387 67.4349 63.1266 67.0938 63.2254C70.3914 59.9815 75.5159 58.9863 79.9731 60.5664C86.6744 62.9367 87.8344 69.0673 88.9863 72.106C88.9865 72.1062 89.4336 73.1013 88.0541 74.917Z" fill="url(#paint5_linear_50_22096)"/>
<path d="M89.9318 108.784C86.6343 110.448 78.0757 112.461 78.0757 112.461C78.0757 112.461 78.1743 107.637 76.3247 101.954C75.0056 97.8901 73.0197 94.6235 71.9961 93.089C73.1257 92.5039 73.861 92.1319 73.861 92.1319C73.861 92.1319 76.2186 95.2845 81.3278 94.3653C86.4371 93.4386 86.1718 89.7769 86.1718 89.7769C86.1718 89.7769 87.1043 89.4577 88.4762 89.0171C90.0379 94.6996 93.0094 105.366 93.2368 105.411C93.5478 105.472 93.2368 107.12 89.9318 108.784Z" fill="url(#paint6_linear_50_22096)"/>
<path d="M91.6758 129.455L69.8061 138.647C69.8061 138.647 62.468 141.746 59.9816 139.634C57.4952 137.515 59.1933 101.719 59.9816 100.237C60.3454 99.5612 64.475 97.1515 67.5603 95.4497C68.993 97.6149 73.3653 104.137 73.5928 110.769C73.9036 119.878 69.2527 127.054 69.2527 127.054L91.2589 120.437C91.2589 120.437 89.705 122.207 90.6374 125.535C91.5698 128.87 91.6758 129.455 91.6758 129.455Z" fill="url(#paint7_linear_50_22096)"/>
<path d="M110.794 106.915C110.794 109.224 103.343 113.327 103.343 113.327L99.4008 105.19C99.4008 105.19 99.4233 105.783 99.4688 106.831C98.1271 102.076 92.1992 88.2723 92.1992 88.2723C92.2144 88.1357 92.2447 87.9989 92.2902 87.8469C94.7538 87.1328 95.773 87.2757 96.9631 87.2453C99.5251 87.177 110.794 104.605 110.794 106.915Z" fill="url(#paint8_linear_50_22096)"/>
<path d="M98.1946 224.602C98.1946 224.602 97.8301 221.985 96.6153 221.863C95.4005 221.741 91.5131 224.542 91.5131 225.333C91.5131 226.124 91.5131 227.829 91.5131 227.829L85.439 225.15C85.439 225.15 84.528 228.802 86.2287 229.35C87.9294 229.898 99.4093 234.889 100.381 234.889C101.353 234.889 108.035 233.002 106.334 230.994C104.633 228.985 99.2879 226.307 98.8019 225.759C98.316 225.211 98.1946 224.602 98.1946 224.602Z" fill="url(#paint9_linear_50_22096)"/>
<path d="M82.9759 229.318C82.9759 229.318 82.6114 226.701 81.3966 226.579C80.1818 226.457 76.2944 229.257 76.2944 230.049C76.2944 230.84 76.2944 232.544 76.2944 232.544L70.2203 229.866C70.2203 229.866 69.3092 233.518 71.01 234.066C72.7108 234.614 84.1906 239.605 85.1624 239.605C86.1344 239.605 92.8158 237.718 91.115 235.71C89.4142 233.701 84.0691 231.023 83.5832 230.475C83.0974 229.927 82.9759 229.318 82.9759 229.318Z" fill="url(#paint10_linear_50_22096)"/>
<path d="M100.618 138.756L119.6 128.773C120.501 128.299 121.065 127.364 121.065 126.345V90.94C121.065 89.7266 119.779 88.9473 118.707 89.5112L100.336 99.1727C99.0896 99.8283 98.3086 101.123 98.3086 102.534V137.358C98.3086 138.545 99.5679 139.308 100.618 138.756Z" fill="url(#paint11_linear_50_22096)"/>
<path d="M90.7253 121.386C90.7253 121.386 92.7416 119.155 94.8903 117.477C97.0389 115.8 98.3086 115.722 98.3086 115.722L97.6948 119.233C97.6948 119.233 104.944 115.591 105.634 117.188C106.323 118.784 104.071 122.455 99.4806 125.783C94.8904 129.111 91.6753 128.806 91.6753 128.806C91.6753 128.806 88.9044 124.819 90.7253 121.386Z" fill="#FFCFCF"/>
<path opacity="0.3" d="M405.875 250.576L236.193 330.172L82.3296 257.439C78.9474 255.84 79.0364 250.988 82.475 249.515L250.94 177.337L405.875 250.576Z" fill="url(#paint12_linear_50_22096)" fill-opacity="0.1"/>
<path d="M81.2578 250.031L176.929 295.255V204.806L81.2578 159.581V250.031Z" fill="url(#paint13_linear_50_22096)"/>
<path d="M169.707 275.447V283.841L88.4766 245.435V170.996L97.8451 175.428V241.492L169.707 275.447Z" fill="#25254C"/>
<path d="M169.71 209.401V275.447L97.8477 241.492V175.428L169.71 209.401Z" fill="url(#paint14_linear_50_22096)"/>
<path d="M346.611 125.21L176.929 204.806L81.2578 159.581L250.939 79.9854L346.611 125.21Z" fill="url(#paint15_linear_50_22096)"/>
<path d="M176.93 295.255L346.611 215.66V125.21L176.93 204.806V295.255Z" fill="#898FAD"/>
<path d="M286.693 121.188C279.339 108.733 257.631 99.7041 231.988 99.7041C206.912 99.7041 185.607 108.339 177.799 120.368L174.605 120.344V130.499C174.605 147.507 200.296 161.294 231.988 161.294C263.679 161.294 289.37 147.507 289.37 130.499V121.209L286.693 121.188Z" fill="url(#paint16_linear_50_22096)"/>
<path d="M231.988 152.003C263.679 152.003 289.37 138.216 289.37 121.208C289.37 104.2 263.679 90.4131 231.988 90.4131C200.296 90.4131 174.605 104.2 174.605 121.208C174.605 138.216 200.296 152.003 231.988 152.003Z" fill="#FBFBFC"/>
<path d="M284.136 121.213C284.136 123.293 283.721 125.319 282.89 127.273C277.782 114.718 256.933 105.33 231.986 105.33C207.039 105.33 186.19 114.718 181.081 127.273C180.251 125.319 179.836 123.293 179.836 121.213C179.836 105.746 203.176 93.2275 231.986 93.2275C260.796 93.2274 284.136 105.746 284.136 121.213Z" fill="url(#paint17_linear_50_22096)"/>
<path d="M282.891 127.273C277.746 139.809 256.915 149.198 231.987 149.198C207.058 149.198 186.227 139.809 181.082 127.273C186.191 114.718 207.04 105.33 231.987 105.33C256.933 105.33 277.782 114.718 282.891 127.273Z" fill="#646575"/>
<path d="M258.433 103.651C243.325 103.758 232.816 119.275 232.816 119.275L238.71 119.456C238.71 119.456 264.215 107.514 276.901 113.334C276.901 113.334 275.112 109.947 269.902 107.104C264.692 104.262 258.433 103.651 258.433 103.651Z" fill="#646575"/>
<path d="M198.277 142.106C220.951 140.186 227.655 129.358 227.655 129.358L221.558 126.383C221.558 126.383 203.566 134.816 184.609 131.992C184.609 131.992 185.752 134.159 192.061 138.449C198.371 142.739 198.277 142.106 198.277 142.106Z" fill="#646575"/>
<path d="M238.711 128.777C238.711 128.777 252.009 133.94 254.24 145.77L265.406 141.935L271.137 138.989C264.149 128.144 240.238 125.365 240.238 125.365L238.711 128.777Z" fill="#646575"/>
<path d="M201.508 103.651C201.508 103.651 204.098 116.506 219.923 119.274L226.914 118.253C226.914 118.253 215.946 103.721 222.059 98.2864C222.059 98.2864 213.9 97.9224 201.508 103.651Z" fill="#646575"/>
<path d="M236.029 129.743C246.166 138.793 245.805 147.446 245.805 147.446C235.782 149.667 219.359 147.614 219.359 147.614C229.46 146.49 230.706 130.486 230.706 130.486L236.029 129.743Z" fill="#646575"/>
<path d="M243.585 123.247C260.545 121.005 278.881 132.693 278.881 132.693C278.881 132.693 284.135 128.208 282.889 123.247C281.907 119.337 278.052 116.744 278.052 116.744C268.224 113.862 242.543 120.453 242.543 120.453L243.585 123.247Z" fill="#646575"/>
<path d="M230.095 98.2819C229.973 98.3032 225.408 100.491 225.579 107.524C225.75 114.557 227.836 117.044 227.836 117.044L232.817 116.53C232.817 116.53 236.113 108.478 240.132 104.914C244.151 101.349 248.516 99.4619 248.516 99.4619C248.516 99.4619 235.382 97.3593 230.095 98.2819Z" fill="#646575"/>
<path d="M195.316 106.715C195.316 106.715 198.927 114.506 205.246 117.044C211.566 119.582 218.085 121.291 218.085 121.291L218.487 124.455C218.487 124.455 216.28 125.712 202.839 126.517C189.398 127.322 181.082 120.453 181.082 120.453C181.082 120.453 184.383 109.53 195.316 106.715Z" fill="#646575"/>
<path d="M258.433 102.562C243.325 102.67 232.816 118.186 232.816 118.186L238.71 118.367C238.71 118.367 264.215 106.425 276.901 112.245C276.901 112.245 275.112 108.857 269.902 106.015C264.692 103.173 258.433 102.562 258.433 102.562Z" fill="url(#paint18_linear_50_22096)"/>
<path d="M198.277 141.017C220.951 139.097 227.655 128.269 227.655 128.269L221.558 125.294C221.558 125.294 203.566 133.728 184.609 130.903C184.609 130.903 185.752 133.07 192.061 137.36C198.371 141.65 198.277 141.017 198.277 141.017Z" fill="url(#paint19_linear_50_22096)"/>
<path d="M238.711 127.687C238.711 127.687 252.009 132.851 254.24 144.681L265.406 140.846L271.137 137.9C264.149 127.054 240.238 124.276 240.238 124.276L238.711 127.687Z" fill="url(#paint20_linear_50_22096)"/>
<path d="M201.508 102.562C201.508 102.562 204.098 115.417 219.923 118.185L226.914 117.164C226.914 117.164 215.946 102.632 222.059 97.197C222.059 97.197 213.9 96.8331 201.508 102.562Z" fill="url(#paint21_linear_50_22096)"/>
<path d="M236.029 128.654C246.166 137.704 245.805 146.357 245.805 146.357C235.782 148.578 219.359 146.524 219.359 146.524C229.46 145.4 230.706 129.396 230.706 129.396L236.029 128.654Z" fill="url(#paint22_linear_50_22096)"/>
<path d="M243.585 122.157C260.545 119.916 278.881 131.604 278.881 131.604C278.881 131.604 284.135 127.118 282.889 122.157C281.907 118.247 278.052 115.655 278.052 115.655C268.224 112.772 242.543 119.364 242.543 119.364L243.585 122.157Z" fill="url(#paint23_linear_50_22096)"/>
<path d="M230.095 97.1926C229.973 97.2136 225.408 99.4018 225.579 106.435C225.75 113.467 227.836 115.955 227.836 115.955L232.817 115.44C232.817 115.44 236.113 107.389 240.132 103.824C244.151 100.26 248.516 98.3724 248.516 98.3724C248.516 98.3724 235.382 96.2699 230.095 97.1926Z" fill="url(#paint24_linear_50_22096)"/>
<path d="M195.316 105.625C195.316 105.625 198.927 113.416 205.246 115.954C211.566 118.492 218.085 120.201 218.085 120.201L218.487 123.365C218.487 123.365 216.28 124.622 202.839 125.427C189.398 126.232 181.082 119.363 181.082 119.363C181.082 119.363 184.383 108.44 195.316 105.625Z" fill="url(#paint25_linear_50_22096)"/>
<path d="M243.587 123.888C243.587 127.887 237.547 131.128 230.096 131.128C222.645 131.128 216.605 127.887 216.605 123.888C216.605 119.89 222.645 116.648 230.096 116.648C237.547 116.648 243.587 119.89 243.587 123.888Z" fill="#646575"/>
<path d="M243.587 122.156C243.587 126.155 237.547 129.396 230.096 129.396C222.645 129.396 216.605 126.155 216.605 122.156C216.605 118.158 222.645 114.916 230.096 114.916C237.547 114.916 243.587 118.158 243.587 122.156Z" fill="url(#paint26_linear_50_22096)"/>
<path d="M269.97 102.035L189.656 138.021L192.552 139.515L273.343 103.651L269.97 102.035Z" fill="#FBFBFC"/>
<path d="M193.028 102.035L273.343 138.021L270.447 139.515L189.656 103.651L193.028 102.035Z" fill="#FBFBFC"/>
<path d="M243.587 122.155C243.587 126.154 237.547 129.395 230.096 129.395C222.645 129.395 216.605 126.154 216.605 122.155C216.605 118.157 222.645 114.915 230.096 114.915C237.547 114.915 243.587 118.157 243.587 122.155Z" fill="#FBFBFC"/>
<path d="M126.27 184.694V268.124L129.105 270.143V186.224L126.27 184.694Z" fill="url(#paint27_linear_50_22096)"/>
<path d="M85.9883 208.227L172.663 245.64V249.031L85.9883 211.991V208.227Z" fill="url(#paint28_linear_50_22096)"/>
<path d="M320.277 198.535L279.81 217.075L265.91 181.12L306.377 162.581L320.277 198.535Z" fill="url(#paint29_linear_50_22096)"/>
<path d="M265.91 181.12V234.077L279.81 217.075L265.91 181.12Z" fill="#646575"/>
<path d="M320.277 198.535L279.81 217.075L265.91 234.077L307.537 214.61L320.277 198.535Z" fill="url(#paint30_linear_50_22096)"/>
<path d="M188.727 218.835L200.288 213.411V211.49L188.727 216.913V218.835Z" fill="#373842"/>
<path d="M206.52 211.489L218.081 206.066V204.145L206.52 209.568V211.489Z" fill="#373842"/>
<path d="M188.727 223.751L200.288 218.328V216.406L188.727 221.829V223.751Z" fill="#373842"/>
<path d="M206.52 216.407L218.081 210.983V209.062L206.52 214.485V216.407Z" fill="#373842"/>
<path d="M188.727 228.668L200.288 223.245V221.323L188.727 226.746V228.668Z" fill="#373842"/>
<path d="M206.52 221.324L218.081 215.901V213.979L206.52 219.402V221.324Z" fill="#373842"/>
<path d="M188.727 233.585L200.288 228.162V226.24L188.727 231.664V233.585Z" fill="#373842"/>
<path d="M206.52 226.24L218.081 220.817V218.896L206.52 224.319V226.24Z" fill="#373842"/>
<path d="M188.727 238.503L200.288 233.079V231.158L188.727 236.581V238.503Z" fill="#373842"/>
<path d="M206.52 231.157L218.081 225.734V223.812L206.52 229.236V231.157Z" fill="#373842"/>
<path d="M188.727 243.419L200.288 237.996V236.074L188.727 241.497V243.419Z" fill="#373842"/>
<path d="M206.52 236.075L218.081 230.652V228.73L206.52 234.153V236.075Z" fill="#373842"/>
<path d="M188.727 248.336L200.288 242.913V240.991L188.727 246.414V248.336Z" fill="#373842"/>
<path d="M206.52 240.991L218.081 235.567V233.646L206.52 239.069V240.991Z" fill="#373842"/>
<path d="M188.727 253.253L200.288 247.83V245.909L188.727 251.332V253.253Z" fill="#373842"/>
<path d="M206.52 245.908L218.081 240.485V238.563L206.52 243.987V245.908Z" fill="#373842"/>
<path d="M188.727 258.17L200.288 252.747V250.826L188.727 256.249V258.17Z" fill="#373842"/>
<path d="M206.52 250.826L218.081 245.403V243.481L206.52 248.904V250.826Z" fill="#373842"/>
<path d="M188.727 263.087L200.288 257.664V255.742L188.727 261.165V263.087Z" fill="#373842"/>
<path d="M206.52 255.743L218.081 250.319V248.398L206.52 253.821V255.743Z" fill="#373842"/>
<path d="M188.727 268.004L200.288 262.581V260.659L188.727 266.083V268.004Z" fill="#373842"/>
<path d="M206.52 260.659L218.081 255.236V253.314L206.52 258.738V260.659Z" fill="#373842"/>
<path d="M188.727 272.921L200.288 267.498V265.577L188.727 271V272.921Z" fill="#373842"/>
<path d="M206.52 265.576L218.081 260.153V258.231L206.52 263.655V265.576Z" fill="#373842"/>
<path d="M402.492 198.574L365.696 178.376V132.968C365.696 126.991 362.397 121.591 357.086 118.874L296.33 87.7996C293.239 86.2167 289.627 86.358 286.666 88.1759C283.706 89.992 281.939 93.1524 281.939 96.6309V110.988H287.354V96.6309C287.354 95.0338 288.134 93.6384 289.493 92.8043C290.856 91.9688 292.45 91.9071 293.869 92.6331L354.623 123.707C358.113 125.493 360.281 129.041 360.281 132.968V175.403L346.612 167.9V174.088L360.281 181.591V220.434C360.281 224.573 362.364 228.366 365.853 230.579C366.308 230.868 366.779 231.115 367.259 231.338L236.151 293.514C234.076 294.503 231.772 294.362 229.83 293.125C227.889 291.894 226.776 289.867 226.776 287.566V200.098C226.776 194.124 223.476 188.723 218.164 186.006L157.409 154.932C154.319 153.349 150.706 153.49 147.745 155.308C144.785 157.124 143.018 160.285 143.018 163.763V178.12C143.018 178.12 142.789 179.733 145.069 180.548C147.348 181.364 148.434 180.304 148.434 180.304V163.763C148.434 162.166 149.214 160.771 150.574 159.937C151.933 159.101 153.527 159.039 154.947 159.765L215.702 190.84C219.192 192.626 221.36 196.173 221.36 200.098V287.566C221.36 291.705 223.443 295.496 226.933 297.711C228.89 298.953 231.107 299.582 233.336 299.582C235.079 299.582 236.829 299.197 238.468 298.42L401.832 220.944C406.113 218.916 408.859 214.708 408.999 209.965C409.14 205.22 406.646 200.855 402.492 198.574ZM399.516 216.04L375.554 227.404L375.072 226.383C372.995 227.367 370.691 227.228 368.75 225.993C366.809 224.762 365.696 222.735 365.696 220.434V184.563L399.89 203.333C402.285 204.649 403.667 207.067 403.586 209.802C403.505 212.539 401.984 214.869 399.516 216.04Z" fill="#F6F5F8"/>
<path opacity="0.3" d="M323.143 309.727C339.65 309.727 353.032 303.247 353.032 295.254C353.032 287.261 339.65 280.781 323.143 280.781C306.636 280.781 293.254 287.261 293.254 295.254C293.254 303.247 306.636 309.727 323.143 309.727Z" fill="url(#paint31_linear_50_22096)"/>
<path d="M313.722 134.507C313.722 134.507 312.548 147.918 314.232 150.355C315.916 152.793 319.201 151.472 319.9 152.05C320.599 152.629 320.981 157.469 320.981 157.469C320.981 157.469 331.238 153.328 331.302 153.257C331.367 153.185 330.328 148.672 330.94 145.917C331.552 143.162 332.316 135.085 327.964 133.052C323.612 131.02 313.722 134.507 313.722 134.507Z" fill="#FFCFCF"/>
<path d="M314.639 131.62C315.123 134.179 313.727 136.006 316.07 136.639C318.412 137.272 317.544 143.106 318.297 143.205C319.049 143.304 318.939 139.699 320.489 139.418C322.039 139.137 322.779 141.076 322.365 142.663C321.951 144.25 321.306 148.437 326.061 149.02C330.816 149.603 333.156 146.761 334.816 143.204C336.476 139.648 337.795 129.84 330.801 128.279C323.806 126.718 324.592 129.378 321.117 127.847C317.643 126.315 314.179 129.191 314.639 131.62Z" fill="url(#paint32_linear_50_22096)"/>
<path d="M311.046 135.233C312.047 136.865 312.768 138.23 322.367 139.507C331.966 140.778 336.094 137.781 336.094 137.781C338.139 130.872 332.836 119.944 321.304 122.492C319.01 122.997 317.189 123.744 315.74 124.623C315.74 124.629 315.74 124.629 315.74 124.629C309.915 128.168 310.244 133.918 311.046 135.233Z" fill="url(#paint33_linear_50_22096)"/>
<path d="M336.092 137.783C336.092 137.783 322.067 139.918 316.005 137.267C309.943 134.616 310.605 131.965 310.605 131.965C310.605 131.965 308.028 134.119 310.584 136.77C313.139 139.421 324.161 142.275 336.092 137.783Z" fill="#D87023"/>
<path d="M315.738 124.623C315.738 124.629 315.738 124.629 315.738 124.629C315.738 124.629 323.136 123.925 328.34 128.342C333.55 132.753 333.258 138.722 333.258 138.722L336.093 137.781C338.138 130.872 332.835 119.944 321.303 122.492C319.008 122.997 317.187 123.744 315.738 124.623Z" fill="url(#paint34_linear_50_22096)"/>
<path d="M341.892 283.099L341.374 291.325C341.374 291.325 339.389 293.305 337.231 292.786C335.074 292.267 331.94 289.759 332.687 288.375C333.434 286.991 335.246 284.396 335.246 284.05C335.246 283.704 341.892 283.099 341.892 283.099Z" fill="#FFCFCF"/>
<path d="M321.349 292.094V298.495C321.349 298.495 318.673 301.609 316.343 300.571C314.012 299.533 311.701 296.544 312.135 295.229C312.569 293.914 313.149 292.094 313.149 292.094H321.349Z" fill="#FFCFCF"/>
<path d="M311.559 210.551V291.942C311.559 291.942 312.868 294.004 316.543 293.857C320.219 293.71 321.836 292.384 321.836 292.384L329.187 222.893L332.683 283.986C332.683 283.986 333.744 286.048 337.714 285.754C341.683 285.459 342.712 283.986 342.712 283.986L344.651 204.45L311.559 210.551Z" fill="url(#paint35_linear_50_22096)"/>
<path d="M322.645 296.488C322.645 296.488 318.891 297.544 318.627 298.27C318.364 298.996 316.488 299.59 314.298 298.27C312.107 296.95 311.646 294.772 312.568 293.914C313.49 293.056 304.863 291.142 303.875 291.34C302.887 291.538 298.013 293.56 300.121 295.189C302.228 296.818 314.412 304.397 316.191 304.204C317.969 304.012 322.513 303.088 322.645 301.768C322.777 300.448 322.645 296.488 322.645 296.488Z" fill="url(#paint36_linear_50_22096)"/>
<path d="M342.337 288.999C342.337 288.999 339.308 289.851 339.095 290.437C338.882 291.023 337.368 291.503 335.601 290.437C333.833 289.372 333.461 287.615 334.205 286.922C334.949 286.23 327.987 284.685 327.19 284.845C326.393 285.005 322.46 286.637 324.161 287.951C325.861 289.266 335.693 295.381 337.128 295.226C338.563 295.071 342.231 294.325 342.337 293.26C342.443 292.195 342.337 288.999 342.337 288.999Z" fill="url(#paint37_linear_50_22096)"/>
<path d="M299.953 186.34C299.953 186.34 299.973 186.957 300.42 187.825C300.42 187.825 300.42 187.825 300.42 187.832C300.928 188.816 301.984 190.118 304.176 191.223C308.116 193.211 310.065 192.18 310.227 192.092C310.234 192.085 310.241 192.078 310.241 192.078L310.288 192.709L311.561 210.554C311.561 210.554 320.359 213.037 331.703 211.409C340.224 210.195 343.534 206.308 344.657 204.45C345.03 203.833 345.158 203.439 345.158 203.439C345.158 203.439 344.102 185.017 345.158 184.759C346.214 184.495 350.431 184.142 350.871 180.615C351.311 177.088 350.41 152.819 347.419 152.114C346.058 151.795 344.339 152.168 342.613 152.433C340.969 152.691 339.324 152.847 337.991 152.202C337.639 152.039 337.314 151.816 337.016 151.531C337.016 151.531 335.642 151.938 333.645 152.548C330.424 153.545 325.577 155.092 322.363 156.36C320.515 157.093 319.463 158.098 319.039 158.13C317.048 158.283 312.602 161.994 311.167 162.95C310.274 163.553 309.97 167.355 309.713 167.66C308.833 168.718 299.953 186.34 299.953 186.34Z" fill="url(#paint38_linear_50_22096)"/>
<path d="M299.951 187.223C299.951 187.223 282.429 176.306 281.268 173.874C280.107 171.442 280.213 167.423 278.736 167.846C277.258 168.269 278.208 170.421 277.575 170.456C276.941 170.49 275.042 166.789 274.514 166.789C273.987 166.789 270.927 172.571 273.67 175.76C276.414 178.95 299.101 196.802 302.584 197.552C306.066 198.302 310.241 192.082 310.241 192.082C310.241 192.082 304.389 193.382 299.951 187.223Z" fill="#FFCFCF"/>
<path d="M320.512 167.274C320.659 167.849 321.25 168.188 321.819 168.026C324.879 167.153 333.88 164.519 337.173 162.806C337.979 162.387 338.465 161.535 338.419 160.627L337.991 152.202C337.639 152.039 337.314 151.816 337.017 151.531C337.017 151.531 335.643 151.938 333.646 152.548C330.424 153.545 325.578 155.092 322.363 156.36C320.515 157.093 319.202 157.737 319.04 158.13C318.556 159.313 319.909 164.921 320.512 167.274Z" fill="url(#paint39_linear_50_22096)"/>
<path d="M342.613 152.433L345.158 184.759C346.214 184.495 350.431 184.142 350.871 180.615C351.31 177.088 350.41 152.819 347.419 152.114C346.058 151.795 344.339 152.168 342.613 152.433Z" fill="url(#paint40_linear_50_22096)"/>
<path d="M299.953 186.34C299.953 186.34 299.973 186.957 300.42 187.825C300.42 187.825 300.42 187.825 300.42 187.832C300.928 188.815 301.984 190.118 304.176 191.223C308.116 193.211 310.065 192.18 310.227 192.091C310.234 192.085 310.241 192.078 310.241 192.078L310.288 192.709L316.232 179.469L314.375 160.604C313.481 161.208 310.122 163.381 309.865 163.687C308.985 164.745 299.953 186.34 299.953 186.34Z" fill="url(#paint41_linear_50_22096)"/>
<path d="M319.594 157.469C319.594 157.469 319.531 154.911 321.392 153.979C323.253 153.046 330.1 150.011 332.493 150.163C334.886 150.315 334.968 152.145 334.968 152.145L319.594 157.469Z" fill="url(#paint42_linear_50_22096)"/>
<defs>
<linearGradient id="paint0_linear_50_22096" x1="115.763" y1="230.312" x2="58.5263" y2="236.483" gradientUnits="userSpaceOnUse">
<stop stop-color="#363B51"/>
<stop offset="0.8549" stop-color="#2B3149"/>
</linearGradient>
<linearGradient id="paint1_linear_50_22096" x1="58.6795" y1="157.096" x2="110.794" y2="157.096" gradientUnits="userSpaceOnUse">
<stop stop-color="#5F6271"/>
<stop offset="1" stop-color="#2B3149"/>
</linearGradient>
<linearGradient id="paint2_linear_50_22096" x1="65.4688" y1="79.8662" x2="78.3833" y2="79.8662" gradientUnits="userSpaceOnUse">
<stop stop-color="#5F6271"/>
<stop offset="1" stop-color="#2B3149"/>
</linearGradient>
<linearGradient id="paint3_linear_50_22096" x1="63.5116" y1="70.1422" x2="89.9338" y2="70.1422" gradientUnits="userSpaceOnUse">
<stop stop-color="#D87023"/>
<stop offset="1" stop-color="#FF8B00"/>
</linearGradient>
<linearGradient id="paint4_linear_50_22096" x1="63.6679" y1="69.1419" x2="88.9844" y2="69.1419" gradientUnits="userSpaceOnUse">
<stop stop-color="#FFBD00"/>
<stop offset="1" stop-color="#FF8B00"/>
</linearGradient>
<linearGradient id="paint5_linear_50_22096" x1="67.0938" y1="68.6534" x2="89.0556" y2="68.6534" gradientUnits="userSpaceOnUse">
<stop stop-color="#D87023"/>
<stop offset="1" stop-color="#FF8B00"/>
</linearGradient>
<linearGradient id="paint6_linear_50_22096" x1="71.9961" y1="100.739" x2="93.3306" y2="100.739" gradientUnits="userSpaceOnUse">
<stop stop-color="#FFBD00"/>
<stop offset="1" stop-color="#FF8B00"/>
</linearGradient>
<linearGradient id="paint7_linear_50_22096" x1="58.6796" y1="117.91" x2="91.6758" y2="117.91" gradientUnits="userSpaceOnUse">
<stop stop-color="#FFBD00"/>
<stop offset="1" stop-color="#FF8B00"/>
</linearGradient>
<linearGradient id="paint8_linear_50_22096" x1="92.1991" y1="100.286" x2="110.794" y2="100.286" gradientUnits="userSpaceOnUse">
<stop stop-color="#FFBD00"/>
<stop offset="1" stop-color="#FF8B00"/>
</linearGradient>
<linearGradient id="paint9_linear_50_22096" x1="85.1952" y1="228.374" x2="106.61" y2="228.374" gradientUnits="userSpaceOnUse">
<stop stop-color="#5F6271"/>
<stop offset="1" stop-color="#2B3149"/>
</linearGradient>
<linearGradient id="paint10_linear_50_22096" x1="69.9766" y1="233.09" x2="91.3909" y2="233.09" gradientUnits="userSpaceOnUse">
<stop stop-color="#5F6271"/>
<stop offset="1" stop-color="#2B3149"/>
</linearGradient>
<linearGradient id="paint11_linear_50_22096" x1="103.805" y1="137.817" x2="117.044" y2="85.2746" gradientUnits="userSpaceOnUse">
<stop stop-color="#FAFAFA"/>
<stop offset="1" stop-color="#D6D6D6"/>
</linearGradient>
<linearGradient id="paint12_linear_50_22096" x1="248.03" y1="262.823" x2="269.616" y2="305.434" gradientUnits="userSpaceOnUse">
<stop stop-color="#363B51"/>
<stop offset="0.8549" stop-color="#2B3149"/>
</linearGradient>
<linearGradient id="paint13_linear_50_22096" x1="81.2579" y1="227.418" x2="176.929" y2="227.418" gradientUnits="userSpaceOnUse">
<stop stop-color="#CBCBD6"/>
<stop offset="1" stop-color="#F9FAF9"/>
</linearGradient>
<linearGradient id="paint14_linear_50_22096" x1="97.8477" y1="225.438" x2="169.71" y2="225.438" gradientUnits="userSpaceOnUse">
<stop stop-color="#5F6271"/>
<stop offset="1" stop-color="#2B3149"/>
</linearGradient>
<linearGradient id="paint15_linear_50_22096" x1="174.835" y1="73.309" x2="229.496" y2="217.606" gradientUnits="userSpaceOnUse">
<stop stop-color="#CBCBD6"/>
<stop offset="1" stop-color="#F9FAF9"/>
</linearGradient>
<linearGradient id="paint16_linear_50_22096" x1="174.606" y1="130.499" x2="289.37" y2="130.499" gradientUnits="userSpaceOnUse">
<stop stop-color="#DBD3C7"/>
<stop offset="1" stop-color="#8C8C8C"/>
</linearGradient>
<linearGradient id="paint17_linear_50_22096" x1="179.836" y1="110.25" x2="284.136" y2="110.25" gradientUnits="userSpaceOnUse">
<stop stop-color="#DBD3C7"/>
<stop offset="1" stop-color="#8C8C8C"/>
</linearGradient>
<linearGradient id="paint18_linear_50_22096" x1="235.742" y1="116.06" x2="268.567" y2="106.758" gradientUnits="userSpaceOnUse">
<stop stop-color="#727272"/>
<stop offset="1" stop-color="#BCBCBC"/>
</linearGradient>
<linearGradient id="paint19_linear_50_22096" x1="184.609" y1="133.172" x2="227.655" y2="133.172" gradientUnits="userSpaceOnUse">
<stop stop-color="#727272"/>
<stop offset="1" stop-color="#BCBCBC"/>
</linearGradient>
<linearGradient id="paint20_linear_50_22096" x1="238.711" y1="134.478" x2="271.137" y2="134.478" gradientUnits="userSpaceOnUse">
<stop stop-color="#727272"/>
<stop offset="1" stop-color="#BCBCBC"/>
</linearGradient>
<linearGradient id="paint21_linear_50_22096" x1="224.455" y1="119.441" x2="210.764" y2="99.4744" gradientUnits="userSpaceOnUse">
<stop stop-color="#727272"/>
<stop offset="1" stop-color="#BCBCBC"/>
</linearGradient>
<linearGradient id="paint22_linear_50_22096" x1="219.359" y1="138.022" x2="245.807" y2="138.022" gradientUnits="userSpaceOnUse">
<stop stop-color="#727272"/>
<stop offset="1" stop-color="#BCBCBC"/>
</linearGradient>
<linearGradient id="paint23_linear_50_22096" x1="251.597" y1="125.309" x2="268.792" y2="123.737" gradientUnits="userSpaceOnUse">
<stop stop-color="#727272"/>
<stop offset="1" stop-color="#BCBCBC"/>
</linearGradient>
<linearGradient id="paint24_linear_50_22096" x1="236.496" y1="114.796" x2="237.287" y2="96.5118" gradientUnits="userSpaceOnUse">
<stop stop-color="#727272"/>
<stop offset="1" stop-color="#BCBCBC"/>
</linearGradient>
<linearGradient id="paint25_linear_50_22096" x1="181.082" y1="115.559" x2="218.487" y2="115.559" gradientUnits="userSpaceOnUse">
<stop stop-color="#727272"/>
<stop offset="1" stop-color="#BCBCBC"/>
</linearGradient>
<linearGradient id="paint26_linear_50_22096" x1="216.606" y1="122.156" x2="243.587" y2="122.156" gradientUnits="userSpaceOnUse">
<stop stop-color="#EFECEB"/>
<stop offset="1" stop-color="#D6D2CC"/>
</linearGradient>
<linearGradient id="paint27_linear_50_22096" x1="125.691" y1="187.593" x2="129.41" y2="261.028" gradientUnits="userSpaceOnUse">
<stop stop-color="#EFECEB"/>
<stop offset="1" stop-color="#D6D2CC"/>
</linearGradient>
<linearGradient id="paint28_linear_50_22096" x1="128.256" y1="207.601" x2="130.22" y2="246.376" gradientUnits="userSpaceOnUse">
<stop stop-color="#EFECEB"/>
<stop offset="1" stop-color="#D6D2CC"/>
</linearGradient>
<linearGradient id="paint29_linear_50_22096" x1="280.11" y1="165.79" x2="305.001" y2="211.677" gradientUnits="userSpaceOnUse">
<stop stop-color="#DBD3C7"/>
<stop offset="1" stop-color="#8C8C8C"/>
</linearGradient>
<linearGradient id="paint30_linear_50_22096" x1="265.91" y1="216.306" x2="320.277" y2="216.306" gradientUnits="userSpaceOnUse">
<stop stop-color="#5F6271"/>
<stop offset="1" stop-color="#2B3149"/>
</linearGradient>
<linearGradient id="paint31_linear_50_22096" x1="314.251" y1="282.032" x2="333.094" y2="309.931" gradientUnits="userSpaceOnUse">
<stop stop-color="#363B51"/>
<stop offset="0.8549" stop-color="#2B3149"/>
</linearGradient>
<linearGradient id="paint32_linear_50_22096" x1="336.137" y1="138.257" x2="314.598" y2="138.257" gradientUnits="userSpaceOnUse">
<stop stop-color="#5F6271"/>
<stop offset="1" stop-color="#2B3149"/>
</linearGradient>
<linearGradient id="paint33_linear_50_22096" x1="310.605" y1="130.968" x2="336.524" y2="130.968" gradientUnits="userSpaceOnUse">
<stop stop-color="#FFBD00"/>
<stop offset="1" stop-color="#FF8B00"/>
</linearGradient>
<linearGradient id="paint34_linear_50_22096" x1="315.738" y1="130.418" x2="336.522" y2="130.418" gradientUnits="userSpaceOnUse">
<stop stop-color="#D87023"/>
<stop offset="1" stop-color="#FF8B00"/>
</linearGradient>
<linearGradient id="paint35_linear_50_22096" x1="344.651" y1="249.157" x2="311.559" y2="249.157" gradientUnits="userSpaceOnUse">
<stop stop-color="#5F6271"/>
<stop offset="1" stop-color="#2B3149"/>
</linearGradient>
<linearGradient id="paint36_linear_50_22096" x1="322.703" y1="297.767" x2="299.598" y2="297.767" gradientUnits="userSpaceOnUse">
<stop stop-color="#5F6271"/>
<stop offset="1" stop-color="#2B3149"/>
</linearGradient>
<linearGradient id="paint37_linear_50_22096" x1="342.384" y1="290.031" x2="323.738" y2="290.031" gradientUnits="userSpaceOnUse">
<stop stop-color="#5F6271"/>
<stop offset="1" stop-color="#2B3149"/>
</linearGradient>
<linearGradient id="paint38_linear_50_22096" x1="350.976" y1="181.746" x2="299.953" y2="181.746" gradientUnits="userSpaceOnUse">
<stop stop-color="#5F6271"/>
<stop offset="1" stop-color="#2B3149"/>
</linearGradient>
<linearGradient id="paint39_linear_50_22096" x1="314.222" y1="158.514" x2="329.588" y2="159.822" gradientUnits="userSpaceOnUse">
<stop stop-color="#FFBD00"/>
<stop offset="1" stop-color="#FF8B00"/>
</linearGradient>
<linearGradient id="paint40_linear_50_22096" x1="349.653" y1="168.375" x2="342.864" y2="168.375" gradientUnits="userSpaceOnUse">
<stop stop-color="#FFBD00"/>
<stop offset="1" stop-color="#FF8B00"/>
</linearGradient>
<linearGradient id="paint41_linear_50_22096" x1="306.781" y1="174.252" x2="315.727" y2="180.441" gradientUnits="userSpaceOnUse">
<stop stop-color="#FFBD00"/>
<stop offset="1" stop-color="#FF8B00"/>
</linearGradient>
<linearGradient id="paint42_linear_50_22096" x1="336.163" y1="152.933" x2="320.797" y2="154.241" gradientUnits="userSpaceOnUse">
<stop stop-color="#FFBD00"/>
<stop offset="1" stop-color="#FF8B00"/>
</linearGradient>
</defs>
</svg>
