<svg width="467" height="390" viewBox="0 0 467 390" fill="none" xmlns="http://www.w3.org/2000/svg">
<path opacity="0.3" d="M90.1045 248.638C107.838 248.638 122.213 241.677 122.213 233.091C122.213 224.504 107.838 217.543 90.1045 217.543C72.3715 217.543 57.9961 224.504 57.9961 233.091C57.9961 241.677 72.3715 248.638 90.1045 248.638Z" fill="url(#paint0_linear_65_54350)"/>
<path d="M94.9936 219.072C94.9936 219.072 95.0458 222.374 95.5165 223.317C95.9872 224.26 94.3139 228.505 93.6864 229.081C93.0589 229.658 92.013 229.448 89.9214 229.081C87.8299 228.715 86.5224 227.227 86.3657 226.949C86.2088 226.671 87.4114 221.326 87.4114 221.326L94.9936 219.072Z" fill="#FFCFCF"/>
<path d="M79.2545 222.949C79.2545 222.949 79.3067 226.251 79.7774 227.194C80.2481 228.137 78.5748 232.382 77.9472 232.958C77.3196 233.535 76.2738 233.325 74.1822 232.958C72.0905 232.591 70.7832 231.104 70.6264 230.826C70.4694 230.548 71.6722 225.202 71.6722 225.202L79.2545 222.949Z" fill="#FFCFCF"/>
<path d="M110.793 106.916C110.793 109.225 103.341 113.327 103.341 113.327L99.3995 105.191C99.3995 105.191 99.422 105.784 99.4675 106.832V106.84C99.7557 113.631 100.802 139.339 100.582 144.109C100.317 149.625 95.92 217.365 95.92 217.365C95.92 217.365 96.2534 219.971 93.244 222.478C90.2345 224.985 86.4368 222.478 86.4368 222.478C86.4368 222.478 88.9326 156.725 87.2346 157.097C85.529 157.477 80.6756 224.711 80.6756 224.711C80.6756 224.711 79.2352 226.664 74.7778 226.93C70.328 227.188 69.8051 224.711 69.8051 224.711V138.647C69.8051 138.647 62.4671 141.747 59.9806 139.635C57.4942 137.516 59.1923 101.72 59.9806 100.238C60.3444 99.562 63.2858 97.8071 66.3711 96.1054C68.4178 94.9659 70.5403 93.8492 71.9958 93.0895C73.1253 92.5045 73.8607 92.1324 73.8607 92.1324C73.8607 92.1324 76.2182 95.285 81.3274 94.3659C86.4368 93.4391 86.1714 89.7774 86.1714 89.7774C86.1714 89.7774 87.1039 89.4583 88.4759 89.0177C89.56 88.6759 90.9168 88.2504 92.2889 87.8479C94.7525 87.1338 95.7717 87.2766 96.9618 87.2463C99.5239 87.1777 110.793 104.606 110.793 106.916Z" fill="url(#paint1_linear_65_54350)"/>
<path d="M73.2822 85.5488L73.8611 92.136C73.8611 92.136 77.3255 95.9719 81.7129 94.5538C86.1003 93.1356 86.1717 89.7768 86.1717 89.7768L85.7562 86.0663L73.2822 85.5488Z" fill="#E2AAAA"/>
<path d="M87.4796 76.5823C87.4796 76.5823 89.1649 82.2365 88.5053 85.2473C87.8459 88.2579 85.8675 90.6163 85.2813 90.9425C84.6951 91.2687 79.7856 92.9126 75.3158 89.4837C70.846 86.0551 68.4279 79.6665 68.7212 75.7745C69.0144 71.8828 77.57 70.7811 78.6779 71.3686C79.7856 71.9562 87.4796 76.5823 87.4796 76.5823Z" fill="#FFCFCF"/>
<path d="M78.3814 79.3411C78.3814 79.3411 77.6828 84.305 76.4128 83.4778C75.1427 82.6504 73.8091 78.9592 71.9039 78.9592C69.9987 78.9592 70.6338 80.2955 71.5228 82.5867C72.4119 84.8778 73.8091 86.8702 72.9199 88.0377C72.0308 89.2054 68.4745 85.7688 67.0138 83.2231C65.5533 80.6775 65.2992 76.2862 65.5533 74.3771C65.8074 72.4678 72.2384 70.5368 73.2141 71.9478C74.19 73.3587 78.3814 79.3411 78.3814 79.3411Z" fill="url(#paint2_linear_65_54350)"/>
<path d="M85.8375 79.4995C81.9763 81.0282 74.3799 80.8852 68.2202 77.8763C62.3962 75.0291 63.5583 73.295 63.7005 73.1203C63.7069 73.1075 63.7133 73.101 63.7133 73.101C62.9514 62.6056 72.4108 57.8949 79.9716 60.5672C86.6738 62.9355 87.8295 69.0698 88.9854 72.1045C89.1275 72.4926 89.276 72.8291 89.4309 73.1008C90.8319 75.521 89.2094 78.1644 85.8375 79.4995Z" fill="url(#paint3_linear_65_54350)"/>
<path d="M88.9844 72.1066C88.1506 74.1045 86.6953 76.262 84.1328 77.4775C82.7834 78.1233 81.1158 78.5031 79.0767 78.4499C70.8592 78.2524 65.6212 74.682 63.7033 73.117C63.7033 73.1094 63.7109 73.1018 63.7109 73.1018C63.4001 68.8096 64.8024 65.4821 67.0766 63.2336C67.0766 63.2336 67.0842 63.2335 67.0918 63.2259C70.3895 59.982 75.514 58.9868 79.9712 60.5669C86.6723 62.9371 87.8323 69.0677 88.9844 72.1066Z" fill="url(#paint4_linear_65_54350)"/>
<path d="M88.0521 74.9175C86.68 76.7406 84.1329 77.4775 84.1329 77.4775C84.1329 77.4775 82.6319 71.4912 78.1519 66.371C73.7931 61.3875 67.4329 63.1271 67.0918 63.2259C70.3895 59.982 75.5139 58.9868 79.9711 60.5669C86.6724 62.9371 87.8324 69.0677 88.9844 72.1064C88.9845 72.1067 89.4317 73.1018 88.0521 74.9175Z" fill="url(#paint5_linear_65_54350)"/>
<path d="M89.9318 108.784C86.6343 110.448 78.0757 112.461 78.0757 112.461C78.0757 112.461 78.1743 107.637 76.3247 101.955C75.0056 97.8906 73.0197 94.624 71.9961 93.0894C73.1257 92.5044 73.861 92.1323 73.861 92.1323C73.861 92.1323 76.2186 95.2849 81.3278 94.3658C86.4371 93.4391 86.1718 89.7774 86.1718 89.7774C86.1718 89.7774 87.1043 89.4582 88.4762 89.0176C90.0379 94.7 93.0094 105.366 93.2368 105.411C93.5478 105.472 93.2368 107.121 89.9318 108.784Z" fill="url(#paint6_linear_65_54350)"/>
<path d="M91.6749 129.454L69.8051 138.646C69.8051 138.646 62.4671 141.746 59.9806 139.634C57.4942 137.514 59.1923 101.718 59.9806 100.237C60.3444 99.5608 64.4741 97.151 67.5594 95.4492C68.992 97.6144 73.3643 104.137 73.5918 110.769C73.9026 119.877 69.2517 127.054 69.2517 127.054L91.258 120.437C91.258 120.437 89.704 122.207 90.6364 125.534C91.5688 128.869 91.6749 129.454 91.6749 129.454Z" fill="url(#paint7_linear_65_54350)"/>
<path d="M110.793 106.916C110.793 109.225 103.342 113.328 103.342 113.328L99.3998 105.191C99.3998 105.191 99.4223 105.784 99.4678 106.832C98.1262 102.077 92.1982 88.2733 92.1982 88.2733C92.2135 88.1366 92.2437 87.9999 92.2892 87.8479C94.7528 87.1338 95.772 87.2766 96.9621 87.2463C99.5242 87.178 110.793 104.606 110.793 106.916Z" fill="url(#paint8_linear_65_54350)"/>
<path d="M98.1916 224.602C98.1916 224.602 97.8271 221.985 96.6124 221.863C95.3976 221.741 91.5102 224.542 91.5102 225.333C91.5102 226.124 91.5102 227.829 91.5102 227.829L85.4361 225.15C85.4361 225.15 84.5251 228.802 86.2258 229.35C87.9265 229.898 99.4064 234.889 100.378 234.889C101.35 234.889 108.032 233.002 106.331 230.994C104.63 228.985 99.285 226.307 98.7989 225.759C98.313 225.211 98.1916 224.602 98.1916 224.602Z" fill="url(#paint9_linear_65_54350)"/>
<path d="M82.9749 229.319C82.9749 229.319 82.6104 226.702 81.3956 226.58C80.1808 226.458 76.2935 229.258 76.2935 230.05C76.2935 230.841 76.2935 232.545 76.2935 232.545L70.2193 229.867C70.2193 229.867 69.3082 233.519 71.009 234.067C72.7099 234.615 84.1897 239.606 85.1615 239.606C86.1334 239.606 92.8149 237.719 91.114 235.71C89.4132 233.702 84.0681 231.024 83.5822 230.476C83.0964 229.928 82.9749 229.319 82.9749 229.319Z" fill="url(#paint10_linear_65_54350)"/>
<path d="M100.618 138.756L119.6 128.773C120.501 128.299 121.065 127.364 121.065 126.345V90.94C121.065 89.7266 119.779 88.9473 118.707 89.5112L100.336 99.1727C99.0896 99.8283 98.3086 101.123 98.3086 102.534V137.358C98.3086 138.545 99.5679 139.308 100.618 138.756Z" fill="url(#paint11_linear_65_54350)"/>
<path d="M90.7243 121.387C90.7243 121.387 92.7406 119.156 94.8893 117.478C97.0379 115.801 98.3076 115.723 98.3076 115.723L97.6938 119.234C97.6938 119.234 104.943 115.592 105.633 117.189C106.323 118.785 104.07 122.456 99.4797 125.784C94.8895 129.112 91.6743 128.807 91.6743 128.807C91.6743 128.807 88.9034 124.82 90.7243 121.387Z" fill="#FFCFCF"/>
<path opacity="0.3" d="M405.874 250.577L236.192 330.173L82.3286 257.44C78.9464 255.841 79.0354 250.989 82.474 249.516L250.939 177.338L405.874 250.577Z" fill="url(#paint12_linear_65_54350)" fill-opacity="0.1"/>
<path d="M81.2578 250.032L176.929 295.256V204.807L81.2578 159.582V250.032Z" fill="url(#paint13_linear_65_54350)"/>
<path d="M169.708 275.447V283.841L88.4775 245.436V170.996L97.8461 175.428V241.492L169.708 275.447Z" fill="#25254C"/>
<path d="M169.707 209.402V275.449L97.8447 241.494V175.43L169.707 209.402Z" fill="url(#paint14_linear_65_54350)"/>
<path d="M346.611 125.211L176.929 204.807L81.2578 159.582L250.939 79.9863L346.611 125.211Z" fill="url(#paint15_linear_65_54350)"/>
<path d="M176.928 295.256L346.609 215.661V125.211L176.928 204.807V295.256Z" fill="#898FAD"/>
<path d="M286.691 121.189C279.337 108.734 257.629 99.7051 231.986 99.7051C206.91 99.7051 185.605 108.34 177.797 120.369L174.604 120.345V130.5C174.604 147.508 200.294 161.295 231.986 161.295C263.677 161.295 289.368 147.508 289.368 130.5V121.21L286.691 121.189Z" fill="url(#paint16_linear_65_54350)"/>
<path d="M231.986 152.004C263.677 152.004 289.368 138.217 289.368 121.209C289.368 104.201 263.677 90.4141 231.986 90.4141C200.294 90.4141 174.604 104.201 174.604 121.209C174.604 138.217 200.294 152.004 231.986 152.004Z" fill="#FBFBFC"/>
<path d="M284.135 121.214C284.135 123.294 283.72 125.32 282.889 127.274C277.781 114.719 256.932 105.331 231.985 105.331C207.038 105.331 186.189 114.719 181.08 127.274C180.25 125.32 179.835 123.294 179.835 121.214C179.835 105.747 203.175 93.2285 231.985 93.2285C260.795 93.2284 284.135 105.747 284.135 121.214Z" fill="url(#paint17_linear_65_54350)"/>
<path d="M282.888 127.273C277.743 139.809 256.912 149.198 231.984 149.198C207.055 149.198 186.224 139.809 181.079 127.273C186.188 114.719 207.037 105.33 231.984 105.33C256.93 105.33 277.78 114.719 282.888 127.273Z" fill="#646575"/>
<path d="M258.43 103.652C243.322 103.759 232.813 119.276 232.813 119.276L238.707 119.457C238.707 119.457 264.212 107.515 276.898 113.335C276.898 113.335 275.109 109.948 269.899 107.105C264.69 104.263 258.43 103.652 258.43 103.652Z" fill="#646575"/>
<path d="M198.273 142.107C220.947 140.187 227.651 129.359 227.651 129.359L221.554 126.385C221.554 126.385 203.562 134.818 184.605 131.993C184.605 131.993 185.748 134.16 192.057 138.45C198.367 142.74 198.273 142.107 198.273 142.107Z" fill="#646575"/>
<path d="M238.708 128.779C238.708 128.779 252.006 133.942 254.237 145.772L265.403 141.937L271.134 138.991C264.146 128.146 240.235 125.367 240.235 125.367L238.708 128.779Z" fill="#646575"/>
<path d="M201.503 103.652C201.503 103.652 204.093 116.508 219.918 119.276L226.909 118.255C226.909 118.255 215.941 103.723 222.054 98.2879C222.054 98.2879 213.895 97.9239 201.503 103.652Z" fill="#646575"/>
<path d="M236.024 129.744C246.161 138.794 245.8 147.447 245.8 147.447C235.777 149.668 219.354 147.615 219.354 147.615C229.455 146.491 230.701 130.487 230.701 130.487L236.024 129.744Z" fill="#646575"/>
<path d="M243.583 123.248C260.542 121.006 278.878 132.694 278.878 132.694C278.878 132.694 284.132 128.209 282.886 123.248C281.904 119.338 278.049 116.745 278.049 116.745C268.221 113.863 242.54 120.454 242.54 120.454L243.583 123.248Z" fill="#646575"/>
<path d="M230.091 98.2829C229.97 98.3042 225.404 100.492 225.575 107.525C225.746 114.558 227.832 117.045 227.832 117.045L232.813 116.531C232.813 116.531 236.109 108.479 240.128 104.915C244.147 101.35 248.512 99.4629 248.512 99.4629C248.512 99.4629 235.378 97.3603 230.091 98.2829Z" fill="#646575"/>
<path d="M195.311 106.717C195.311 106.717 198.922 114.508 205.242 117.046C211.561 119.584 218.081 121.292 218.081 121.292L218.482 124.456C218.482 124.456 216.275 125.713 202.834 126.518C189.393 127.323 181.077 120.454 181.077 120.454C181.077 120.454 184.378 109.531 195.311 106.717Z" fill="#646575"/>
<path d="M258.43 102.562C243.322 102.67 232.813 118.186 232.813 118.186L238.707 118.368C238.707 118.368 264.212 106.425 276.898 112.246C276.898 112.246 275.109 108.858 269.899 106.015C264.69 103.173 258.43 102.562 258.43 102.562Z" fill="url(#paint18_linear_65_54350)"/>
<path d="M198.273 141.017C220.947 139.098 227.651 128.27 227.651 128.27L221.554 125.295C221.554 125.295 203.562 133.728 184.605 130.904C184.605 130.904 185.748 133.071 192.057 137.361C198.367 141.651 198.273 141.017 198.273 141.017Z" fill="url(#paint19_linear_65_54350)"/>
<path d="M238.707 127.689C238.707 127.689 252.005 132.852 254.236 144.682L265.402 140.847L271.133 137.902C264.145 127.056 240.234 124.277 240.234 124.277L238.707 127.689Z" fill="url(#paint20_linear_65_54350)"/>
<path d="M201.503 102.563C201.503 102.563 204.093 115.418 219.918 118.186L226.909 117.165C226.909 117.165 215.941 102.633 222.054 97.198C222.054 97.198 213.895 96.8341 201.503 102.563Z" fill="url(#paint21_linear_65_54350)"/>
<path d="M236.026 128.654C246.163 137.704 245.802 146.357 245.802 146.357C235.779 148.578 219.356 146.525 219.356 146.525C229.457 145.401 230.703 129.397 230.703 129.397L236.026 128.654Z" fill="url(#paint22_linear_65_54350)"/>
<path d="M243.583 122.158C260.542 119.916 278.878 131.604 278.878 131.604C278.878 131.604 284.132 127.119 282.886 122.158C281.904 118.248 278.049 115.655 278.049 115.655C268.221 112.773 242.54 119.364 242.54 119.364L243.583 122.158Z" fill="url(#paint23_linear_65_54350)"/>
<path d="M230.091 97.1931C229.97 97.2141 225.404 99.4023 225.575 106.435C225.746 113.468 227.832 115.955 227.832 115.955L232.813 115.44C232.813 115.44 236.109 107.389 240.128 103.825C244.147 100.26 248.512 98.3729 248.512 98.3729C248.512 98.3729 235.378 96.2704 230.091 97.1931Z" fill="url(#paint24_linear_65_54350)"/>
<path d="M195.311 105.625C195.311 105.625 198.922 113.416 205.242 115.954C211.561 118.492 218.081 120.201 218.081 120.201L218.482 123.365C218.482 123.365 216.275 124.622 202.834 125.427C189.393 126.232 181.077 119.363 181.077 119.363C181.077 119.363 184.378 108.44 195.311 105.625Z" fill="url(#paint25_linear_65_54350)"/>
<path d="M243.583 123.888C243.583 127.887 237.543 131.128 230.092 131.128C222.641 131.128 216.602 127.887 216.602 123.888C216.602 119.89 222.641 116.648 230.092 116.648C237.543 116.648 243.583 119.89 243.583 123.888Z" fill="#646575"/>
<path d="M243.583 122.156C243.583 126.155 237.543 129.396 230.092 129.396C222.641 129.396 216.602 126.155 216.602 122.156C216.602 118.158 222.641 114.916 230.092 114.916C237.543 114.916 243.583 118.158 243.583 122.156Z" fill="url(#paint26_linear_65_54350)"/>
<path d="M269.968 102.037L189.653 138.023L192.549 139.517L273.34 103.653L269.968 102.037Z" fill="#FBFBFC"/>
<path d="M193.025 102.037L273.34 138.023L270.444 139.517L189.653 103.653L193.025 102.037Z" fill="#FBFBFC"/>
<path d="M243.586 122.156C243.586 126.155 237.546 129.396 230.095 129.396C222.644 129.396 216.604 126.155 216.604 122.156C216.604 118.158 222.644 114.916 230.095 114.916C237.546 114.916 243.586 118.158 243.586 122.156Z" fill="#FBFBFC"/>
<path d="M126.271 184.695V268.126L129.106 270.144V186.225L126.271 184.695Z" fill="url(#paint27_linear_65_54350)"/>
<path d="M85.9873 208.229L172.662 245.642V249.033L85.9873 211.993V208.229Z" fill="url(#paint28_linear_65_54350)"/>
<path d="M320.274 198.537L279.807 217.077L265.907 181.122L306.374 162.582L320.274 198.537Z" fill="url(#paint29_linear_65_54350)"/>
<path d="M265.907 181.121V234.078L279.807 217.076L265.907 181.121Z" fill="#646575"/>
<path d="M320.274 198.537L279.807 217.077L265.907 234.079L307.534 214.612L320.274 198.537Z" fill="url(#paint30_linear_65_54350)"/>
<path d="M188.727 218.835L200.288 213.412V211.49L188.727 216.914V218.835Z" fill="#373842"/>
<path d="M206.52 211.491L218.081 206.068V204.146L206.52 209.57V211.491Z" fill="#373842"/>
<path d="M188.727 223.751L200.288 218.328V216.406L188.727 221.83V223.751Z" fill="#373842"/>
<path d="M206.52 216.407L218.081 210.984V209.062L206.52 214.486V216.407Z" fill="#373842"/>
<path d="M188.727 228.669L200.288 223.246V221.324L188.727 226.747V228.669Z" fill="#373842"/>
<path d="M206.52 221.325L218.081 215.902V213.98L206.52 219.404V221.325Z" fill="#373842"/>
<path d="M188.727 233.587L200.288 228.164V226.242L188.727 231.666V233.587Z" fill="#373842"/>
<path d="M206.52 226.241L218.081 220.818V218.896L206.52 224.32V226.241Z" fill="#373842"/>
<path d="M188.727 238.503L200.288 233.08V231.158L188.727 236.581V238.503Z" fill="#373842"/>
<path d="M206.52 231.159L218.081 225.736V223.814L206.52 229.237V231.159Z" fill="#373842"/>
<path d="M188.727 243.419L200.288 237.996V236.074L188.727 241.497V243.419Z" fill="#373842"/>
<path d="M206.52 236.075L218.081 230.652V228.73L206.52 234.154V236.075Z" fill="#373842"/>
<path d="M188.727 248.337L200.288 242.914V240.992L188.727 246.415V248.337Z" fill="#373842"/>
<path d="M206.52 240.991L218.081 235.568V233.646L206.52 239.07V240.991Z" fill="#373842"/>
<path d="M188.727 253.255L200.288 247.832V245.91L188.727 251.333V253.255Z" fill="#373842"/>
<path d="M206.52 245.909L218.081 240.486V238.564L206.52 243.988V245.909Z" fill="#373842"/>
<path d="M188.727 258.171L200.288 252.748V250.826L188.727 256.249V258.171Z" fill="#373842"/>
<path d="M206.52 250.827L218.081 245.404V243.482L206.52 248.906V250.827Z" fill="#373842"/>
<path d="M188.727 263.087L200.288 257.664V255.742L188.727 261.165V263.087Z" fill="#373842"/>
<path d="M206.52 255.743L218.081 250.32V248.398L206.52 253.822V255.743Z" fill="#373842"/>
<path d="M188.727 268.005L200.288 262.582V260.66L188.727 266.084V268.005Z" fill="#373842"/>
<path d="M206.52 260.659L218.081 255.236V253.314L206.52 258.738V260.659Z" fill="#373842"/>
<path d="M188.727 272.923L200.288 267.5V265.578L188.727 271.001V272.923Z" fill="#373842"/>
<path d="M206.52 265.577L218.081 260.154V258.232L206.52 263.656V265.577Z" fill="#373842"/>
<path d="M402.491 198.576L365.695 178.378V132.97C365.695 126.993 362.396 121.593 357.085 118.876L296.329 87.8016C293.238 86.2187 289.626 86.3599 286.665 88.1779C283.705 89.994 281.938 93.1543 281.938 96.6328V110.99H287.353V96.6328C287.353 95.0358 288.133 93.6403 289.492 92.8063C290.855 91.9707 292.449 91.909 293.868 92.6351L354.622 123.709C358.112 125.495 360.28 129.043 360.28 132.97V175.405L346.611 167.902V174.09L360.28 181.593V220.436C360.28 224.575 362.363 228.368 365.852 230.581C366.307 230.87 366.778 231.117 367.258 231.34L236.15 293.516C234.075 294.505 231.772 294.364 229.829 293.127C227.888 291.896 226.775 289.869 226.775 287.568V200.1C226.775 194.126 223.475 188.725 218.163 186.008L157.408 154.934C154.318 153.351 150.705 153.492 147.744 155.31C144.784 157.126 143.017 160.287 143.017 163.765V178.122C143.017 178.122 142.788 179.735 145.068 180.55C147.347 181.366 148.433 180.306 148.433 180.306V163.765C148.433 162.168 149.213 160.772 150.573 159.939C151.932 159.103 153.526 159.041 154.946 159.767L215.701 190.842C219.191 192.628 221.359 196.175 221.359 200.1V287.568C221.359 291.707 223.442 295.498 226.932 297.713C228.889 298.955 231.106 299.584 233.335 299.584C235.078 299.584 236.828 299.199 238.467 298.422L401.832 220.946C406.112 218.918 408.858 214.71 408.998 209.967C409.139 205.222 406.646 200.857 402.491 198.576ZM399.515 216.042L375.553 227.406L375.071 226.385C372.994 227.369 370.69 227.23 368.749 225.995C366.808 224.764 365.695 222.737 365.695 220.436V184.565L399.889 203.335C402.284 204.651 403.666 207.069 403.585 209.804C403.504 212.541 401.983 214.871 399.515 216.042Z" fill="#F6F5F8"/>
<path opacity="0.3" d="M323.141 309.727C339.648 309.727 353.03 303.247 353.03 295.254C353.03 287.261 339.648 280.781 323.141 280.781C306.634 280.781 293.252 287.261 293.252 295.254C293.252 303.247 306.634 309.727 323.141 309.727Z" fill="url(#paint31_linear_65_54350)"/>
<path d="M313.724 134.507C313.724 134.507 312.55 147.918 314.234 150.355C315.918 152.793 319.202 151.472 319.901 152.05C320.6 152.629 320.983 157.469 320.983 157.469C320.983 157.469 331.24 153.328 331.304 153.257C331.369 153.185 330.33 148.672 330.942 145.917C331.554 143.162 332.318 135.085 327.966 133.052C323.613 131.02 313.724 134.507 313.724 134.507Z" fill="#FFCFCF"/>
<path d="M314.641 131.621C315.125 134.18 313.729 136.006 316.072 136.64C318.414 137.273 317.546 143.107 318.299 143.206C319.051 143.305 318.941 139.699 320.491 139.418C322.041 139.137 322.781 141.076 322.367 142.663C321.953 144.251 321.308 148.437 326.063 149.02C330.818 149.604 333.158 146.761 334.818 143.205C336.478 139.648 337.797 129.841 330.803 128.28C323.808 126.719 324.594 129.378 321.119 127.847C317.645 126.316 314.181 129.191 314.641 131.621Z" fill="url(#paint32_linear_65_54350)"/>
<path d="M311.046 135.234C312.047 136.866 312.768 138.231 322.367 139.508C331.966 140.779 336.094 137.782 336.094 137.782C338.139 130.873 332.836 119.945 321.304 122.493C319.01 122.998 317.189 123.745 315.74 124.624C315.74 124.63 315.74 124.63 315.74 124.63C309.915 128.169 310.244 133.919 311.046 135.234Z" fill="url(#paint33_linear_65_54350)"/>
<path d="M336.093 137.784C336.093 137.784 322.068 139.92 316.006 137.269C309.944 134.618 310.606 131.967 310.606 131.967C310.606 131.967 308.029 134.121 310.585 136.772C313.14 139.423 324.161 142.277 336.093 137.784Z" fill="#D87023"/>
<path d="M315.741 124.624C315.741 124.63 315.741 124.63 315.741 124.63C315.741 124.63 323.139 123.926 328.343 128.343C333.553 132.754 333.261 138.723 333.261 138.723L336.096 137.782C338.141 130.873 332.838 119.945 321.306 122.493C319.011 122.998 317.19 123.745 315.741 124.624Z" fill="url(#paint34_linear_65_54350)"/>
<path d="M341.891 283.1L341.373 291.326C341.373 291.326 339.388 293.306 337.23 292.787C335.073 292.268 331.939 289.76 332.686 288.376C333.433 286.992 335.245 284.397 335.245 284.051C335.245 283.705 341.891 283.1 341.891 283.1Z" fill="#FFCFCF"/>
<path d="M321.348 292.096V298.496C321.348 298.496 318.672 301.61 316.342 300.572C314.011 299.534 311.7 296.546 312.134 295.231C312.568 293.915 313.148 292.096 313.148 292.096H321.348Z" fill="#FFCFCF"/>
<path d="M311.56 210.552V291.943C311.56 291.943 312.869 294.005 316.544 293.858C320.22 293.71 321.837 292.385 321.837 292.385L329.188 222.893L332.684 283.987C332.684 283.987 333.745 286.049 337.715 285.755C341.684 285.46 342.713 283.987 342.713 283.987L344.652 204.451L311.56 210.552Z" fill="url(#paint35_linear_65_54350)"/>
<path d="M322.646 296.488C322.646 296.488 318.892 297.544 318.628 298.27C318.365 298.996 316.489 299.59 314.299 298.27C312.108 296.95 311.647 294.772 312.569 293.914C313.491 293.056 304.864 291.143 303.876 291.34C302.888 291.538 298.014 293.561 300.122 295.19C302.229 296.818 314.413 304.397 316.191 304.205C317.97 304.012 322.514 303.089 322.646 301.769C322.778 300.448 322.646 296.488 322.646 296.488Z" fill="url(#paint36_linear_65_54350)"/>
<path d="M342.337 289C342.337 289 339.308 289.852 339.095 290.438C338.882 291.024 337.368 291.503 335.601 290.438C333.833 289.373 333.461 287.615 334.205 286.923C334.949 286.23 327.987 284.686 327.19 284.846C326.393 285.005 322.46 286.637 324.161 287.952C325.861 289.266 335.693 295.382 337.128 295.227C338.563 295.071 342.231 294.326 342.337 293.261C342.443 292.195 342.337 289 342.337 289Z" fill="url(#paint37_linear_65_54350)"/>
<path d="M299.951 186.34C299.951 186.34 299.971 186.958 300.418 187.826C300.418 187.826 300.418 187.826 300.418 187.833C300.926 188.816 301.982 190.118 304.174 191.224C308.114 193.211 310.063 192.18 310.225 192.092C310.232 192.085 310.239 192.079 310.239 192.079L310.286 192.709L311.559 210.555C311.559 210.555 320.357 213.038 331.701 211.41C340.222 210.195 343.532 206.309 344.655 204.45C345.028 203.833 345.156 203.44 345.156 203.44C345.156 203.44 344.1 185.018 345.156 184.76C346.212 184.495 350.429 184.143 350.869 180.616C351.309 177.089 350.408 152.82 347.417 152.115C346.056 151.796 344.337 152.169 342.611 152.433C340.967 152.691 339.322 152.847 337.989 152.203C337.637 152.04 337.312 151.816 337.014 151.531C337.014 151.531 335.64 151.938 333.644 152.549C330.422 153.546 325.576 155.092 322.361 156.361C320.513 157.093 319.461 158.098 319.037 158.131C317.046 158.283 312.6 161.994 311.165 162.95C310.272 163.554 309.968 167.355 309.711 167.661C308.831 168.719 299.951 186.34 299.951 186.34Z" fill="url(#paint38_linear_65_54350)"/>
<path d="M299.952 187.224C299.952 187.224 282.43 176.306 281.269 173.874C280.108 171.442 280.214 167.424 278.736 167.847C277.259 168.27 278.209 170.422 277.576 170.456C276.942 170.49 275.043 166.789 274.515 166.789C273.988 166.789 270.928 172.571 273.671 175.761C276.415 178.95 299.102 196.803 302.585 197.553C306.067 198.302 310.242 192.082 310.242 192.082C310.242 192.082 304.39 193.382 299.952 187.224Z" fill="#FFCFCF"/>
<path d="M320.511 167.275C320.659 167.849 321.249 168.189 321.818 168.026C324.878 167.154 333.879 164.519 337.172 162.807C337.978 162.387 338.464 161.536 338.418 160.627L337.99 152.203C337.638 152.04 337.313 151.816 337.016 151.531C337.016 151.531 335.642 151.938 333.645 152.549C330.423 153.546 325.577 155.092 322.362 156.36C320.514 157.093 319.201 157.737 319.039 158.131C318.555 159.314 319.908 164.922 320.511 167.275Z" fill="url(#paint39_linear_65_54350)"/>
<path d="M342.611 152.434L345.156 184.76C346.212 184.496 350.429 184.143 350.869 180.616C351.308 177.089 350.408 152.82 347.417 152.115C346.056 151.796 344.337 152.169 342.611 152.434Z" fill="url(#paint40_linear_65_54350)"/>
<path d="M299.951 186.341C299.951 186.341 299.971 186.958 300.418 187.827C300.418 187.827 300.418 187.827 300.418 187.833C300.926 188.817 301.982 190.119 304.174 191.225C308.114 193.212 310.063 192.181 310.225 192.093C310.232 192.086 310.239 192.079 310.239 192.079L310.286 192.71L316.23 179.47L314.373 160.605C313.479 161.209 310.12 163.383 309.863 163.688C308.983 164.746 299.951 186.341 299.951 186.341Z" fill="url(#paint41_linear_65_54350)"/>
<path d="M319.593 157.47C319.593 157.47 319.53 154.912 321.391 153.98C323.252 153.047 330.099 150.012 332.492 150.164C334.885 150.316 334.967 152.146 334.967 152.146L319.593 157.47Z" fill="url(#paint42_linear_65_54350)"/>
<defs>
<linearGradient id="paint0_linear_65_54350" x1="115.763" y1="230.312" x2="58.5263" y2="236.484" gradientUnits="userSpaceOnUse">
<stop stop-color="#363B51"/>
<stop offset="0.8549" stop-color="#2B3149"/>
</linearGradient>
<linearGradient id="paint1_linear_65_54350" x1="58.6785" y1="157.097" x2="110.793" y2="157.097" gradientUnits="userSpaceOnUse">
<stop stop-color="#5F6271"/>
<stop offset="1" stop-color="#2B3149"/>
</linearGradient>
<linearGradient id="paint2_linear_65_54350" x1="65.4669" y1="79.8677" x2="78.3813" y2="79.8677" gradientUnits="userSpaceOnUse">
<stop stop-color="#5F6271"/>
<stop offset="1" stop-color="#2B3149"/>
</linearGradient>
<linearGradient id="paint3_linear_65_54350" x1="63.5125" y1="70.1436" x2="89.9347" y2="70.1436" gradientUnits="userSpaceOnUse">
<stop stop-color="#D87023"/>
<stop offset="1" stop-color="#FF8B00"/>
</linearGradient>
<linearGradient id="paint4_linear_65_54350" x1="63.6679" y1="69.1424" x2="88.9844" y2="69.1424" gradientUnits="userSpaceOnUse">
<stop stop-color="#FFBD00"/>
<stop offset="1" stop-color="#FF8B00"/>
</linearGradient>
<linearGradient id="paint5_linear_65_54350" x1="67.0918" y1="68.6539" x2="89.0537" y2="68.6539" gradientUnits="userSpaceOnUse">
<stop stop-color="#D87023"/>
<stop offset="1" stop-color="#FF8B00"/>
</linearGradient>
<linearGradient id="paint6_linear_65_54350" x1="71.9961" y1="100.739" x2="93.3306" y2="100.739" gradientUnits="userSpaceOnUse">
<stop stop-color="#FFBD00"/>
<stop offset="1" stop-color="#FF8B00"/>
</linearGradient>
<linearGradient id="paint7_linear_65_54350" x1="58.6787" y1="117.91" x2="91.6749" y2="117.91" gradientUnits="userSpaceOnUse">
<stop stop-color="#FFBD00"/>
<stop offset="1" stop-color="#FF8B00"/>
</linearGradient>
<linearGradient id="paint8_linear_65_54350" x1="92.1981" y1="100.287" x2="110.793" y2="100.287" gradientUnits="userSpaceOnUse">
<stop stop-color="#FFBD00"/>
<stop offset="1" stop-color="#FF8B00"/>
</linearGradient>
<linearGradient id="paint9_linear_65_54350" x1="85.1923" y1="228.374" x2="106.607" y2="228.374" gradientUnits="userSpaceOnUse">
<stop stop-color="#5F6271"/>
<stop offset="1" stop-color="#2B3149"/>
</linearGradient>
<linearGradient id="paint10_linear_65_54350" x1="69.9756" y1="233.091" x2="91.3899" y2="233.091" gradientUnits="userSpaceOnUse">
<stop stop-color="#5F6271"/>
<stop offset="1" stop-color="#2B3149"/>
</linearGradient>
<linearGradient id="paint11_linear_65_54350" x1="103.805" y1="137.817" x2="117.044" y2="85.2746" gradientUnits="userSpaceOnUse">
<stop stop-color="#FAFAFA"/>
<stop offset="1" stop-color="#D6D6D6"/>
</linearGradient>
<linearGradient id="paint12_linear_65_54350" x1="248.029" y1="262.823" x2="269.615" y2="305.435" gradientUnits="userSpaceOnUse">
<stop stop-color="#363B51"/>
<stop offset="0.8549" stop-color="#2B3149"/>
</linearGradient>
<linearGradient id="paint13_linear_65_54350" x1="81.2579" y1="227.419" x2="176.929" y2="227.419" gradientUnits="userSpaceOnUse">
<stop stop-color="#CBCBD6"/>
<stop offset="1" stop-color="#F9FAF9"/>
</linearGradient>
<linearGradient id="paint14_linear_65_54350" x1="97.8448" y1="225.439" x2="169.707" y2="225.439" gradientUnits="userSpaceOnUse">
<stop stop-color="#5F6271"/>
<stop offset="1" stop-color="#2B3149"/>
</linearGradient>
<linearGradient id="paint15_linear_65_54350" x1="174.835" y1="73.31" x2="229.496" y2="217.607" gradientUnits="userSpaceOnUse">
<stop stop-color="#CBCBD6"/>
<stop offset="1" stop-color="#F9FAF9"/>
</linearGradient>
<linearGradient id="paint16_linear_65_54350" x1="174.604" y1="130.5" x2="289.368" y2="130.5" gradientUnits="userSpaceOnUse">
<stop stop-color="#DBD3C7"/>
<stop offset="1" stop-color="#8C8C8C"/>
</linearGradient>
<linearGradient id="paint17_linear_65_54350" x1="179.835" y1="110.251" x2="284.135" y2="110.251" gradientUnits="userSpaceOnUse">
<stop stop-color="#DBD3C7"/>
<stop offset="1" stop-color="#8C8C8C"/>
</linearGradient>
<linearGradient id="paint18_linear_65_54350" x1="235.739" y1="116.061" x2="268.565" y2="106.758" gradientUnits="userSpaceOnUse">
<stop stop-color="#727272"/>
<stop offset="1" stop-color="#BCBCBC"/>
</linearGradient>
<linearGradient id="paint19_linear_65_54350" x1="184.606" y1="133.173" x2="227.651" y2="133.173" gradientUnits="userSpaceOnUse">
<stop stop-color="#727272"/>
<stop offset="1" stop-color="#BCBCBC"/>
</linearGradient>
<linearGradient id="paint20_linear_65_54350" x1="238.707" y1="134.48" x2="271.133" y2="134.48" gradientUnits="userSpaceOnUse">
<stop stop-color="#727272"/>
<stop offset="1" stop-color="#BCBCBC"/>
</linearGradient>
<linearGradient id="paint21_linear_65_54350" x1="224.45" y1="119.442" x2="210.759" y2="99.4754" gradientUnits="userSpaceOnUse">
<stop stop-color="#727272"/>
<stop offset="1" stop-color="#BCBCBC"/>
</linearGradient>
<linearGradient id="paint22_linear_65_54350" x1="219.356" y1="138.022" x2="245.804" y2="138.022" gradientUnits="userSpaceOnUse">
<stop stop-color="#727272"/>
<stop offset="1" stop-color="#BCBCBC"/>
</linearGradient>
<linearGradient id="paint23_linear_65_54350" x1="251.594" y1="125.31" x2="268.789" y2="123.738" gradientUnits="userSpaceOnUse">
<stop stop-color="#727272"/>
<stop offset="1" stop-color="#BCBCBC"/>
</linearGradient>
<linearGradient id="paint24_linear_65_54350" x1="236.492" y1="114.796" x2="237.283" y2="96.5123" gradientUnits="userSpaceOnUse">
<stop stop-color="#727272"/>
<stop offset="1" stop-color="#BCBCBC"/>
</linearGradient>
<linearGradient id="paint25_linear_65_54350" x1="181.077" y1="115.559" x2="218.482" y2="115.559" gradientUnits="userSpaceOnUse">
<stop stop-color="#727272"/>
<stop offset="1" stop-color="#BCBCBC"/>
</linearGradient>
<linearGradient id="paint26_linear_65_54350" x1="216.602" y1="122.156" x2="243.583" y2="122.156" gradientUnits="userSpaceOnUse">
<stop stop-color="#EFECEB"/>
<stop offset="1" stop-color="#D6D2CC"/>
</linearGradient>
<linearGradient id="paint27_linear_65_54350" x1="125.692" y1="187.594" x2="129.411" y2="261.029" gradientUnits="userSpaceOnUse">
<stop stop-color="#EFECEB"/>
<stop offset="1" stop-color="#D6D2CC"/>
</linearGradient>
<linearGradient id="paint28_linear_65_54350" x1="128.255" y1="207.603" x2="130.219" y2="246.378" gradientUnits="userSpaceOnUse">
<stop stop-color="#EFECEB"/>
<stop offset="1" stop-color="#D6D2CC"/>
</linearGradient>
<linearGradient id="paint29_linear_65_54350" x1="280.107" y1="165.792" x2="304.998" y2="211.678" gradientUnits="userSpaceOnUse">
<stop stop-color="#DBD3C7"/>
<stop offset="1" stop-color="#8C8C8C"/>
</linearGradient>
<linearGradient id="paint30_linear_65_54350" x1="265.907" y1="216.308" x2="320.274" y2="216.308" gradientUnits="userSpaceOnUse">
<stop stop-color="#5F6271"/>
<stop offset="1" stop-color="#2B3149"/>
</linearGradient>
<linearGradient id="paint31_linear_65_54350" x1="314.249" y1="282.032" x2="333.092" y2="309.932" gradientUnits="userSpaceOnUse">
<stop stop-color="#363B51"/>
<stop offset="0.8549" stop-color="#2B3149"/>
</linearGradient>
<linearGradient id="paint32_linear_65_54350" x1="336.139" y1="138.257" x2="314.6" y2="138.257" gradientUnits="userSpaceOnUse">
<stop stop-color="#5F6271"/>
<stop offset="1" stop-color="#2B3149"/>
</linearGradient>
<linearGradient id="paint33_linear_65_54350" x1="310.605" y1="130.969" x2="336.524" y2="130.969" gradientUnits="userSpaceOnUse">
<stop stop-color="#FFBD00"/>
<stop offset="1" stop-color="#FF8B00"/>
</linearGradient>
<linearGradient id="paint34_linear_65_54350" x1="315.741" y1="130.419" x2="336.525" y2="130.419" gradientUnits="userSpaceOnUse">
<stop stop-color="#D87023"/>
<stop offset="1" stop-color="#FF8B00"/>
</linearGradient>
<linearGradient id="paint35_linear_65_54350" x1="344.652" y1="249.158" x2="311.56" y2="249.158" gradientUnits="userSpaceOnUse">
<stop stop-color="#5F6271"/>
<stop offset="1" stop-color="#2B3149"/>
</linearGradient>
<linearGradient id="paint36_linear_65_54350" x1="322.704" y1="297.767" x2="299.599" y2="297.767" gradientUnits="userSpaceOnUse">
<stop stop-color="#5F6271"/>
<stop offset="1" stop-color="#2B3149"/>
</linearGradient>
<linearGradient id="paint37_linear_65_54350" x1="342.384" y1="290.032" x2="323.738" y2="290.032" gradientUnits="userSpaceOnUse">
<stop stop-color="#5F6271"/>
<stop offset="1" stop-color="#2B3149"/>
</linearGradient>
<linearGradient id="paint38_linear_65_54350" x1="350.974" y1="181.747" x2="299.951" y2="181.747" gradientUnits="userSpaceOnUse">
<stop stop-color="#5F6271"/>
<stop offset="1" stop-color="#2B3149"/>
</linearGradient>
<linearGradient id="paint39_linear_65_54350" x1="314.221" y1="158.515" x2="329.587" y2="159.822" gradientUnits="userSpaceOnUse">
<stop stop-color="#FFBD00"/>
<stop offset="1" stop-color="#FF8B00"/>
</linearGradient>
<linearGradient id="paint40_linear_65_54350" x1="349.651" y1="168.376" x2="342.862" y2="168.376" gradientUnits="userSpaceOnUse">
<stop stop-color="#FFBD00"/>
<stop offset="1" stop-color="#FF8B00"/>
</linearGradient>
<linearGradient id="paint41_linear_65_54350" x1="306.779" y1="174.254" x2="315.725" y2="180.443" gradientUnits="userSpaceOnUse">
<stop stop-color="#FFBD00"/>
<stop offset="1" stop-color="#FF8B00"/>
</linearGradient>
<linearGradient id="paint42_linear_65_54350" x1="336.162" y1="152.934" x2="320.796" y2="154.242" gradientUnits="userSpaceOnUse">
<stop stop-color="#FFBD00"/>
<stop offset="1" stop-color="#FF8B00"/>
</linearGradient>
</defs>
</svg>
