<svg width="345" height="398" viewBox="0 0 345 398" fill="none" xmlns="http://www.w3.org/2000/svg">
<path d="M0 219.423L231.833 353.208V331.574L0 197.789V219.423Z" fill="url(#paint0_linear_65_58124)"/>
<path d="M231.834 353.207L345 289.567V267.934L231.834 331.573V353.207Z" fill="#898FAD"/>
<path d="M231.833 331.573L344.999 267.934L113.166 134.148L0 197.789L231.833 331.573Z" fill="url(#paint1_linear_65_58124)"/>
<path d="M231.833 330.843L0.634599 197.424L0 197.789L231.833 331.574L344.999 267.935L344.364 267.568L231.833 330.843Z" fill="white"/>
<path d="M7.86719 197.682L229.131 325.368V197.551L7.86719 69.8652V197.682Z" fill="url(#paint2_linear_65_58124)"/>
<path d="M229.132 325.368L337.139 264.629V136.812L229.132 197.551V325.368Z" fill="#898FAD"/>
<path d="M229.131 197.552L337.139 136.813L115.874 9.12695L7.86719 69.8656L229.131 197.552Z" fill="url(#paint3_linear_65_58124)"/>
<path d="M229.132 196.854L8.473 69.5176L7.86719 69.8661L229.132 197.552L337.139 136.814L336.533 136.464L229.132 196.854Z" fill="white"/>
<path d="M138.754 138.422L228.8 190.207V172.865L138.754 121.08V138.422Z" fill="url(#paint4_linear_65_58124)"/>
<path d="M228.8 190.207L324.458 136.413V119.07L228.8 172.865V190.207Z" fill="#898FAD"/>
<path d="M228.8 172.864L324.458 119.07L234.412 67.2852L138.754 121.079L228.8 172.864Z" fill="url(#paint5_linear_65_58124)"/>
<path d="M228.8 172.247L139.29 120.771L138.754 121.08L228.8 172.865L324.458 119.071L323.921 118.762L228.8 172.247Z" fill="white"/>
<path d="M25.6426 71.1373L115.687 122.922V105.58L25.6426 53.7949V71.1373Z" fill="url(#paint6_linear_65_58124)"/>
<path d="M115.688 122.922L211.347 69.1275V51.7852L115.688 105.579V122.922Z" fill="#898FAD"/>
<path d="M115.687 105.579L211.346 51.7849L121.301 0L25.6426 53.7943L115.687 105.579Z" fill="url(#paint7_linear_65_58124)"/>
<path d="M115.688 104.962L26.1789 53.4868L25.6426 53.7953L115.688 105.58L211.346 51.7859L210.809 51.4766L115.688 104.962Z" fill="white"/>
<path d="M305.671 168.987L237.33 207.799V312.736L240.466 314.526L329.02 260.311V155.393L305.671 168.987ZM325.884 258.21L240.467 306.99V296.547V209.9L306.656 172.338L325.883 161.12L325.884 258.21Z" fill="#9CA3BC"/>
<path d="M318.913 164.805L240.465 209.59V314.527L332.155 262.103V157.184L318.913 164.805ZM329.019 260.001L243.604 308.781V298.338V211.691L319.899 168.156L329.019 162.911V260.001Z" fill="url(#paint8_linear_65_58124)"/>
<path d="M332.156 157.184L329.021 155.393L237.33 207.799L240.466 209.59L332.156 157.184Z" fill="url(#paint9_linear_65_58124)"/>
<path d="M329.022 162.912V260.001L243.605 308.78V298.337L319.901 254.803V168.156L329.022 162.912Z" fill="url(#paint10_linear_65_58124)"/>
<path d="M319.901 168.156V254.803L243.605 298.337V211.691L319.901 168.156Z" fill="url(#paint11_linear_65_58124)"/>
<path d="M329.022 162.912L319.901 168.156V254.803L329.022 260.001V162.912Z" fill="#272C3D"/>
<path d="M243.604 213.626L326.643 166.371V168.779L243.604 216.035V213.626Z" fill="#898FAD"/>
<path d="M326.643 166.37L325.86 166.082L243.604 212.52V213.624L326.643 166.37Z" fill="url(#paint12_linear_65_58124)"/>
<path d="M243.604 219.277L326.643 172.021V174.43L243.604 221.685V219.277Z" fill="#898FAD"/>
<path d="M326.643 172.02L325.86 171.732L243.604 218.171V219.275L326.643 172.02Z" fill="url(#paint13_linear_65_58124)"/>
<path d="M243.604 224.924L326.643 177.67V180.078L243.604 227.333V224.924Z" fill="#898FAD"/>
<path d="M326.643 177.671L325.86 177.383L243.604 223.82V224.925L326.643 177.671Z" fill="url(#paint14_linear_65_58124)"/>
<path d="M243.604 230.575L326.643 183.32V185.729L243.604 232.984V230.575Z" fill="#898FAD"/>
<path d="M326.643 183.321L325.86 183.033L243.604 229.472V230.575L326.643 183.321Z" fill="url(#paint15_linear_65_58124)"/>
<path d="M243.604 236.226L326.643 188.971V191.38L243.604 238.634V236.226Z" fill="#898FAD"/>
<path d="M326.643 188.971L325.86 188.684L243.604 235.122V236.227L326.643 188.971Z" fill="url(#paint16_linear_65_58124)"/>
<path d="M243.604 241.876L326.643 194.621V197.029L243.604 244.284V241.876Z" fill="#898FAD"/>
<path d="M326.643 194.622L325.86 194.334L243.604 240.772V241.876L326.643 194.622Z" fill="url(#paint17_linear_65_58124)"/>
<path d="M243.604 247.531L326.643 200.275V202.684L243.604 249.939V247.531Z" fill="#898FAD"/>
<path d="M326.643 200.274L325.86 199.986L243.604 246.425V247.529L326.643 200.274Z" fill="url(#paint18_linear_65_58124)"/>
<path d="M243.604 253.181L326.643 205.926V208.335L243.604 255.589V253.181Z" fill="#898FAD"/>
<path d="M326.643 205.924L325.86 205.637L243.604 252.075V253.18L326.643 205.924Z" fill="url(#paint19_linear_65_58124)"/>
<path d="M243.604 258.831L326.643 211.576V213.984L243.604 261.24V258.831Z" fill="#898FAD"/>
<path d="M326.643 211.575L325.86 211.287L243.604 257.725V258.829L326.643 211.575Z" fill="url(#paint20_linear_65_58124)"/>
<path d="M243.604 264.482L326.643 217.227V219.635L243.604 266.89V264.482Z" fill="#898FAD"/>
<path d="M326.643 217.225L325.86 216.938L243.604 263.376V264.481L326.643 217.225Z" fill="url(#paint21_linear_65_58124)"/>
<path d="M243.604 270.131L326.643 222.877V225.285L243.604 272.54V270.131Z" fill="#898FAD"/>
<path d="M326.643 222.876L325.86 222.588L243.604 269.025V270.13L326.643 222.876Z" fill="url(#paint22_linear_65_58124)"/>
<path d="M243.604 275.78L326.643 228.525V230.934L243.604 278.189V275.78Z" fill="#898FAD"/>
<path d="M326.643 228.526L325.86 228.238L243.604 274.677V275.781L326.643 228.526Z" fill="url(#paint23_linear_65_58124)"/>
<path d="M243.604 281.431L326.643 234.176V236.585L243.604 283.839V281.431Z" fill="#898FAD"/>
<path d="M326.643 234.176L325.86 233.889L243.604 280.327V281.432L326.643 234.176Z" fill="url(#paint24_linear_65_58124)"/>
<path d="M243.604 287.081L326.643 239.826V242.234L243.604 289.489V287.081Z" fill="#898FAD"/>
<path d="M326.643 239.827L325.86 239.539L243.604 285.977V287.081L326.643 239.827Z" fill="url(#paint25_linear_65_58124)"/>
<path d="M243.604 292.732L326.643 245.477V247.885L243.604 295.14V292.732Z" fill="#898FAD"/>
<path d="M326.643 245.477L325.86 245.189L243.604 291.628V292.732L326.643 245.477Z" fill="url(#paint26_linear_65_58124)"/>
<path d="M243.604 298.384L326.643 251.129V253.538L243.604 300.792V298.384Z" fill="#898FAD"/>
<path d="M326.643 251.128L325.86 250.84L243.604 297.278V298.383L326.643 251.128Z" fill="url(#paint27_linear_65_58124)"/>
<path d="M243.604 304.177L326.643 256.922V259.331L243.604 306.585V304.177Z" fill="#898FAD"/>
<path d="M326.643 256.923L325.86 256.635L243.604 303.073V304.178L326.643 256.923Z" fill="url(#paint28_linear_65_58124)"/>
<path d="M291.261 184.648V281.75L293.001 280.744V183.643L291.261 184.648Z" fill="url(#paint29_linear_65_58124)"/>
<path d="M233.167 149.925C262.326 149.925 285.963 136.117 285.963 119.083C285.963 102.049 262.326 88.2402 233.167 88.2402C204.009 88.2402 180.371 102.049 180.371 119.083C180.371 136.117 204.009 149.925 233.167 149.925Z" fill="#424963"/>
<path d="M207.868 97.1777C208.453 96.9818 209.043 96.7948 209.638 96.6141C210.474 96.36 211.319 96.121 212.171 95.8964C212.805 95.7293 213.441 95.5671 214.085 95.416C214.961 95.2106 215.848 95.0251 216.739 94.8493C217.337 94.7318 217.933 94.6127 218.535 94.508C220.409 94.1835 222.303 93.911 224.219 93.7151C224.608 93.676 224.999 93.6575 225.389 93.6232C226.704 93.5073 228.024 93.4146 229.349 93.3594C229.988 93.3331 230.628 93.3218 231.269 93.309C232.247 93.2899 233.223 93.2827 234.201 93.2955C234.885 93.3051 235.569 93.3235 236.254 93.349C237.158 93.3826 238.061 93.4322 238.961 93.4937C239.65 93.5409 240.338 93.592 241.024 93.656C241.927 93.7399 242.824 93.8454 243.72 93.9573C244.385 94.0404 245.05 94.122 245.709 94.2211C246.712 94.3722 247.702 94.5528 248.69 94.739C249.26 94.8469 249.835 94.9436 250.4 95.0627C252.041 95.4112 253.663 95.8013 255.248 96.2513C255.356 96.2825 255.459 96.3216 255.567 96.3528C257.315 96.8588 259.009 97.4446 260.669 98.0753C261.113 98.2447 261.556 98.4158 261.993 98.594C263.693 99.2862 265.357 100.021 266.933 100.848L266.952 94.1108C265.376 93.2827 263.71 92.5481 262.009 91.8551C261.802 91.7712 261.616 91.6625 261.407 91.5802C261.177 91.4891 260.925 91.4267 260.693 91.3388C259.03 90.7066 257.333 90.1199 255.58 89.6131C255.497 89.5891 255.421 89.5548 255.337 89.5308C255.314 89.5244 255.29 89.5204 255.268 89.514C253.681 89.0632 252.059 88.6731 250.415 88.3238C250.288 88.2974 250.168 88.2583 250.042 88.2319C249.606 88.1416 249.156 88.084 248.715 88.0009C247.724 87.8139 246.733 87.6325 245.728 87.4814C245.504 87.4478 245.285 87.3967 245.058 87.3647C244.624 87.3032 244.18 87.2728 243.743 87.2176C242.845 87.1049 241.947 86.9994 241.042 86.9155C240.745 86.8875 240.452 86.8411 240.155 86.8164C239.766 86.7844 239.373 86.7804 238.983 86.754C238.078 86.6917 237.173 86.6429 236.265 86.6085C235.907 86.5949 235.55 86.5598 235.191 86.551C234.871 86.543 234.549 86.5598 234.229 86.5558C233.245 86.5422 232.264 86.5494 231.281 86.5694C230.865 86.5774 230.448 86.5614 230.032 86.575C229.809 86.5822 229.591 86.6101 229.369 86.6189C228.038 86.6741 226.715 86.7676 225.393 86.8843C225.074 86.9123 224.75 86.9163 224.432 86.9483C224.368 86.9547 224.306 86.9682 224.242 86.9746C222.325 87.1704 220.43 87.443 218.555 87.7675C218.368 87.8003 218.172 87.8131 217.985 87.8467C217.567 87.9218 217.165 88.0281 216.75 88.1104C215.863 88.2855 214.983 88.4685 214.112 88.6731C213.463 88.8258 212.824 88.9889 212.184 89.1575C211.333 89.3821 210.493 89.6195 209.66 89.8729C209.32 89.976 208.965 90.0575 208.628 90.1654C208.374 90.2469 208.138 90.3533 207.886 90.438C206.828 90.7921 205.794 91.1773 204.773 91.5802C204.306 91.764 203.832 91.9359 203.374 92.1309C201.927 92.7447 200.511 93.3954 199.159 94.11L199.14 100.846C200.492 100.132 201.908 99.4805 203.355 98.8674C203.812 98.674 204.287 98.5013 204.752 98.3175C205.775 97.9178 206.81 97.5326 207.868 97.1777Z" fill="#272C3D"/>
<path d="M270.353 96.0781L270.334 102.815L265.773 105.466L265.793 98.7286L270.353 96.0781Z" fill="#5F6B89"/>
<path d="M200.371 98.7278L200.352 105.465L195.762 102.815L195.781 96.0781L200.371 98.7278Z" fill="#8993AF"/>
<path d="M216.267 102.178C217.674 101.787 219.087 101.405 220.553 101.117C222.215 100.79 223.898 100.508 225.609 100.315C225.829 100.29 226.045 100.246 226.267 100.223C228.302 100.016 230.361 99.9252 232.423 99.9068C232.796 99.9036 233.169 99.8988 233.544 99.902C235.532 99.9172 237.518 100.017 239.486 100.208C239.819 100.24 240.149 100.282 240.48 100.319C242.5 100.547 244.5 100.85 246.45 101.264C246.678 101.312 246.896 101.378 247.122 101.429C248.779 101.801 250.386 102.265 251.961 102.773C252.559 102.966 253.153 103.161 253.738 103.373C255.509 104.019 257.244 104.716 258.86 105.542L258.879 98.8046C257.63 98.1659 256.331 97.5816 254.987 97.0517C254.591 96.895 254.162 96.784 253.759 96.6369C253.172 96.4235 252.578 96.2293 251.977 96.035C251.405 95.8504 250.859 95.6266 250.274 95.4595C249.253 95.1678 248.2 94.9296 247.148 94.693C246.917 94.641 246.697 94.5747 246.465 94.5252C246.367 94.5044 246.275 94.4748 246.177 94.4548C244.913 94.1935 243.631 93.9704 242.335 93.7866C241.728 93.7003 241.11 93.6499 240.498 93.5812C240.165 93.5436 239.839 93.5021 239.505 93.4701C239.187 93.4389 238.873 93.3902 238.555 93.3638C237.286 93.2591 236.008 93.1911 234.73 93.1591C234.34 93.1495 233.951 93.1671 233.561 93.1647C233.186 93.1615 232.815 93.1663 232.44 93.1695C231.878 93.1743 231.317 93.1583 230.754 93.1775C229.309 93.2271 227.868 93.323 226.437 93.4653C226.386 93.4701 226.336 93.4812 226.284 93.486C226.062 93.5084 225.848 93.5532 225.626 93.578C224.224 93.7354 222.827 93.9121 221.456 94.1599C221.151 94.215 220.873 94.3197 220.57 94.3797C219.103 94.6682 217.695 95.0487 216.284 95.4412C215.617 95.6266 214.905 95.7353 214.253 95.9447C214 96.0262 213.763 96.1293 213.512 96.2141C213.189 96.3236 212.879 96.4451 212.56 96.5602C210.729 97.222 208.947 97.9493 207.286 98.8038L207.267 105.541C208.928 104.686 210.71 103.958 212.541 103.297C212.859 103.182 213.171 103.059 213.494 102.951C214.388 102.648 215.341 102.436 216.267 102.178Z" fill="#272C3D"/>
<path d="M262.284 100.77L262.265 107.506L257.6 110.217L257.619 103.481L262.284 100.77Z" fill="#5F6B89"/>
<path d="M224.375 107.323C225.663 107.075 226.966 106.86 228.294 106.725C228.319 106.723 228.344 106.717 228.369 106.715C229.774 106.575 231.196 106.518 232.617 106.504C232.892 106.502 233.168 106.498 233.444 106.5C234.806 106.512 236.165 106.576 237.512 106.702C237.74 106.724 237.965 106.753 238.192 106.778C239.607 106.932 241.011 107.132 242.378 107.415C242.385 107.416 242.391 107.418 242.398 107.42C243.68 107.686 244.919 108.037 246.136 108.416C246.579 108.554 247.012 108.704 247.443 108.858C248.602 109.268 249.746 109.699 250.813 110.217L250.833 103.481C250.121 103.135 249.385 102.813 248.631 102.515C248.254 102.367 247.848 102.257 247.462 102.12C247.03 101.968 246.601 101.817 246.158 101.68C245.867 101.589 245.592 101.474 245.297 101.389C244.356 101.12 243.394 100.885 242.417 100.683C242.41 100.682 242.405 100.68 242.399 100.678C242.396 100.678 242.394 100.678 242.392 100.677C241.498 100.492 240.591 100.335 239.676 100.205C239.192 100.136 238.701 100.095 238.213 100.041C237.985 100.017 237.761 99.987 237.532 99.9654C237.352 99.9486 237.175 99.9199 236.994 99.9055C236.093 99.8312 235.188 99.7832 234.281 99.76C234.008 99.7528 233.736 99.7656 233.464 99.764C233.187 99.7616 232.914 99.7656 232.637 99.768C232.245 99.772 231.853 99.76 231.46 99.7736C230.435 99.8088 229.411 99.8767 228.396 99.9774C228.393 99.9774 228.39 99.979 228.386 99.979C228.368 99.9806 228.352 99.9846 228.333 99.9862C227.162 100.105 226 100.264 224.859 100.471C224.699 100.5 224.553 100.556 224.395 100.587C223.092 100.838 221.833 101.166 220.595 101.533C220.3 101.62 219.981 101.664 219.691 101.757C219.648 101.772 219.61 101.793 219.566 101.808C218.109 102.285 216.704 102.838 215.385 103.482L215.366 110.219C216.685 109.575 218.089 109.021 219.548 108.544C219.879 108.436 220.236 108.37 220.573 108.27C221.81 107.902 223.073 107.573 224.375 107.323Z" fill="#272C3D"/>
<path d="M208.602 103.481L208.583 110.218L203.887 107.506L203.906 100.77L208.602 103.481Z" fill="#8993AF"/>
<path d="M232.971 113.136C233.057 113.135 233.142 113.135 233.228 113.135C234.822 113.142 236.413 113.286 237.952 113.565C238.026 113.579 238.101 113.59 238.174 113.604C239.758 113.907 241.287 114.346 242.688 114.939L242.707 108.202C242.559 108.14 242.41 108.078 242.259 108.019C241.621 107.767 240.96 107.544 240.281 107.351C239.724 107.192 239.155 107.053 238.577 106.933C238.451 106.906 238.32 106.89 238.193 106.866C238.118 106.851 238.046 106.841 237.971 106.827C237.639 106.767 237.31 106.701 236.974 106.654C236.456 106.58 235.934 106.522 235.407 106.479C234.88 106.436 234.352 106.407 233.822 106.394C233.63 106.389 233.439 106.397 233.247 106.397C233.161 106.396 233.078 106.397 232.991 106.398C232.719 106.4 232.447 106.392 232.176 106.402C231.577 106.422 230.98 106.462 230.387 106.521C229.69 106.591 229 106.687 228.32 106.809C228.285 106.815 228.254 106.828 228.219 106.835C228.121 106.852 228.034 106.885 227.938 106.904C227.042 107.081 226.154 107.284 225.311 107.554C224.711 107.747 224.126 107.962 223.562 108.203L223.543 114.939C224.898 114.363 226.381 113.944 227.913 113.642C228.011 113.623 228.102 113.589 228.202 113.571C229.753 113.285 231.36 113.144 232.971 113.136Z" fill="#272C3D"/>
<path d="M254.237 105.445L254.218 112.183L249.342 115.015L249.361 108.279L254.237 105.445Z" fill="#5F6B89"/>
<path d="M216.908 108.279L216.889 115.015L211.982 112.183L212.002 105.445L216.908 108.279Z" fill="#8993AF"/>
<path d="M246.112 110.168L246.093 116.904L236.553 122.449L236.572 115.713L246.112 110.168Z" fill="#5F6B89"/>
<path d="M183.33 118.173C183.462 117.643 183.602 117.113 183.784 116.587C183.916 116.209 184.075 115.834 184.233 115.458C184.461 114.914 184.711 114.372 184.994 113.834C185.183 113.474 185.387 113.118 185.6 112.762C185.971 112.145 186.388 111.535 186.833 110.93C187.058 110.625 187.272 110.319 187.514 110.019C188.336 109 189.254 108 190.291 107.029C190.807 106.548 191.376 106.081 191.945 105.614C192.239 105.372 192.506 105.122 192.815 104.884C193.735 104.175 194.712 103.484 195.758 102.815L195.776 96.0781C194.73 96.7471 193.753 97.4393 192.833 98.1475C192.525 98.3857 192.259 98.6351 191.964 98.8773C191.445 99.3041 190.906 99.7245 190.431 100.163C190.385 100.205 190.356 100.25 190.311 100.293C189.272 101.262 188.356 102.261 187.533 103.281C187.46 103.371 187.359 103.455 187.287 103.546C187.12 103.759 187.007 103.981 186.851 104.196C186.405 104.799 185.991 105.408 185.62 106.024C185.516 106.196 185.373 106.362 185.276 106.535C185.171 106.721 185.11 106.912 185.011 107.099C184.728 107.636 184.48 108.176 184.252 108.721C184.155 108.95 184.018 109.174 183.931 109.404C183.875 109.552 183.855 109.702 183.804 109.851C183.621 110.376 183.482 110.903 183.35 111.433C183.283 111.702 183.173 111.967 183.119 112.237C183.097 112.349 183.101 112.461 183.08 112.573C182.977 113.145 182.928 113.717 182.884 114.291C182.863 114.569 182.797 114.846 182.789 115.125C182.785 115.272 182.783 115.42 182.783 115.567L182.764 122.304C182.764 121.88 182.832 121.458 182.865 121.035C182.91 120.458 182.959 119.882 183.063 119.307C183.131 118.928 183.236 118.55 183.33 118.173Z" fill="#272C3D"/>
<mask id="mask0_65_58124" style="mask-type:luminance" maskUnits="userSpaceOnUse" x="270" y="96" width="14" height="27">
<path d="M283.566 115.854L283.546 122.59C283.566 115.51 279.162 108.418 270.33 102.815L270.349 96.0781C279.181 101.681 283.586 108.773 283.566 115.854Z" fill="white"/>
</mask>
<g mask="url(#mask0_65_58124)">
<path d="M283.566 115.854L283.546 122.59C283.566 115.51 279.162 108.418 270.33 102.815L270.349 96.0781C279.181 101.681 283.586 108.773 283.566 115.854Z" fill="#272C3D"/>
</g>
<path d="M229.785 115.713L229.766 122.449L220.162 116.904L220.181 110.168L229.785 115.713Z" fill="#8993AF"/>
<path d="M217.811 119.604C217.823 119.583 217.83 119.56 217.842 119.54C218.069 119.134 218.364 118.739 218.689 118.35C218.811 118.204 218.954 118.062 219.09 117.918C219.419 117.573 219.755 117.229 220.164 116.904L220.183 110.168C219.955 110.349 219.739 110.534 219.535 110.722C219.375 110.87 219.256 111.027 219.111 111.179C218.973 111.324 218.83 111.466 218.707 111.614C218.651 111.682 218.576 111.745 218.522 111.813C218.272 112.131 218.054 112.455 217.869 112.784C217.865 112.79 217.864 112.797 217.86 112.803C217.849 112.824 217.843 112.845 217.831 112.866C217.679 113.143 217.543 113.423 217.437 113.705C217.391 113.83 217.368 113.955 217.33 114.08C217.301 114.175 217.273 114.268 217.249 114.363C217.227 114.447 217.193 114.531 217.176 114.615C217.114 114.922 217.079 115.231 217.07 115.539C217.069 115.586 217.068 115.634 217.068 115.681L217.049 122.417C217.05 121.976 217.121 121.536 217.229 121.099C217.253 121.004 217.282 120.91 217.311 120.816C217.434 120.408 217.594 120.003 217.811 119.604Z" fill="#272C3D"/>
<mask id="mask1_65_58124" style="mask-type:luminance" maskUnits="userSpaceOnUse" x="246" y="110" width="4" height="13">
<path d="M249.288 115.773L249.269 122.51C249.275 120.544 248.212 118.573 246.092 116.904L246.111 110.168C248.231 111.836 249.294 113.807 249.288 115.773Z" fill="white"/>
</mask>
<g mask="url(#mask1_65_58124)">
<path d="M249.288 115.773L249.269 122.51C249.275 120.544 248.212 118.573 246.092 116.904L246.111 110.168C248.231 111.836 249.294 113.807 249.288 115.773Z" fill="#272C3D"/>
</g>
<mask id="mask2_65_58124" style="mask-type:luminance" maskUnits="userSpaceOnUse" x="254" y="105" width="7" height="18">
<path d="M260.762 115.812L260.743 122.549C260.753 118.866 258.577 115.176 254.213 112.182L254.232 105.445C258.595 108.439 260.773 112.129 260.762 115.812Z" fill="white"/>
</mask>
<g mask="url(#mask2_65_58124)">
<path d="M260.762 115.812L260.743 122.549C260.753 118.866 258.577 115.176 254.213 112.182L254.232 105.445C258.595 108.439 260.773 112.129 260.762 115.812Z" fill="#272C3D"/>
</g>
<path d="M194.601 119.206C194.703 118.791 194.814 118.377 194.957 117.966C195.055 117.68 195.172 117.397 195.29 117.113C195.467 116.687 195.665 116.262 195.885 115.842C196.027 115.571 196.175 115.301 196.335 115.032C196.633 114.534 196.97 114.043 197.329 113.556C197.485 113.343 197.628 113.129 197.796 112.919C198.424 112.135 199.136 111.367 199.929 110.621C200.076 110.482 200.244 110.348 200.396 110.211C201.439 109.275 202.578 108.364 203.885 107.507L203.904 100.77C203.14 101.271 202.429 101.789 201.755 102.319C201.535 102.492 201.341 102.671 201.132 102.846C200.786 103.135 200.424 103.419 200.105 103.715C200.046 103.769 200.007 103.828 199.95 103.882C199.156 104.629 198.444 105.396 197.815 106.182C197.774 106.233 197.716 106.28 197.676 106.331C197.551 106.49 197.467 106.657 197.348 106.818C196.988 107.306 196.651 107.798 196.354 108.297C196.285 108.412 196.189 108.524 196.123 108.64C196.037 108.793 195.986 108.95 195.906 109.104C195.685 109.525 195.487 109.949 195.31 110.376C195.242 110.539 195.144 110.697 195.083 110.86C195.037 110.982 195.02 111.106 194.977 111.229C194.835 111.641 194.723 112.054 194.621 112.469C194.574 112.663 194.494 112.856 194.454 113.051C194.436 113.141 194.439 113.231 194.423 113.322C194.342 113.772 194.303 114.223 194.269 114.675C194.253 114.878 194.205 115.08 194.2 115.283C194.196 115.397 194.195 115.511 194.194 115.625L194.175 122.362C194.176 122.044 194.226 121.728 194.25 121.411C194.284 120.96 194.323 120.508 194.404 120.058C194.454 119.774 194.531 119.491 194.601 119.206Z" fill="#272C3D"/>
<path d="M207.122 117.182C207.208 117.037 207.317 116.896 207.411 116.752C207.817 116.132 208.308 115.528 208.852 114.936C209.048 114.723 209.231 114.508 209.444 114.298C210.193 113.566 211.018 112.852 211.986 112.183L212.004 105.445C211.186 106.012 210.446 106.603 209.784 107.215C209.663 107.327 209.579 107.448 209.463 107.561C209.249 107.77 209.067 107.985 208.871 108.199C208.609 108.484 208.307 108.761 208.077 109.053C207.83 109.367 207.641 109.692 207.431 110.013C207.336 110.158 207.228 110.299 207.14 110.446C207.089 110.531 207.017 110.614 206.969 110.699C206.677 111.217 206.431 111.742 206.232 112.272C206.174 112.428 206.147 112.586 206.097 112.742C206.049 112.89 206.01 113.037 205.97 113.186C205.912 113.4 205.829 113.613 205.786 113.829C205.68 114.356 205.619 114.885 205.604 115.414C205.602 115.495 205.6 115.576 205.6 115.657L205.581 122.394C205.583 121.566 205.728 120.741 205.951 119.921C205.991 119.774 206.03 119.627 206.077 119.48C206.328 118.703 206.672 117.934 207.122 117.182Z" fill="#272C3D"/>
<mask id="mask3_65_58124" style="mask-type:luminance" maskUnits="userSpaceOnUse" x="262" y="100" width="11" height="23">
<path d="M272.155 115.847L272.136 122.583C272.151 117.198 268.854 111.805 262.256 107.506L262.275 100.77C268.873 105.068 272.17 110.462 272.155 115.847Z" fill="white"/>
</mask>
<g mask="url(#mask3_65_58124)">
<path d="M272.155 115.847L272.136 122.583C272.151 117.198 268.854 111.805 262.256 107.506L262.275 100.77C268.873 105.068 272.17 110.462 272.155 115.847Z" fill="#272C3D"/>
</g>
<path d="M253.625 117.552C253.595 117.668 253.561 117.783 253.526 117.899C253.349 118.462 253.114 119.02 252.796 119.567C252.747 119.65 252.681 119.731 252.629 119.813C252.344 120.269 251.996 120.714 251.61 121.153C251.451 121.332 251.288 121.511 251.113 121.687C250.616 122.187 250.083 122.678 249.45 123.14C249.448 123.142 249.447 123.143 249.445 123.144L249.427 129.882C249.901 129.535 250.338 129.177 250.736 128.809C250.871 128.684 250.967 128.552 251.093 128.425C251.27 128.249 251.432 128.07 251.591 127.889C251.727 127.735 251.894 127.588 252.018 127.43C252.244 127.143 252.425 126.847 252.61 126.552C252.661 126.468 252.729 126.387 252.777 126.302C252.797 126.268 252.826 126.236 252.845 126.202C253.062 125.817 253.244 125.428 253.392 125.035C253.442 124.903 253.465 124.769 253.506 124.635C253.543 124.519 253.576 124.405 253.606 124.288C253.642 124.151 253.697 124.016 253.725 123.877C253.803 123.486 253.848 123.092 253.859 122.698C253.86 122.638 253.861 122.578 253.861 122.518L253.88 115.781C253.879 116.374 253.778 116.965 253.625 117.552Z" fill="#5F6B89"/>
<mask id="mask4_65_58124" style="mask-type:luminance" maskUnits="userSpaceOnUse" x="212" y="115" width="5" height="15">
<path d="M212.459 122.387L212.478 115.65C212.47 118.298 213.978 120.948 216.987 123.145L216.968 129.882C213.958 127.685 212.452 125.035 212.459 122.387Z" fill="white"/>
</mask>
<g mask="url(#mask4_65_58124)">
<path d="M216.987 123.145L216.968 129.882C213.958 127.685 212.452 125.035 212.459 122.387L212.478 115.65C212.47 118.298 213.978 120.949 216.987 123.145Z" fill="#272C3D"/>
</g>
<path d="M242.79 123.222L242.771 129.959L233.168 124.414L233.187 117.678L242.79 123.222Z" fill="#8993AF"/>
<path d="M233.187 117.678L233.168 124.414L223.627 129.959L223.646 123.222L233.187 117.678Z" fill="#5F6B89"/>
<path d="M265.488 116.56C265.46 116.942 265.424 117.323 265.357 117.703C265.316 117.932 265.256 118.161 265.2 118.39C265.115 118.739 265.019 119.086 264.9 119.432C264.821 119.662 264.731 119.89 264.637 120.119C264.488 120.479 264.319 120.838 264.133 121.193C264.021 121.408 263.908 121.624 263.782 121.837C263.516 122.287 263.212 122.73 262.885 123.17C262.781 123.309 262.694 123.451 262.583 123.588C262.068 124.235 261.475 124.865 260.826 125.481C260.682 125.618 260.524 125.751 260.373 125.886C259.582 126.595 258.728 127.288 257.755 127.943L257.735 134.68C258.71 134.025 259.563 133.332 260.354 132.623C260.439 132.546 260.554 132.479 260.637 132.401C260.701 132.342 260.744 132.278 260.806 132.219C261.456 131.602 262.048 130.972 262.563 130.324C262.585 130.299 262.614 130.275 262.634 130.248C262.722 130.137 262.781 130.019 262.864 129.906C263.191 129.467 263.495 129.023 263.762 128.573C263.811 128.492 263.879 128.412 263.926 128.33C264 128.198 264.044 128.062 264.114 127.93C264.3 127.574 264.469 127.217 264.617 126.855C264.668 126.733 264.742 126.613 264.789 126.491C264.828 126.385 264.844 126.275 264.88 126.169C265 125.824 265.095 125.477 265.179 125.128C265.216 124.976 265.279 124.826 265.31 124.674C265.325 124.597 265.322 124.518 265.336 124.44C265.404 124.06 265.439 123.68 265.466 123.299C265.478 123.14 265.517 122.982 265.521 122.823C265.523 122.729 265.525 122.634 265.525 122.539L265.545 115.803C265.545 116.055 265.506 116.307 265.488 116.56Z" fill="#5F6B89"/>
<path d="M250.997 127.958L250.978 134.695L246.045 131.847L246.064 125.109L250.997 127.958Z" fill="#8993AF"/>
<path d="M220.399 125.111L220.38 131.848L215.479 134.697L215.498 127.959L220.399 125.111Z" fill="#5F6B89"/>
<mask id="mask5_65_58124" style="mask-type:luminance" maskUnits="userSpaceOnUse" x="200" y="115" width="9" height="20">
<path d="M200.807 122.367L200.826 115.631C200.814 120.021 203.455 124.414 208.745 127.942L208.725 134.679C203.435 131.152 200.794 126.759 200.807 122.367Z" fill="white"/>
</mask>
<g mask="url(#mask5_65_58124)">
<path d="M208.744 127.942L208.725 134.679C203.435 131.151 200.794 126.758 200.807 122.367L200.826 115.631C200.813 120.021 203.454 124.414 208.744 127.942Z" fill="#272C3D"/>
</g>
<path d="M243.18 126.224C242.037 126.591 240.843 126.879 239.624 127.109C238.658 127.291 237.68 127.443 236.686 127.541C236.61 127.548 236.533 127.55 236.456 127.556C235.513 127.642 234.56 127.682 233.608 127.692C233.395 127.694 233.183 127.697 232.971 127.695C231.992 127.687 231.013 127.643 230.042 127.554C229.878 127.538 229.716 127.516 229.552 127.499C228.621 127.4 227.7 127.268 226.793 127.094C226.685 127.073 226.574 127.059 226.465 127.037C225.526 126.847 224.61 126.605 223.714 126.335C223.383 126.234 223.063 126.117 222.739 126.006C221.94 125.732 221.144 125.451 220.399 125.111L220.38 131.848C220.777 132.03 221.182 132.202 221.595 132.364C221.957 132.506 222.343 132.614 222.715 132.741C223.043 132.854 223.364 132.971 223.699 133.073C223.842 133.116 223.974 133.173 224.117 133.213C224.829 133.417 225.557 133.595 226.295 133.747C226.344 133.758 226.395 133.763 226.443 133.773C226.556 133.795 226.67 133.811 226.783 133.832C227.299 133.93 227.816 134.029 228.342 134.103C228.735 134.159 229.135 134.194 229.533 134.237C229.697 134.254 229.858 134.276 230.023 134.291C230.13 134.3 230.237 134.318 230.345 134.327C231.016 134.382 231.691 134.418 232.366 134.435C232.562 134.44 232.758 134.431 232.954 134.432C233.165 134.434 233.374 134.432 233.585 134.429C233.877 134.427 234.169 134.436 234.46 134.425C235.123 134.403 235.782 134.353 236.439 134.293C236.515 134.286 236.592 134.285 236.667 134.278C236.69 134.276 236.711 134.276 236.733 134.274C237.62 134.185 238.498 134.064 239.362 133.907C239.446 133.892 239.523 133.863 239.605 133.847C240.826 133.616 242.019 133.329 243.164 132.961C243.182 132.955 243.202 132.953 243.221 132.946C244.2 132.63 245.144 132.263 246.045 131.847L246.065 125.109C245.146 125.535 244.18 125.904 243.18 126.224Z" fill="#272C3D"/>
<path d="M259.098 132.635L259.079 139.372L254.383 136.66L254.402 129.924L259.098 132.635Z" fill="#8993AF"/>
<path d="M277.029 116.929C276.99 117.437 276.946 117.946 276.855 118.452C276.797 118.776 276.708 119.099 276.628 119.422C276.512 119.888 276.388 120.353 276.228 120.816C276.116 121.14 275.981 121.462 275.847 121.785C275.648 122.262 275.428 122.736 275.181 123.206C275.018 123.516 274.846 123.825 274.662 124.132C274.335 124.677 273.966 125.216 273.572 125.751C273.385 126.006 273.211 126.262 273.007 126.513C272.296 127.397 271.497 128.264 270.601 129.104C270.166 129.512 269.691 129.909 269.212 130.306C268.965 130.51 268.738 130.721 268.48 130.922C267.7 131.529 266.873 132.121 265.988 132.694L265.969 139.431C266.854 138.857 267.681 138.265 268.46 137.658C268.719 137.458 268.945 137.248 269.192 137.044C269.614 136.694 270.055 136.349 270.443 135.99C270.496 135.942 270.53 135.89 270.581 135.842C271.479 135 272.278 134.135 272.988 133.25C273.043 133.182 273.121 133.118 273.175 133.05C273.318 132.866 273.417 132.673 273.553 132.487C273.946 131.952 274.315 131.414 274.642 130.868C274.726 130.728 274.843 130.593 274.923 130.451C275.016 130.285 275.072 130.112 275.16 129.945C275.408 129.473 275.628 128.998 275.828 128.52C275.908 128.33 276.022 128.144 276.093 127.954C276.144 127.821 276.162 127.687 276.209 127.554C276.369 127.091 276.493 126.626 276.609 126.159C276.664 125.934 276.756 125.712 276.802 125.487C276.822 125.388 276.818 125.289 276.836 125.189C276.927 124.684 276.97 124.178 277.009 123.672C277.027 123.438 277.083 123.206 277.089 122.971C277.093 122.843 277.096 122.714 277.096 122.586L277.115 115.85C277.114 116.208 277.057 116.568 277.029 116.929Z" fill="#5F6B89"/>
<path d="M212.144 129.908L212.125 136.645L207.434 139.371L207.452 132.635L212.144 129.908Z" fill="#5F6B89"/>
<mask id="mask6_65_58124" style="mask-type:luminance" maskUnits="userSpaceOnUse" x="189" y="115" width="12" height="25">
<path d="M189.221 122.334L189.24 115.598C189.223 121.717 192.998 127.841 200.558 132.695L200.539 139.432C192.978 134.578 189.203 128.454 189.221 122.334Z" fill="white"/>
</mask>
<g mask="url(#mask6_65_58124)">
<path d="M200.557 132.695L200.538 139.432C192.978 134.578 189.203 128.454 189.221 122.334L189.24 115.598C189.222 121.717 192.997 127.841 200.557 132.695Z" fill="#272C3D"/>
</g>
<path d="M254.4 129.923C252.787 130.731 251.056 131.413 249.262 132.006C248.701 132.191 248.102 132.315 247.526 132.479C246.234 132.847 244.931 133.197 243.581 133.46C242.138 133.74 240.679 133.982 239.194 134.141C239.082 134.153 238.973 134.176 238.86 134.188C237.189 134.356 235.497 134.427 233.805 134.442C233.49 134.444 233.174 134.449 232.858 134.447C231.233 134.434 229.609 134.354 228.001 134.2C227.728 134.174 227.459 134.139 227.188 134.109C225.522 133.923 223.871 133.679 222.261 133.341C222.13 133.314 222.005 133.275 221.873 133.246C220.468 132.939 219.108 132.551 217.772 132.126C217.26 131.964 216.755 131.794 216.255 131.614C214.837 131.103 213.441 130.558 212.141 129.908L212.122 136.645C213.07 137.119 214.053 137.555 215.066 137.956C215.443 138.105 215.851 138.212 216.236 138.351C216.737 138.532 217.239 138.701 217.752 138.864C218.167 138.995 218.559 139.158 218.981 139.278C219.92 139.546 220.883 139.771 221.853 139.983C221.985 140.011 222.11 140.05 222.243 140.078C222.291 140.089 222.336 140.103 222.384 140.114C223.432 140.33 224.496 140.515 225.57 140.668C226.099 140.743 226.636 140.787 227.17 140.847C227.441 140.877 227.708 140.911 227.982 140.938C228.225 140.961 228.464 140.998 228.709 141.019C229.763 141.106 230.824 141.163 231.886 141.19C232.204 141.197 232.523 141.183 232.841 141.186C233.157 141.188 233.468 141.184 233.783 141.182C234.252 141.178 234.721 141.191 235.188 141.175C236.39 141.134 237.589 141.054 238.778 140.936C238.8 140.934 238.819 140.93 238.841 140.927C238.955 140.916 239.064 140.892 239.178 140.88C240.439 140.745 241.694 140.58 242.925 140.357C243.144 140.317 243.344 140.242 243.562 140.199C244.914 139.936 246.215 139.588 247.51 139.218C247.99 139.081 248.504 139.005 248.974 138.854C249.068 138.824 249.149 138.776 249.242 138.745C251.037 138.153 252.766 137.47 254.381 136.662L254.4 129.923Z" fill="#272C3D"/>
<path d="M267.196 137.311L267.176 144.047L262.586 141.397L262.605 134.66L267.196 137.311Z" fill="#8993AF"/>
<path d="M203.961 134.66L203.942 141.397L199.381 144.048L199.4 137.311L203.961 134.66Z" fill="#5F6B89"/>
<path d="M262.578 141.401C262.58 141.399 262.583 141.398 262.586 141.397L262.605 134.66C260.735 135.637 258.725 136.467 256.66 137.224C256.265 137.369 255.876 137.52 255.475 137.657C253.472 138.339 251.399 138.924 249.27 139.406C248.898 139.49 248.524 139.567 248.149 139.645C246.083 140.075 243.975 140.411 241.839 140.656C241.554 140.688 241.277 140.744 240.992 140.774C238.682 141.011 236.344 141.116 234.004 141.137C233.585 141.141 233.165 141.146 232.746 141.142C230.482 141.126 228.22 141.011 225.98 140.791C225.605 140.754 225.234 140.708 224.861 140.665C222.574 140.406 220.31 140.057 218.103 139.585C217.804 139.522 217.517 139.437 217.221 139.369C215.368 138.946 213.572 138.422 211.81 137.849C211.152 137.634 210.494 137.423 209.852 137.188C207.81 136.438 205.817 135.623 203.963 134.66L203.944 141.397C205.427 142.167 206.978 142.869 208.584 143.502C208.988 143.661 209.425 143.775 209.835 143.925C210.478 144.161 211.132 144.37 211.789 144.585C212.493 144.814 213.165 145.087 213.884 145.292C214.97 145.602 216.089 145.853 217.206 146.107C217.501 146.175 217.784 146.258 218.082 146.322C218.223 146.352 218.357 146.395 218.499 146.424C219.924 146.719 221.371 146.97 222.832 147.178C223.496 147.272 224.172 147.327 224.842 147.403C225.216 147.445 225.585 147.491 225.962 147.528C226.341 147.565 226.715 147.623 227.094 147.654C228.527 147.773 229.966 147.849 231.408 147.885C231.848 147.897 232.288 147.876 232.729 147.879C233.148 147.882 233.563 147.877 233.983 147.873C234.619 147.868 235.256 147.886 235.891 147.865C237.52 147.809 239.145 147.701 240.757 147.54C240.83 147.533 240.9 147.518 240.973 147.51C241.259 147.48 241.534 147.424 241.818 147.392C243.347 147.217 244.873 147.028 246.368 146.758C246.963 146.65 247.541 146.504 248.13 146.382C248.506 146.304 248.878 146.227 249.251 146.143C251.033 145.739 252.791 145.292 254.487 144.747C254.817 144.641 255.126 144.506 255.453 144.395C255.857 144.257 256.246 144.106 256.642 143.961C258.705 143.205 260.71 142.376 262.578 141.401Z" fill="#272C3D"/>
<path d="M288.62 117.499C288.568 118.08 288.528 118.662 288.421 119.24C288.333 119.718 288.189 120.192 288.063 120.666C287.918 121.22 287.783 121.774 287.588 122.324C287.426 122.78 287.211 123.229 287.015 123.681C286.763 124.26 286.512 124.84 286.204 125.411C285.98 125.826 285.713 126.234 285.46 126.644C285.056 127.298 284.63 127.947 284.152 128.587C283.869 128.964 283.562 129.336 283.254 129.708C282.539 130.57 281.75 131.415 280.896 132.243C280.587 132.544 280.305 132.85 279.976 133.146C279.442 133.628 278.846 134.092 278.262 134.561C277.75 134.971 277.258 135.388 276.708 135.787C276.078 136.246 275.382 136.684 274.701 137.127C274.004 137.58 273.343 138.046 272.594 138.482C270.931 139.448 269.164 140.314 267.354 141.132C266.834 141.367 266.302 141.585 265.771 141.807C264.35 142.402 262.893 142.954 261.402 143.462C260.87 143.644 260.348 143.839 259.808 144.008C258.868 144.304 257.906 144.564 256.943 144.826C256.217 145.024 255.498 145.235 254.761 145.414C253.752 145.658 252.724 145.861 251.697 146.07C250.995 146.212 250.302 146.371 249.593 146.496C247.516 146.863 245.406 147.153 243.279 147.376C242.621 147.444 241.957 147.487 241.295 147.542C240.048 147.646 238.799 147.738 237.545 147.792C236.744 147.827 235.941 147.844 235.139 147.858C234.124 147.877 233.109 147.886 232.093 147.873C231.242 147.862 230.392 147.836 229.543 147.803C228.604 147.765 227.668 147.717 226.732 147.652C225.873 147.593 225.017 147.52 224.163 147.437C223.231 147.347 222.305 147.244 221.382 147.126C220.552 147.021 219.727 146.904 218.905 146.776C217.915 146.622 216.933 146.449 215.956 146.263C215.184 146.116 214.416 145.964 213.654 145.798C212.488 145.543 211.341 145.254 210.201 144.951C209.566 144.783 208.925 144.624 208.298 144.441C206.258 143.844 204.264 143.179 202.336 142.428C201.374 142.053 200.443 141.642 199.514 141.229C199.044 141.02 198.557 140.83 198.096 140.612C196.694 139.946 195.33 139.24 194.019 138.484C188.534 135.317 184.422 131.657 181.685 127.751C178.947 123.844 177.584 119.694 177.596 115.547L177.577 122.283C177.554 130.577 183.031 138.886 194 145.219C195.311 145.976 196.675 146.682 198.077 147.348C198.535 147.565 199.018 147.753 199.485 147.961C200.323 148.333 201.148 148.72 202.012 149.061C202.112 149.101 202.22 149.127 202.32 149.165C204.247 149.915 206.238 150.581 208.278 151.176C208.442 151.224 208.593 151.291 208.758 151.339C209.225 151.471 209.715 151.563 210.186 151.689C211.324 151.99 212.467 152.279 213.63 152.533C213.941 152.602 214.24 152.694 214.553 152.759C215.011 152.854 215.483 152.913 215.944 153.001C216.917 153.186 217.892 153.358 218.877 153.511C219.275 153.573 219.663 153.661 220.062 153.717C220.494 153.779 220.935 153.808 221.369 153.864C222.29 153.98 223.212 154.083 224.14 154.174C224.583 154.217 225.02 154.286 225.465 154.322C225.878 154.356 226.297 154.359 226.712 154.388C227.648 154.453 228.583 154.501 229.522 154.538C229.995 154.557 230.464 154.602 230.938 154.614C231.316 154.624 231.694 154.604 232.071 154.609C233.088 154.622 234.101 154.613 235.117 154.594C235.621 154.585 236.127 154.605 236.63 154.587C236.929 154.577 237.225 154.541 237.524 154.528C238.779 154.473 240.026 154.382 241.273 154.278C241.778 154.235 242.29 154.226 242.793 154.176C242.949 154.161 243.101 154.128 243.257 154.111C245.385 153.888 247.493 153.599 249.572 153.232C249.673 153.215 249.779 153.207 249.881 153.189C250.488 153.079 251.075 152.927 251.678 152.805C252.703 152.597 253.73 152.394 254.738 152.151C255.481 151.971 256.201 151.759 256.932 151.56C257.89 151.299 258.846 151.041 259.782 150.746C259.985 150.682 260.198 150.635 260.4 150.57C260.741 150.459 261.051 150.31 261.388 150.195C262.877 149.687 264.33 149.137 265.749 148.543C266.28 148.32 266.812 148.102 267.332 147.866C269.142 147.049 270.909 146.183 272.571 145.217C272.8 145.084 273.026 144.95 273.251 144.815C273.762 144.508 274.198 144.175 274.683 143.859C275.363 143.417 276.056 142.98 276.687 142.522C277.238 142.122 277.731 141.705 278.244 141.293C278.826 140.825 279.42 140.363 279.954 139.882C280.062 139.784 280.194 139.694 280.299 139.596C280.517 139.395 280.668 139.178 280.877 138.974C281.731 138.146 282.518 137.304 283.232 136.443C283.388 136.254 283.599 136.077 283.749 135.887C283.895 135.701 283.991 135.506 284.131 135.32C284.609 134.68 285.035 134.032 285.438 133.379C285.607 133.105 285.831 132.84 285.987 132.564C286.065 132.426 286.108 132.283 286.183 132.144C286.491 131.572 286.741 130.993 286.994 130.414C287.141 130.076 287.34 129.744 287.467 129.403C287.51 129.289 287.525 129.172 287.567 129.058C287.762 128.508 287.897 127.955 288.043 127.402C288.142 127.026 288.29 126.653 288.366 126.275C288.386 126.175 288.382 126.074 288.401 125.975C288.507 125.395 288.548 124.815 288.6 124.234C288.634 123.851 288.72 123.47 288.731 123.087C288.735 122.924 288.738 122.761 288.738 122.598L288.757 115.862C288.758 116.41 288.669 116.954 288.62 117.499Z" fill="url(#paint30_linear_65_58124)"/>
<path d="M272.362 92.9558C294.128 105.522 294.242 125.902 272.592 138.484C250.968 151.05 215.784 151.05 194.018 138.484C172.226 125.902 172.112 105.522 193.735 92.9558C215.386 80.3741 250.57 80.3741 272.362 92.9558ZM195.999 135.347L200.56 132.696C185.543 123.054 185.46 108.401 200.369 98.7291L195.778 96.0787C178.354 107.213 178.476 124.228 195.999 135.347ZM199.402 137.311C218.682 147.44 248.029 147.44 267.195 137.31L262.604 134.66C245.981 143.342 220.684 143.342 203.963 134.66L199.402 137.311ZM262.391 96.7637L266.952 94.1132C247.698 83.9997 218.298 83.9997 199.159 94.114L203.75 96.7645C220.373 88.1121 245.671 88.1121 262.391 96.7637ZM270.355 96.0779L265.795 98.7284C280.812 108.401 280.894 123.053 265.985 132.695L270.576 135.346C287.974 124.227 287.905 107.213 270.355 96.0779ZM212.141 129.909L207.449 132.635C222.218 140.19 244.412 140.19 259.096 132.635L254.4 129.924C242.285 135.986 224.298 135.986 212.141 129.909ZM262.282 100.77L257.617 103.481C268.148 110.503 268.181 120.937 257.754 127.944L262.477 130.67C275.472 122.14 275.373 109.299 262.282 100.77ZM204.045 130.67L208.737 127.944C198.232 120.937 198.173 110.518 208.6 103.481L203.904 100.77C190.909 109.3 190.955 122.141 204.045 130.67ZM254.213 101.516L258.879 98.8051C244.11 91.2501 221.969 91.2501 207.285 98.8051L211.981 101.516C224.069 95.4688 242.083 95.4536 254.213 101.516ZM220.397 125.111L215.496 127.959C225.78 132.955 240.796 132.94 250.996 127.959L246.063 125.111C238.562 128.583 227.964 128.568 220.397 125.111ZM212.093 125.994L216.994 123.145C211.026 118.789 210.966 112.651 216.911 108.279L212.004 105.446C203.437 111.372 203.46 120.069 212.093 125.994ZM254.236 105.446L249.361 108.279C255.355 112.651 255.389 118.804 249.444 123.145L254.377 125.993C262.943 120.069 262.894 111.386 254.236 105.446ZM245.957 106.314L250.832 103.481C240.575 98.5005 225.586 98.5005 215.384 103.481L220.292 106.315C227.793 102.872 238.417 102.872 245.957 106.314ZM233.166 113.747L242.707 108.202C236.987 105.781 229.255 105.781 223.563 108.202L233.166 113.747ZM220.244 121.257L229.785 115.712L220.182 110.167C216.019 113.473 216.018 117.967 220.244 121.257ZM246.11 110.168L236.57 115.713L246.172 121.257C250.362 117.967 250.31 113.473 246.11 110.168ZM233.189 117.677L223.647 123.222C229.342 125.659 237.125 125.659 242.791 123.222L233.189 117.677Z" fill="url(#paint31_linear_65_58124)"/>
<path d="M143.019 67.8663L88.3795 36.8184L52.3936 57.8511L58.2708 61.1905L88.386 43.6172L137.148 71.3257L143.019 67.8663Z" fill="url(#paint32_linear_65_58124)"/>
<path d="M137.147 71.3257L88.3847 43.6172L58.2695 61.1905L107.031 88.8982L137.147 71.3257Z" fill="url(#paint33_linear_65_58124)"/>
<path d="M143.02 67.8663L137.149 71.3257L88.3873 43.6172L88.3809 36.8184L143.02 67.8663Z" fill="#272C3D"/>
<path d="M105.945 88.2821L140.313 68.1006L138.958 67.3301L104.59 87.5115L105.945 88.2821Z" fill="#898FAD"/>
<path d="M140.313 68.0996L140.224 68.6327L106.566 88.6344L105.945 88.2811L140.313 68.0996Z" fill="url(#paint34_linear_65_58124)"/>
<path d="M102.767 86.4746L137.135 66.2932L135.779 65.5234L101.411 85.7049L102.767 86.4746Z" fill="#898FAD"/>
<path d="M137.134 66.293L137.045 66.8261L103.387 86.8277L102.766 86.4744L137.134 66.293Z" fill="url(#paint35_linear_65_58124)"/>
<path d="M99.5851 84.6688L133.953 64.4873L132.598 63.7168L98.2295 83.8983L99.5851 84.6688Z" fill="#898FAD"/>
<path d="M133.952 64.4863L133.863 65.0195L100.205 85.0211L99.584 84.6678L133.952 64.4863Z" fill="url(#paint36_linear_65_58124)"/>
<path d="M96.4046 82.8622L130.773 62.6807L129.417 61.9102L95.0498 82.0916L96.4046 82.8622Z" fill="#898FAD"/>
<path d="M130.773 62.6816L130.684 63.2148L97.0261 83.2164L96.4043 82.8631L130.773 62.6816Z" fill="url(#paint37_linear_65_58124)"/>
<path d="M93.2237 81.0528L127.592 60.8713L126.236 60.1016L91.8682 80.2831L93.2237 81.0528Z" fill="#898FAD"/>
<path d="M127.592 60.8711L127.503 61.4042L93.8455 81.4059L93.2236 81.0526L127.592 60.8711Z" fill="url(#paint38_linear_65_58124)"/>
<path d="M90.044 79.2469L124.411 59.0647L123.057 58.2949L88.6885 78.4764L90.044 79.2469Z" fill="#898FAD"/>
<path d="M124.411 59.0645L124.323 59.5984L90.6651 79.6L90.0439 79.2467L124.411 59.0645Z" fill="url(#paint39_linear_65_58124)"/>
<path d="M86.8664 77.4403L121.235 57.2588L119.879 56.4883L85.5107 76.6697L86.8664 77.4403Z" fill="#898FAD"/>
<path d="M121.234 57.2598L121.146 57.7929L87.488 77.7945L86.8662 77.4412L121.234 57.2598Z" fill="url(#paint40_linear_65_58124)"/>
<path d="M83.6847 75.6328L118.053 55.4514L116.697 54.6816L82.3291 74.8631L83.6847 75.6328Z" fill="#898FAD"/>
<path d="M118.052 55.4512L117.963 55.9843L84.3046 75.9859L83.6836 75.6326L118.052 55.4512Z" fill="url(#paint41_linear_65_58124)"/>
<path d="M80.5062 73.827L114.874 53.6455L113.519 52.875L79.1514 73.0565L80.5062 73.827Z" fill="#898FAD"/>
<path d="M114.874 53.6465L114.785 54.1796L81.1277 74.1812L80.5059 73.8279L114.874 53.6465Z" fill="url(#paint42_linear_65_58124)"/>
<path d="M77.3234 72.0204L111.692 51.8389L110.336 51.0684L75.9678 71.2498L77.3234 72.0204Z" fill="#898FAD"/>
<path d="M111.691 51.8379L111.602 52.371L77.9441 72.3727L77.3223 72.0194L111.691 51.8379Z" fill="url(#paint43_linear_65_58124)"/>
<path d="M74.1456 70.2129L108.513 50.0315L107.157 49.2617L72.79 69.4432L74.1456 70.2129Z" fill="#898FAD"/>
<path d="M108.513 50.0312L108.424 50.5644L74.7665 70.566L74.1455 70.2127L108.513 50.0312Z" fill="url(#paint44_linear_65_58124)"/>
<path d="M70.962 68.4071L105.33 48.2256L103.975 47.4551L69.6064 67.6365L70.962 68.4071Z" fill="#898FAD"/>
<path d="M105.33 48.2266L105.241 48.7589L71.5838 68.7613L70.9619 68.408L105.33 48.2266Z" fill="url(#paint45_linear_65_58124)"/>
<path d="M67.7843 66.5985L102.153 46.417L100.797 45.6465L66.4287 65.828L67.7843 66.5985Z" fill="#898FAD"/>
<path d="M102.152 46.416L102.063 46.9491L68.4053 66.9508L67.7842 66.5975L102.152 46.416Z" fill="url(#paint46_linear_65_58124)"/>
<path d="M64.6078 64.791L98.9759 44.6096L97.6203 43.8398L63.2529 64.0213L64.6078 64.791Z" fill="#898FAD"/>
<path d="M98.9756 44.6094L98.8869 45.1425L65.2292 65.1441L64.6074 64.7909L98.9756 44.6094Z" fill="url(#paint47_linear_65_58124)"/>
<path d="M61.425 62.9852L95.7931 42.8037L94.4376 42.0332L60.0693 62.2147L61.425 62.9852Z" fill="#898FAD"/>
<path d="M95.792 42.8027L95.7033 43.3359L62.0456 63.3375L61.4238 62.9842L95.792 42.8027Z" fill="url(#paint48_linear_65_58124)"/>
<path d="M58.2472 61.1785L92.6146 40.9971L91.2598 40.2266L56.8916 60.408L58.2472 61.1785Z" fill="#898FAD"/>
<path d="M92.6144 40.9961L92.5257 41.5292L58.8681 61.5309L58.2471 61.1776L92.6144 40.9961Z" fill="url(#paint49_linear_65_58124)"/>
<path d="M54.9835 59.3242L89.3517 39.1428L87.9961 38.373L53.6279 58.5545L54.9835 59.3242Z" fill="#898FAD"/>
<path d="M89.3516 39.1426L89.2629 39.6757L55.6053 59.6773L54.9834 59.324L89.3516 39.1426Z" fill="url(#paint50_linear_65_58124)"/>
<path d="M125.298 78.398L70.6523 47.3461L71.7754 46.6875L126.421 77.7394L125.298 78.398Z" fill="#898FAD"/>
<path d="M184.587 44.1956L129.948 13.1484L93.9619 34.1804L99.8392 37.5198L129.954 19.9473L178.716 47.6549L184.587 44.1956Z" fill="url(#paint51_linear_65_58124)"/>
<path d="M178.715 47.6549L129.953 19.9473L99.8379 37.5198L148.6 65.2283L178.715 47.6549Z" fill="url(#paint52_linear_65_58124)"/>
<path d="M184.588 44.1956L178.718 47.6549L129.956 19.9473L129.949 13.1484L184.588 44.1956Z" fill="#272C3D"/>
<path d="M147.513 64.6114L181.88 44.4299L180.526 43.6602L146.157 63.8416L147.513 64.6114Z" fill="#898FAD"/>
<path d="M181.879 44.4297L181.79 44.9628L148.133 64.9645L147.512 64.6112L181.879 44.4297Z" fill="url(#paint53_linear_65_58124)"/>
<path d="M144.333 62.8036L178.701 42.6221L177.346 41.8516L142.978 62.0331L144.333 62.8036Z" fill="#898FAD"/>
<path d="M178.701 42.623L178.613 43.1562L144.955 63.1578L144.333 62.8045L178.701 42.623Z" fill="url(#paint54_linear_65_58124)"/>
<path d="M141.151 60.9969L175.52 40.8154L174.164 40.0449L139.796 60.2264L141.151 60.9969Z" fill="#898FAD"/>
<path d="M175.52 40.8145L175.431 41.3476L141.773 61.3492L141.151 60.9959L175.52 40.8145Z" fill="url(#paint55_linear_65_58124)"/>
<path d="M137.971 59.1895L172.339 39.008L170.984 38.2383L136.616 58.4197L137.971 59.1895Z" fill="#898FAD"/>
<path d="M172.34 39.0078L172.251 39.5409L138.594 59.5426L137.972 59.1893L172.34 39.0078Z" fill="url(#paint56_linear_65_58124)"/>
<path d="M134.796 57.3836L169.164 37.2022L167.809 36.4316L133.44 56.6131L134.796 57.3836Z" fill="#898FAD"/>
<path d="M169.163 37.2012L169.074 37.7343L135.417 57.7359L134.795 57.3826L169.163 37.2012Z" fill="url(#paint57_linear_65_58124)"/>
<path d="M131.612 55.575L165.981 35.3936L164.625 34.623L130.257 54.8045L131.612 55.575Z" fill="#898FAD"/>
<path d="M165.98 35.3926L165.89 35.9257L132.232 55.9273L131.611 55.574L165.98 35.3926Z" fill="url(#paint58_linear_65_58124)"/>
<path d="M128.435 53.7695L162.803 33.5881L161.447 32.8184L127.079 52.9998L128.435 53.7695Z" fill="#898FAD"/>
<path d="M162.802 33.5879L162.713 34.121L129.055 54.1227L128.434 53.7694L162.802 33.5879Z" fill="url(#paint59_linear_65_58124)"/>
<path d="M125.251 51.9618L159.619 31.7795L158.264 31.0098L123.896 51.1912L125.251 51.9618Z" fill="#898FAD"/>
<path d="M159.619 31.7793L159.53 32.3132L125.872 52.3148L125.251 51.9616L159.619 31.7793Z" fill="url(#paint60_linear_65_58124)"/>
<path d="M122.073 50.1551L156.441 29.9736L155.085 29.2031L120.718 49.3846L122.073 50.1551Z" fill="#898FAD"/>
<path d="M156.441 29.9727L156.353 30.5058L122.695 50.5074L122.073 50.1541L156.441 29.9727Z" fill="url(#paint61_linear_65_58124)"/>
<path d="M118.89 48.3477L153.258 28.1662L151.902 27.3965L117.534 47.5779L118.89 48.3477Z" fill="#898FAD"/>
<path d="M153.258 28.166L153.169 28.6991L119.512 48.7008L118.89 48.3475L153.258 28.166Z" fill="url(#paint62_linear_65_58124)"/>
<path d="M115.714 46.5418L150.081 26.3604L148.727 25.5898L114.358 45.7713L115.714 46.5418Z" fill="#898FAD"/>
<path d="M150.08 26.3594L149.992 26.8925L116.334 46.8941L115.713 46.5408L150.08 26.3594Z" fill="url(#paint63_linear_65_58124)"/>
<path d="M112.534 44.7352L146.903 24.5537L145.547 23.7832L111.179 43.9647L112.534 44.7352Z" fill="#898FAD"/>
<path d="M146.901 24.5547L146.813 25.0878L113.155 45.0895L112.533 44.7362L146.901 24.5547Z" fill="url(#paint64_linear_65_58124)"/>
<path d="M109.353 42.9258L143.721 22.7443L142.365 21.9746L107.997 42.1561L109.353 42.9258Z" fill="#898FAD"/>
<path d="M143.72 22.7441L143.63 23.2773L109.973 43.2789L109.352 42.9256L143.72 22.7441Z" fill="url(#paint65_linear_65_58124)"/>
<path d="M106.174 41.12L140.542 20.9385L139.187 20.168L104.819 40.3494L106.174 41.12Z" fill="#898FAD"/>
<path d="M140.543 20.9395L140.454 21.4726L106.797 41.4742L106.175 41.1209L140.543 20.9395Z" fill="url(#paint66_linear_65_58124)"/>
<path d="M102.991 39.3133L137.36 19.1318L136.004 18.3613L101.636 38.5428L102.991 39.3133Z" fill="#898FAD"/>
<path d="M137.359 19.1309L137.271 19.664L103.613 39.6656L102.991 39.3123L137.359 19.1309Z" fill="url(#paint67_linear_65_58124)"/>
<path d="M99.8136 37.5059L134.181 17.3244L132.825 16.5547L98.458 36.7362L99.8136 37.5059Z" fill="#898FAD"/>
<path d="M134.181 17.3242L134.092 17.8574L100.435 37.859L99.8135 37.5057L134.181 17.3242Z" fill="url(#paint68_linear_65_58124)"/>
<path d="M96.55 35.6531L130.918 15.4717L129.563 14.7012L95.1943 34.8826L96.55 35.6531Z" fill="#898FAD"/>
<path d="M130.918 15.4727L130.829 16.005L97.1716 36.0074L96.5498 35.6541L130.918 15.4727Z" fill="url(#paint69_linear_65_58124)"/>
<path d="M166.866 54.7281L112.221 23.6762L113.344 23.0176L167.989 54.0695L166.866 54.7281Z" fill="#898FAD"/>
<path d="M223.995 308.934V316.5L13.0107 194.717V78.7617L19.7073 82.6351V191.061L223.995 308.934Z" fill="#898FAD"/>
<path d="M223.996 200.509V308.934L19.708 191.06V82.6348L223.996 200.509Z" fill="url(#paint70_linear_65_58124)"/>
<path d="M13.0107 194.717L19.7073 191.061L223.995 308.934V316.5L13.0107 194.717Z" fill="url(#paint71_linear_65_58124)"/>
<path d="M54.9824 103.381V216.938L58.1157 218.858V105.189L54.9824 103.381Z" fill="#F8F9F8"/>
<path d="M58.1172 218.858L63.2192 216.558V108.789L58.1172 105.189V218.858Z" fill="#898FAD"/>
<path d="M168.385 168.361V281.918L171.517 283.838V170.169L168.385 168.361Z" fill="#F8F9F8"/>
<path d="M171.516 283.839L176.618 281.538L176.618 173.77L171.516 170.17V283.839Z" fill="#898FAD"/>
<path opacity="0.86" d="M124.079 190.617V236.198C124.079 237.233 122.958 237.879 122.062 237.36L92.0032 219.925C91.2103 219.466 90.7227 218.618 90.7227 217.702V171.903C90.7227 170.951 91.7538 170.357 92.5771 170.835L122.771 188.347C123.581 188.816 124.079 189.681 124.079 190.617Z" fill="url(#paint72_linear_65_58124)"/>
<path d="M123.735 190.771V236.352C123.735 237.388 122.614 238.033 121.719 237.514L91.6593 220.08C90.8664 219.62 90.3789 218.773 90.3789 217.857V172.057C90.3789 171.105 91.41 170.511 92.2332 170.989L122.428 188.502C123.237 188.971 123.735 189.836 123.735 190.771Z" fill="white"/>
<path d="M120.767 196.927L96.7588 183.09V182.221L120.767 196.057V196.927Z" fill="#D2D8D7"/>
<path d="M120.766 199.062L93.3555 183.265V182.395L120.766 198.192V199.062Z" fill="#D2D8D7"/>
<path d="M120.766 201.197L93.3555 185.4V184.529L120.766 200.327V201.197Z" fill="#D2D8D7"/>
<path d="M120.766 203.334L93.3555 187.536V186.666L120.766 202.463V203.334Z" fill="#D2D8D7"/>
<path d="M116.513 203.019L93.3555 189.672V188.803L116.513 202.149V203.019Z" fill="#D2D8D7"/>
<path d="M104.045 204.267L97.1934 200.319V199.408L104.045 203.357V204.267Z" fill="#D2D8D7"/>
<path d="M104.045 207.734L97.1934 203.785V202.875L104.045 206.824V207.734Z" fill="#D2D8D7"/>
<path d="M104.045 211.198L97.1934 207.249V206.34L104.045 210.288V211.198Z" fill="#D2D8D7"/>
<path d="M104.045 214.665L97.1934 210.716V209.807L104.045 213.755V214.665Z" fill="#D2D8D7"/>
<path d="M104.045 218.13L97.1934 214.181V213.271L104.045 217.22V218.13Z" fill="#D2D8D7"/>
<path d="M95.3016 199.227L94.0508 198.506V197.596L95.3016 198.317V199.227Z" fill="#D2D8D7"/>
<path d="M95.3016 202.692L94.0508 201.971V201.061L95.3016 201.782V202.692Z" fill="#D2D8D7"/>
<path d="M95.3016 206.158L94.0508 205.437V204.527L95.3016 205.248V206.158Z" fill="#D2D8D7"/>
<path d="M95.3016 209.625L94.0508 208.904V207.994L95.3016 208.715V209.625Z" fill="#D2D8D7"/>
<path d="M95.3016 213.09L94.0508 212.369V211.459L95.3016 212.18V213.09Z" fill="#D2D8D7"/>
<path d="M118.261 212.459L111.428 208.521V207.611L118.261 211.549V212.459Z" fill="#D2D8D7"/>
<path d="M118.261 215.924L111.428 211.986V211.076L118.261 215.014V215.924Z" fill="#D2D8D7"/>
<path d="M118.261 219.391L111.428 215.453V214.543L118.261 218.48V219.391Z" fill="#D2D8D7"/>
<path d="M118.261 222.856L111.428 218.918V218.008L118.261 221.946V222.856Z" fill="#D2D8D7"/>
<path d="M118.261 226.322L111.428 222.385V221.475L118.261 225.413V226.322Z" fill="#D2D8D7"/>
<path d="M120.766 229.59L93.3555 213.793V192.615L120.766 208.413V229.59Z" stroke="#D2D8D7" stroke-width="0.4588" stroke-miterlimit="10"/>
<path d="M93.3555 195.916L120.766 211.713" stroke="#D2D8D7" stroke-width="0.4588" stroke-miterlimit="10"/>
<path d="M93.3555 199.383L120.766 215.18" stroke="#D2D8D7" stroke-width="0.4588" stroke-miterlimit="10"/>
<path d="M93.3555 202.848L120.766 218.645" stroke="#D2D8D7" stroke-width="0.4588" stroke-miterlimit="10"/>
<path d="M93.3555 206.314L120.766 222.113" stroke="#D2D8D7" stroke-width="0.4588" stroke-miterlimit="10"/>
<path d="M93.3555 209.781L120.766 225.579" stroke="#D2D8D7" stroke-width="0.4588" stroke-miterlimit="10"/>
<path d="M96.0059 194.143V215.32" stroke="#D2D8D7" stroke-width="0.4588" stroke-miterlimit="10"/>
<path d="M110.141 202.291V223.468" stroke="#D2D8D7" stroke-width="0.4588" stroke-miterlimit="10"/>
<path d="M104.047 200.909L97.1953 196.96V196.051L104.047 199.999V200.909Z" fill="#D2D8D7"/>
<path d="M95.3026 195.87L94.0518 195.148V194.238L95.3026 194.959V195.87Z" fill="#D2D8D7"/>
<path d="M118.263 209.102L111.43 205.164V204.254L118.263 208.192V209.102Z" fill="#D2D8D7"/>
<path d="M63.9115 245.989V252.025L33.3672 234.833V220.6L38.7097 223.69V231.916L63.9115 245.989Z" fill="#898FAD"/>
<path d="M63.9118 237.762V245.989L38.71 231.916V223.689L63.9118 237.762Z" fill="#CCCED6"/>
<path d="M33.3672 234.833L38.7097 231.916L63.9115 245.989V252.025L33.3672 234.833Z" fill="url(#paint73_linear_65_58124)"/>
<path d="M177.798 311.597V317.632L147.254 300.44V286.207L152.596 289.297V297.524L177.798 311.597Z" fill="#898FAD"/>
<path d="M177.798 303.369V311.597L152.596 297.523V289.297L177.798 303.369Z" fill="#CCCED6"/>
<path d="M147.254 300.44L152.596 297.523L177.798 311.597V317.632L147.254 300.44Z" fill="url(#paint74_linear_65_58124)"/>
<path d="M193.553 218.616V213.846L208.053 222.215V226.985L193.553 218.616Z" fill="#4E5872"/>
<path d="M193.553 213.846V218.616L195.27 217.914V214.837L193.553 213.846Z" fill="#272C3D"/>
<path d="M195.27 217.914L208.053 225.281V226.985L193.553 218.616L195.27 217.914Z" fill="#9CA3BC"/>
<path d="M193.553 225.577V220.807L208.053 229.176V233.946L193.553 225.577Z" fill="#4E5872"/>
<path d="M193.553 220.807V225.577L195.27 224.875V221.798L193.553 220.807Z" fill="#272C3D"/>
<path d="M195.27 224.875L208.053 232.242V233.946L193.553 225.577L195.27 224.875Z" fill="#9CA3BC"/>
<path d="M193.553 232.536V227.766L208.053 236.135V240.905L193.553 232.536Z" fill="#4E5872"/>
<path d="M193.553 227.766V232.536L195.27 231.834V228.757L193.553 227.766Z" fill="#272C3D"/>
<path d="M195.27 231.834L208.053 239.2V240.905L193.553 232.536L195.27 231.834Z" fill="#9CA3BC"/>
<path d="M193.553 239.497V234.727L208.053 243.096V247.866L193.553 239.497Z" fill="#4E5872"/>
<path d="M193.553 234.727V239.497L195.27 238.795V235.718L193.553 234.727Z" fill="#272C3D"/>
<path d="M195.27 238.795L208.053 246.161V247.866L193.553 239.497L195.27 238.795Z" fill="#9CA3BC"/>
<path d="M193.553 246.458V241.688L208.053 250.057V254.827L193.553 246.458Z" fill="#4E5872"/>
<path d="M193.553 241.688V246.458L195.27 245.756V242.679L193.553 241.688Z" fill="#272C3D"/>
<path d="M195.27 245.756L208.053 253.123V254.827L193.553 246.458L195.27 245.756Z" fill="#9CA3BC"/>
<path d="M29.8965 126.528V121.758L44.3965 130.128V134.897L29.8965 126.528Z" fill="#4E5872"/>
<path d="M29.8965 121.758V126.528L31.6133 125.827V122.749L29.8965 121.758Z" fill="#272C3D"/>
<path d="M31.6133 125.826L44.3965 133.193V134.897L29.8965 126.527L31.6133 125.826Z" fill="#9CA3BC"/>
<path d="M29.8965 133.489V128.719L44.3965 137.089V141.858L29.8965 133.489Z" fill="#4E5872"/>
<path d="M29.8965 128.719V133.489L31.6133 132.788V129.71L29.8965 128.719Z" fill="#272C3D"/>
<path d="M31.6133 132.787L44.3965 140.153V141.858L29.8965 133.488L31.6133 132.787Z" fill="#9CA3BC"/>
<path d="M29.8965 140.448V135.678L44.3965 144.048V148.817L29.8965 140.448Z" fill="#4E5872"/>
<path d="M29.8965 135.678V140.448L31.6133 139.746V136.669L29.8965 135.678Z" fill="#272C3D"/>
<path d="M31.6133 139.746L44.3965 147.113V148.817L29.8965 140.448L31.6133 139.746Z" fill="#9CA3BC"/>
<path d="M29.8965 147.409V142.639L44.3965 151.009V155.778L29.8965 147.409Z" fill="#4E5872"/>
<path d="M29.8965 142.639V147.409L31.6133 146.707V143.63L29.8965 142.639Z" fill="#272C3D"/>
<path d="M31.6133 146.707L44.3965 154.074V155.778L29.8965 147.409L31.6133 146.707Z" fill="#9CA3BC"/>
<path d="M29.8965 154.37V149.6L44.3965 157.969V162.739L29.8965 154.37Z" fill="#4E5872"/>
<path d="M29.8965 149.6V154.37L31.6133 153.668V150.591L29.8965 149.6Z" fill="#272C3D"/>
<path d="M31.6133 153.668L44.3965 161.035V162.739L29.8965 154.37L31.6133 153.668Z" fill="#9CA3BC"/>
<path d="M182.134 311.793L217.621 331.996V270.984L182.134 250.781V311.793Z" fill="url(#paint75_linear_65_58124)"/>
<path d="M217.621 331.997L229.393 325.405V264.393L217.621 270.985V331.997Z" fill="#898FAD"/>
<path d="M217.621 270.985L229.393 264.393L193.907 244.189L182.134 250.782L217.621 270.985Z" fill="url(#paint76_linear_65_58124)"/>
<path d="M217.621 270.652L182.423 250.615L182.134 250.782L217.621 270.985L229.393 264.393L229.104 264.226L217.621 270.652Z" fill="white"/>
<path d="M172.2 313.216L203.971 330.705V284.38L172.2 266.893V313.216Z" fill="url(#paint77_linear_65_58124)"/>
<path d="M203.969 330.705L215.741 324.113V277.789L203.969 284.381V330.705Z" fill="#898FAD"/>
<path d="M203.971 284.381L215.743 277.789L183.972 260.301L172.2 266.893L203.971 284.381Z" fill="url(#paint78_linear_65_58124)"/>
<path d="M203.971 284.048L172.489 266.727L172.2 266.893L203.971 284.381L215.744 277.79L215.453 277.623L203.971 284.048Z" fill="white"/>
<path d="M192.681 255.031L215.549 267.62V264.221L192.681 251.633V255.031Z" fill="url(#paint79_linear_65_58124)"/>
<path d="M215.548 267.62L224.021 262.875V259.477L215.548 264.221V267.62Z" fill="#898FAD"/>
<path d="M215.549 264.221L224.023 259.477L201.155 246.889L192.681 251.633L215.549 264.221Z" fill="url(#paint80_linear_65_58124)"/>
<path d="M215.549 263.982L192.888 251.514L192.681 251.634L215.549 264.222L224.023 259.477L223.814 259.356L215.549 263.982Z" fill="white"/>
<path opacity="0.67" d="M176.53 287.113L177.855 287.825V300.679L176.53 299.967V287.113Z" fill="#383851"/>
<path d="M176.618 287.275L177.767 287.892L173.382 290.182V298.697L176.618 297.034L177.767 297.651L172.2 300.678V289.546L176.618 287.275Z" fill="#797999"/>
<path d="M177.767 287.893V289.136L174.531 290.799V299.314L177.767 297.651V299.024L173.349 301.294V290.163L177.767 287.893Z" fill="#525270"/>
<path d="M172.2 289.547L173.348 290.163V301.295L172.2 300.679V289.547Z" fill="#B0B0C1"/>
<path d="M189.986 287.809L189.431 288.142L188.877 287.201C188.604 286.97 188.337 286.663 188.124 286.298C188.009 286.104 187.916 285.911 187.842 285.716C187.775 285.54 187.727 285.362 187.699 285.194L187.581 284.994L187.146 284.249L187.687 283.913C188.047 283.702 188.527 283.778 188.991 284.071C189.168 284.183 189.343 284.323 189.506 284.495C189.694 284.686 189.869 284.914 190.017 285.17C190.65 286.244 190.642 287.427 189.986 287.809Z" fill="#898FAD"/>
<path d="M189.435 288.143C188.784 288.524 187.744 287.962 187.111 286.887C186.479 285.813 186.493 284.633 187.144 284.252C187.795 283.871 188.835 284.434 189.468 285.508C190.1 286.583 190.086 287.763 189.435 288.143Z" fill="#717891"/>
<path d="M189.076 287.904L187.654 288.733L187.196 287.955C186.971 287.765 186.75 287.512 186.574 287.21C186.479 287.05 186.402 286.89 186.341 286.73C186.285 286.584 186.246 286.437 186.223 286.298L186.125 286.134L185.766 285.518L187.176 284.687C187.474 284.513 187.871 284.576 188.254 284.817C188.4 284.91 188.544 285.026 188.679 285.168C188.835 285.326 188.979 285.514 189.102 285.725C189.624 286.611 189.618 287.588 189.076 287.904Z" fill="#74A89F"/>
<path d="M187.658 288.735C187.12 289.05 186.261 288.586 185.738 287.698C185.215 286.81 185.227 285.835 185.765 285.52C186.302 285.206 187.162 285.67 187.684 286.558C188.207 287.446 188.195 288.42 187.658 288.735Z" fill="#A0D8D0"/>
<path d="M190.556 300.179V300.738L185.122 297.585L185.121 289.535L185.605 289.815V297.305L190.556 300.179Z" fill="#898FAD"/>
<path d="M190.555 292.688V300.178L185.604 297.305V289.814L190.555 292.688Z" fill="#BBBCCC"/>
<path d="M185.604 291.186V295.587L190.559 298.41V294.059L185.604 291.186Z" fill="#FCFCFC"/>
<path d="M186.222 294.906C186.094 294.827 186.029 294.787 185.9 294.707" stroke="#A6A8AB" stroke-width="0.0524" stroke-miterlimit="10"/>
<path d="M186.229 294.706C186.158 294.654 186.122 294.628 186.051 294.576" stroke="#A6A8AB" stroke-width="0.0524" stroke-miterlimit="10"/>
<path d="M186.246 294.552C186.176 294.495 186.14 294.466 186.069 294.408" stroke="#A6A8AB" stroke-width="0.0524" stroke-miterlimit="10"/>
<path d="M186.266 294.409C186.196 294.346 186.161 294.315 186.091 294.252" stroke="#A6A8AB" stroke-width="0.0524" stroke-miterlimit="10"/>
<path d="M186.294 294.279C186.225 294.211 186.191 294.177 186.122 294.109" stroke="#A6A8AB" stroke-width="0.0524" stroke-miterlimit="10"/>
<path d="M186.342 294.123C186.222 293.991 186.161 293.925 186.041 293.793" stroke="#A6A8AB" stroke-width="0.0524" stroke-miterlimit="10"/>
<path d="M186.394 293.992C186.33 293.913 186.297 293.873 186.231 293.795" stroke="#A6A8AB" stroke-width="0.0524" stroke-miterlimit="10"/>
<path d="M186.446 293.895C186.383 293.813 186.351 293.772 186.288 293.689" stroke="#A6A8AB" stroke-width="0.0524" stroke-miterlimit="10"/>
<path d="M186.5 293.808C186.439 293.722 186.408 293.679 186.347 293.594" stroke="#A6A8AB" stroke-width="0.0524" stroke-miterlimit="10"/>
<path d="M186.563 293.731C186.505 293.642 186.474 293.598 186.416 293.51" stroke="#A6A8AB" stroke-width="0.0524" stroke-miterlimit="10"/>
<path d="M186.65 293.644C186.55 293.481 186.5 293.398 186.4 293.234" stroke="#A6A8AB" stroke-width="0.0524" stroke-miterlimit="10"/>
<path d="M186.738 293.578C186.686 293.483 186.659 293.436 186.606 293.342" stroke="#A6A8AB" stroke-width="0.0524" stroke-miterlimit="10"/>
<path d="M186.814 293.531C186.765 293.435 186.74 293.387 186.69 293.291" stroke="#A6A8AB" stroke-width="0.0524" stroke-miterlimit="10"/>
<path d="M186.895 293.495C186.849 293.397 186.825 293.349 186.778 293.252" stroke="#A6A8AB" stroke-width="0.0524" stroke-miterlimit="10"/>
<path d="M186.98 293.468C186.937 293.37 186.915 293.32 186.871 293.223" stroke="#A6A8AB" stroke-width="0.0524" stroke-miterlimit="10"/>
<path d="M187.095 293.444C187.025 293.266 186.989 293.177 186.92 293" stroke="#A6A8AB" stroke-width="0.0524" stroke-miterlimit="10"/>
<path d="M187.207 293.434C187.172 293.334 187.155 293.285 187.12 293.186" stroke="#A6A8AB" stroke-width="0.0524" stroke-miterlimit="10"/>
<path d="M187.302 293.436C187.271 293.336 187.255 293.287 187.224 293.188" stroke="#A6A8AB" stroke-width="0.0524" stroke-miterlimit="10"/>
<path d="M187.399 293.443C187.371 293.344 187.357 293.294 187.329 293.195" stroke="#A6A8AB" stroke-width="0.0524" stroke-miterlimit="10"/>
<path d="M187.499 293.459C187.475 293.361 187.462 293.311 187.438 293.213" stroke="#A6A8AB" stroke-width="0.0524" stroke-miterlimit="10"/>
<path d="M187.63 293.492C187.595 293.318 187.578 293.231 187.545 293.057" stroke="#A6A8AB" stroke-width="0.0524" stroke-miterlimit="10"/>
<path d="M187.756 293.533C187.741 293.437 187.734 293.389 187.72 293.293" stroke="#A6A8AB" stroke-width="0.0524" stroke-miterlimit="10"/>
<path d="M187.858 293.576C187.848 293.481 187.842 293.434 187.832 293.34" stroke="#A6A8AB" stroke-width="0.0524" stroke-miterlimit="10"/>
<path d="M187.964 293.624C187.958 293.531 187.954 293.484 187.947 293.393" stroke="#A6A8AB" stroke-width="0.0524" stroke-miterlimit="10"/>
<path d="M188.07 293.679C188.068 293.589 188.066 293.543 188.063 293.453" stroke="#A6A8AB" stroke-width="0.0524" stroke-miterlimit="10"/>
<path d="M188.211 293.76C188.216 293.603 188.217 293.526 188.222 293.369" stroke="#A6A8AB" stroke-width="0.0524" stroke-miterlimit="10"/>
<path d="M188.339 293.847C188.346 293.763 188.35 293.721 188.357 293.637" stroke="#A6A8AB" stroke-width="0.0524" stroke-miterlimit="10"/>
<path d="M188.445 293.924C188.457 293.842 188.462 293.801 188.473 293.721" stroke="#A6A8AB" stroke-width="0.0524" stroke-miterlimit="10"/>
<path d="M188.548 294.008C188.563 293.929 188.57 293.89 188.586 293.812" stroke="#A6A8AB" stroke-width="0.0524" stroke-miterlimit="10"/>
<path d="M188.651 294.095C188.671 294.02 188.68 293.983 188.698 293.908" stroke="#A6A8AB" stroke-width="0.0524" stroke-miterlimit="10"/>
<path d="M188.779 294.222C188.822 294.096 188.843 294.034 188.886 293.908" stroke="#A6A8AB" stroke-width="0.0524" stroke-miterlimit="10"/>
<path d="M188.901 294.346C188.93 294.28 188.944 294.247 188.972 294.182" stroke="#A6A8AB" stroke-width="0.0524" stroke-miterlimit="10"/>
<path d="M188.998 294.454C189.03 294.393 189.046 294.362 189.078 294.301" stroke="#A6A8AB" stroke-width="0.0524" stroke-miterlimit="10"/>
<path d="M189.092 294.569C189.127 294.511 189.145 294.483 189.181 294.426" stroke="#A6A8AB" stroke-width="0.0524" stroke-miterlimit="10"/>
<path d="M189.182 294.685C189.221 294.632 189.24 294.605 189.279 294.553" stroke="#A6A8AB" stroke-width="0.0524" stroke-miterlimit="10"/>
<path d="M189.301 294.845C189.378 294.761 189.417 294.72 189.495 294.637" stroke="#A6A8AB" stroke-width="0.0524" stroke-miterlimit="10"/>
<path d="M189.403 295.003C189.45 294.962 189.474 294.941 189.521 294.9" stroke="#A6A8AB" stroke-width="0.0524" stroke-miterlimit="10"/>
<path d="M189.481 295.136C189.532 295.1 189.557 295.083 189.607 295.047" stroke="#A6A8AB" stroke-width="0.0524" stroke-miterlimit="10"/>
<path d="M189.56 295.274C189.612 295.244 189.639 295.228 189.692 295.197" stroke="#A6A8AB" stroke-width="0.0524" stroke-miterlimit="10"/>
<path d="M189.628 295.415C189.684 295.389 189.711 295.376 189.767 295.352" stroke="#A6A8AB" stroke-width="0.0524" stroke-miterlimit="10"/>
<path d="M189.713 295.605C189.818 295.572 189.871 295.555 189.977 295.523" stroke="#A6A8AB" stroke-width="0.0524" stroke-miterlimit="10"/>
<path d="M189.788 295.789C189.85 295.777 189.881 295.772 189.942 295.76" stroke="#A6A8AB" stroke-width="0.0524" stroke-miterlimit="10"/>
<path d="M189.841 295.942C189.905 295.937 189.936 295.933 190 295.928" stroke="#A6A8AB" stroke-width="0.0524" stroke-miterlimit="10"/>
<path d="M189.891 296.098C189.956 296.098 189.989 296.098 190.055 296.098" stroke="#A6A8AB" stroke-width="0.0524" stroke-miterlimit="10"/>
<path d="M189.932 296.258C189.999 296.264 190.032 296.267 190.099 296.273" stroke="#A6A8AB" stroke-width="0.0524" stroke-miterlimit="10"/>
<path d="M189.984 296.471C190.107 296.496 190.17 296.508 190.293 296.534" stroke="#A6A8AB" stroke-width="0.0524" stroke-miterlimit="10"/>
<path d="M190.019 296.674C190.089 296.695 190.124 296.707 190.194 296.728" stroke="#A6A8AB" stroke-width="0.0524" stroke-miterlimit="10"/>
<path d="M190.037 296.842C190.108 296.87 190.144 296.884 190.215 296.912" stroke="#A6A8AB" stroke-width="0.0524" stroke-miterlimit="10"/>
<path d="M190.053 297.014C190.124 297.048 190.16 297.066 190.231 297.1" stroke="#A6A8AB" stroke-width="0.0524" stroke-miterlimit="10"/>
<path d="M190.06 297.188C190.132 297.228 190.167 297.249 190.239 297.29" stroke="#A6A8AB" stroke-width="0.0524" stroke-miterlimit="10"/>
<path d="M186.244 294.942C186.244 293.642 187.097 293.096 188.149 293.722C189.201 294.348 190.053 295.908 190.053 297.208" stroke="#A6A8AB" stroke-width="0.0732" stroke-miterlimit="10"/>
<path d="M186.596 295.152L186.412 295.042C186.412 293.859 187.191 293.359 188.15 293.929V294.157C187.293 293.647 186.596 294.094 186.596 295.152Z" fill="#BFE577"/>
<path d="M188.176 294.172L188.152 294.157V293.93L188.18 293.946L188.176 294.172Z" fill="url(#paint81_linear_65_58124)"/>
<path d="M189.703 296.91L189.7 296.849L189.883 296.941L189.886 297.005L189.703 296.91ZM189.696 296.79L189.691 296.727L189.873 296.805L189.879 296.871L189.696 296.79ZM189.683 296.667L189.675 296.603L189.855 296.667L189.865 296.734L189.683 296.667ZM189.665 296.543L189.654 296.478L189.831 296.526L189.844 296.595L189.665 296.543ZM189.64 296.415L189.627 296.352L189.801 296.384L189.817 296.455L189.64 296.415ZM189.611 296.288L189.595 296.225L189.765 296.241L189.784 296.313L189.611 296.288ZM189.576 296.159L189.557 296.097H189.723C189.731 296.121 189.739 296.145 189.745 296.17L189.576 296.159ZM189.536 296.033L189.514 295.968L189.675 295.954L189.699 296.026L189.536 296.033ZM189.492 295.903L189.468 295.84L189.623 295.81L189.65 295.882L189.492 295.903ZM189.442 295.778L189.415 295.713L189.564 295.67L189.594 295.739L189.442 295.778ZM189.387 295.65L189.357 295.587L189.5 295.528L189.532 295.598L189.387 295.65ZM189.329 295.525L189.297 295.462L189.432 295.389L189.467 295.457L189.329 295.525ZM189.265 295.402L189.231 295.341L189.359 295.253L189.395 295.32L189.265 295.402ZM189.197 295.281L189.162 295.222L189.281 295.12L189.321 295.186L189.197 295.281ZM189.126 295.163L189.089 295.106L189.2 294.99L189.241 295.055L189.126 295.163ZM189.052 295.049L189.014 294.994L189.115 294.864L189.158 294.927L189.052 295.049ZM188.973 294.937L188.933 294.884L189.026 294.743L189.07 294.803L188.973 294.937ZM188.892 294.831L188.851 294.779L188.934 294.626L188.98 294.684L188.892 294.831ZM188.81 294.73L188.767 294.68L188.839 294.514L188.887 294.569L188.81 294.73ZM188.723 294.633L188.679 294.585L188.742 294.409L188.791 294.46L188.723 294.633ZM188.635 294.54L188.59 294.496L188.642 294.309L188.692 294.358L188.635 294.54ZM188.544 294.454L188.499 294.413L188.54 294.216L188.591 294.261L188.544 294.454ZM188.453 294.374L188.407 294.337L188.437 294.13L188.488 294.172L188.453 294.374ZM188.361 294.301L188.315 294.266L188.334 294.051L188.386 294.09L188.361 294.301ZM188.268 294.233L188.221 294.202L188.229 293.979L188.281 294.014L188.268 294.233Z" fill="url(#paint82_linear_65_58124)"/>
<path d="M189.795 297.057L189.703 297.002V296.971L189.887 297.094L189.795 297.057Z" fill="url(#paint83_linear_65_58124)"/>
<path d="M188.244 295.624V295.488L188.38 295.238L188.149 293.414L187.917 294.961L188.054 295.375V295.511C187.955 295.5 187.886 295.575 187.886 295.714C187.886 295.894 188.003 296.111 188.15 296.197C188.295 296.284 188.413 296.208 188.413 296.027C188.412 295.888 188.342 295.73 188.244 295.624ZM188.148 296.041C188.071 295.996 188.009 295.882 188.009 295.787C188.009 295.692 188.071 295.652 188.148 295.698C188.225 295.743 188.287 295.858 188.287 295.952C188.287 296.047 188.225 296.088 188.148 296.041Z" fill="#717891"/>
<g opacity="0.75">
<path opacity="0.86" d="M190.66 292.004V300.847L189.298 301.653V292.809L190.66 292.004Z" fill="url(#paint84_linear_65_58124)"/>
<path opacity="0.42" d="M190.342 292.205V300.291L188.979 301.096V293.011L190.342 292.205Z" fill="#70B0E5"/>
<path opacity="0.86" d="M185.266 289.277V297.363L183.903 298.169V290.083L185.266 289.277Z" fill="url(#paint85_linear_65_58124)"/>
<path d="M184.943 288.688V297.531L183.581 298.337V289.492L184.943 288.688Z" fill="url(#paint86_linear_65_58124)"/>
<path opacity="0.67" d="M189.299 292.808V301.653L183.581 298.336V289.492L189.299 292.808Z" fill="white"/>
<path opacity="0.17" d="M183.903 298.151V290.049L188.981 292.993V301.095L183.903 298.151Z" fill="#70B0E5"/>
<path opacity="0.76" d="M190.661 292.004L189.299 292.809L183.581 289.492L184.941 288.688L190.661 292.004Z" fill="url(#paint87_linear_65_58124)"/>
</g>
<path d="M227.981 275.258V272.654L220.067 277.222V279.826L227.981 275.258Z" fill="#4E5872"/>
<path d="M227.983 272.654V275.258L227.046 274.875V273.195L227.983 272.654Z" fill="#272C3D"/>
<path d="M227.044 274.875L220.067 278.895V279.826L227.981 275.258L227.044 274.875Z" fill="#9CA3BC"/>
<path d="M227.981 279.057V276.453L220.067 281.021V283.625L227.981 279.057Z" fill="#4E5872"/>
<path d="M227.983 276.453V279.057L227.046 278.674V276.994L227.983 276.453Z" fill="#272C3D"/>
<path d="M227.044 278.674L220.067 282.694V283.625L227.981 279.057L227.044 278.674Z" fill="#9CA3BC"/>
<path d="M227.981 282.855V280.252L220.067 284.82V287.423L227.981 282.855Z" fill="#4E5872"/>
<path d="M227.983 280.252V282.855L227.046 282.472V280.793L227.983 280.252Z" fill="#272C3D"/>
<path d="M227.044 282.473L220.067 286.493V287.423L227.981 282.856L227.044 282.473Z" fill="#9CA3BC"/>
<path d="M227.981 286.654V284.051L220.067 288.619V291.222L227.981 286.654Z" fill="#4E5872"/>
<path d="M227.983 284.051V286.654L227.046 286.271V284.591L227.983 284.051Z" fill="#272C3D"/>
<path d="M227.044 286.271L220.067 290.292V291.222L227.981 286.654L227.044 286.271Z" fill="#9CA3BC"/>
<path d="M227.981 290.454V287.85L220.067 292.418V295.022L227.981 290.454Z" fill="#4E5872"/>
<path d="M227.983 287.85V290.454L227.046 290.071V288.391L227.983 287.85Z" fill="#272C3D"/>
<path d="M227.044 290.07L220.067 294.091V295.021L227.981 290.453L227.044 290.07Z" fill="#9CA3BC"/>
<path d="M227.981 304.523V301.92L220.067 306.488V309.091L227.981 304.523Z" fill="#4E5872"/>
<path d="M227.983 301.92V304.523L227.046 304.14V302.461L227.983 301.92Z" fill="#272C3D"/>
<path d="M227.044 304.141L220.067 308.161V309.091L227.981 304.523L227.044 304.141Z" fill="#9CA3BC"/>
<path d="M227.981 308.322V305.719L220.067 310.287V312.89L227.981 308.322Z" fill="#4E5872"/>
<path d="M227.983 305.719V308.322L227.046 307.939V306.259L227.983 305.719Z" fill="#272C3D"/>
<path d="M227.044 307.939L220.067 311.96V312.89L227.981 308.322L227.044 307.939Z" fill="#9CA3BC"/>
<path d="M227.981 312.121V309.518L220.067 314.086V316.69L227.981 312.121Z" fill="#4E5872"/>
<path d="M227.983 309.518V312.121L227.046 311.738V310.059L227.983 309.518Z" fill="#272C3D"/>
<path d="M227.044 311.738L220.067 315.76V316.69L227.981 312.121L227.044 311.738Z" fill="#9CA3BC"/>
<path d="M227.981 315.92V313.316L220.067 317.884V320.488L227.981 315.92Z" fill="#4E5872"/>
<path d="M227.983 313.316V315.92L227.046 315.537V313.858L227.983 313.316Z" fill="#272C3D"/>
<path d="M227.044 315.537L220.067 319.558V320.488L227.981 315.92L227.044 315.537Z" fill="#9CA3BC"/>
<path d="M227.981 319.719V317.115L220.067 321.683V324.287L227.981 319.719Z" fill="#4E5872"/>
<path d="M227.983 317.115V319.719L227.046 319.336V317.656L227.983 317.115Z" fill="#272C3D"/>
<path d="M227.044 319.336L220.067 323.356V324.287L227.981 319.719L227.044 319.336Z" fill="#9CA3BC"/>
<path d="M292.454 311.941C292.454 314.896 290.058 318.489 287.103 319.967C284.148 321.445 281.752 320.247 281.752 317.292C281.752 314.337 284.148 310.743 287.103 309.265C290.058 307.788 292.454 308.986 292.454 311.941Z" fill="#272C3D"/>
<path d="M257.914 397.232C251.967 397.232 246.559 395.714 241.951 392.642C233.403 386.942 229.368 376.608 231.421 365.674C235.32 344.91 227.088 327.036 227.005 326.857C226.386 325.539 226.952 323.966 228.27 323.345C229.588 322.726 231.159 323.288 231.782 324.606C232.154 325.393 240.838 344.149 236.613 366.65C234.957 375.468 238.125 383.744 244.882 388.249C254.695 394.793 269.38 392.609 285.169 382.257C316.679 361.597 286.049 313.79 285.736 313.309C284.941 312.088 285.285 310.452 286.506 309.656C287.728 308.86 289.362 309.203 290.159 310.423C290.504 310.951 298.641 323.525 302.635 339.122C308.085 360.406 303.047 376.85 288.064 386.673C277.391 393.67 267.021 397.232 257.914 397.232Z" fill="url(#paint88_linear_65_58124)"/>
<defs>
<linearGradient id="paint0_linear_65_58124" x1="173.42" y1="425.007" x2="89.769" y2="207.514" gradientUnits="userSpaceOnUse">
<stop stop-color="#CBCBD6"/>
<stop offset="1" stop-color="#F9FAF9"/>
</linearGradient>
<linearGradient id="paint1_linear_65_58124" x1="159.176" y1="127.181" x2="185.923" y2="339.333" gradientUnits="userSpaceOnUse">
<stop stop-color="#CBCBD6"/>
<stop offset="1" stop-color="#F9FAF9"/>
</linearGradient>
<linearGradient id="paint2_linear_65_58124" x1="198.577" y1="405.82" x2="82.0862" y2="102.943" gradientUnits="userSpaceOnUse">
<stop stop-color="#CBCBD6"/>
<stop offset="1" stop-color="#F9FAF9"/>
</linearGradient>
<linearGradient id="paint3_linear_65_58124" x1="159.787" y1="2.47671" x2="185.314" y2="204.958" gradientUnits="userSpaceOnUse">
<stop stop-color="#CBCBD6"/>
<stop offset="1" stop-color="#F9FAF9"/>
</linearGradient>
<linearGradient id="paint4_linear_65_58124" x1="208.171" y1="219.07" x2="172.684" y2="126.802" gradientUnits="userSpaceOnUse">
<stop stop-color="#CBCBD6"/>
<stop offset="1" stop-color="#F9FAF9"/>
</linearGradient>
<linearGradient id="paint5_linear_65_58124" x1="225.027" y1="67.8919" x2="238.234" y2="172.648" gradientUnits="userSpaceOnUse">
<stop stop-color="#CBCBD6"/>
<stop offset="1" stop-color="#F9FAF9"/>
</linearGradient>
<linearGradient id="paint6_linear_65_58124" x1="95.0595" y1="151.785" x2="59.5722" y2="59.5176" gradientUnits="userSpaceOnUse">
<stop stop-color="#CBCBD6"/>
<stop offset="1" stop-color="#F9FAF9"/>
</linearGradient>
<linearGradient id="paint7_linear_65_58124" x1="111.915" y1="0.606987" x2="125.122" y2="105.363" gradientUnits="userSpaceOnUse">
<stop stop-color="#CBCBD6"/>
<stop offset="1" stop-color="#F9FAF9"/>
</linearGradient>
<linearGradient id="paint8_linear_65_58124" x1="308.471" y1="284.051" x2="277.506" y2="216.709" gradientUnits="userSpaceOnUse">
<stop stop-color="#CBCBD6"/>
<stop offset="1" stop-color="#F9FAF9"/>
</linearGradient>
<linearGradient id="paint9_linear_65_58124" x1="237.33" y1="182.491" x2="332.156" y2="182.491" gradientUnits="userSpaceOnUse">
<stop stop-color="#CBCBD6"/>
<stop offset="1" stop-color="#F9FAF9"/>
</linearGradient>
<linearGradient id="paint10_linear_65_58124" x1="243.606" y1="235.846" x2="329.021" y2="235.846" gradientUnits="userSpaceOnUse">
<stop stop-color="#272C3D"/>
<stop offset="1" stop-color="#5F6B89"/>
</linearGradient>
<linearGradient id="paint11_linear_65_58124" x1="300.05" y1="273.039" x2="274.484" y2="217.439" gradientUnits="userSpaceOnUse">
<stop stop-color="#272C3D"/>
<stop offset="1" stop-color="#5F6B89"/>
</linearGradient>
<linearGradient id="paint12_linear_65_58124" x1="243.604" y1="189.977" x2="326.643" y2="189.977" gradientUnits="userSpaceOnUse">
<stop stop-color="#272C3D"/>
<stop offset="1" stop-color="#5F6B89"/>
</linearGradient>
<linearGradient id="paint13_linear_65_58124" x1="243.604" y1="195.627" x2="326.643" y2="195.627" gradientUnits="userSpaceOnUse">
<stop stop-color="#272C3D"/>
<stop offset="1" stop-color="#5F6B89"/>
</linearGradient>
<linearGradient id="paint14_linear_65_58124" x1="243.604" y1="201.277" x2="326.643" y2="201.277" gradientUnits="userSpaceOnUse">
<stop stop-color="#272C3D"/>
<stop offset="1" stop-color="#5F6B89"/>
</linearGradient>
<linearGradient id="paint15_linear_65_58124" x1="243.604" y1="206.928" x2="326.643" y2="206.928" gradientUnits="userSpaceOnUse">
<stop stop-color="#272C3D"/>
<stop offset="1" stop-color="#5F6B89"/>
</linearGradient>
<linearGradient id="paint16_linear_65_58124" x1="243.604" y1="212.579" x2="326.643" y2="212.579" gradientUnits="userSpaceOnUse">
<stop stop-color="#272C3D"/>
<stop offset="1" stop-color="#5F6B89"/>
</linearGradient>
<linearGradient id="paint17_linear_65_58124" x1="243.604" y1="218.228" x2="326.643" y2="218.228" gradientUnits="userSpaceOnUse">
<stop stop-color="#272C3D"/>
<stop offset="1" stop-color="#5F6B89"/>
</linearGradient>
<linearGradient id="paint18_linear_65_58124" x1="243.604" y1="223.881" x2="326.643" y2="223.881" gradientUnits="userSpaceOnUse">
<stop stop-color="#272C3D"/>
<stop offset="1" stop-color="#5F6B89"/>
</linearGradient>
<linearGradient id="paint19_linear_65_58124" x1="243.604" y1="229.532" x2="326.643" y2="229.532" gradientUnits="userSpaceOnUse">
<stop stop-color="#272C3D"/>
<stop offset="1" stop-color="#5F6B89"/>
</linearGradient>
<linearGradient id="paint20_linear_65_58124" x1="243.604" y1="235.182" x2="326.643" y2="235.182" gradientUnits="userSpaceOnUse">
<stop stop-color="#272C3D"/>
<stop offset="1" stop-color="#5F6B89"/>
</linearGradient>
<linearGradient id="paint21_linear_65_58124" x1="243.604" y1="240.832" x2="326.643" y2="240.832" gradientUnits="userSpaceOnUse">
<stop stop-color="#272C3D"/>
<stop offset="1" stop-color="#5F6B89"/>
</linearGradient>
<linearGradient id="paint22_linear_65_58124" x1="243.604" y1="246.482" x2="326.643" y2="246.482" gradientUnits="userSpaceOnUse">
<stop stop-color="#272C3D"/>
<stop offset="1" stop-color="#5F6B89"/>
</linearGradient>
<linearGradient id="paint23_linear_65_58124" x1="243.604" y1="252.133" x2="326.643" y2="252.133" gradientUnits="userSpaceOnUse">
<stop stop-color="#272C3D"/>
<stop offset="1" stop-color="#5F6B89"/>
</linearGradient>
<linearGradient id="paint24_linear_65_58124" x1="243.604" y1="257.784" x2="326.643" y2="257.784" gradientUnits="userSpaceOnUse">
<stop stop-color="#272C3D"/>
<stop offset="1" stop-color="#5F6B89"/>
</linearGradient>
<linearGradient id="paint25_linear_65_58124" x1="243.604" y1="263.434" x2="326.643" y2="263.434" gradientUnits="userSpaceOnUse">
<stop stop-color="#272C3D"/>
<stop offset="1" stop-color="#5F6B89"/>
</linearGradient>
<linearGradient id="paint26_linear_65_58124" x1="243.604" y1="269.084" x2="326.643" y2="269.084" gradientUnits="userSpaceOnUse">
<stop stop-color="#272C3D"/>
<stop offset="1" stop-color="#5F6B89"/>
</linearGradient>
<linearGradient id="paint27_linear_65_58124" x1="243.604" y1="274.735" x2="326.643" y2="274.735" gradientUnits="userSpaceOnUse">
<stop stop-color="#272C3D"/>
<stop offset="1" stop-color="#5F6B89"/>
</linearGradient>
<linearGradient id="paint28_linear_65_58124" x1="243.604" y1="280.53" x2="326.643" y2="280.53" gradientUnits="userSpaceOnUse">
<stop stop-color="#272C3D"/>
<stop offset="1" stop-color="#5F6B89"/>
</linearGradient>
<linearGradient id="paint29_linear_65_58124" x1="293.001" y1="232.696" x2="291.26" y2="232.696" gradientUnits="userSpaceOnUse">
<stop stop-color="#CBCBD6"/>
<stop offset="1" stop-color="#F9FAF9"/>
</linearGradient>
<linearGradient id="paint30_linear_65_58124" x1="177.577" y1="135.083" x2="288.759" y2="135.083" gradientUnits="userSpaceOnUse">
<stop stop-color="#272C3D"/>
<stop offset="1" stop-color="#5F6B89"/>
</linearGradient>
<linearGradient id="paint31_linear_65_58124" x1="262.85" y1="144.756" x2="180.842" y2="64.4774" gradientUnits="userSpaceOnUse">
<stop stop-color="#CBCBD6"/>
<stop offset="1" stop-color="#5F6B89"/>
</linearGradient>
<linearGradient id="paint32_linear_65_58124" x1="88.7972" y1="78.5357" x2="106.614" y2="47.1793" gradientUnits="userSpaceOnUse">
<stop stop-color="#272C3D"/>
<stop offset="1" stop-color="#5F6B89"/>
</linearGradient>
<linearGradient id="paint33_linear_65_58124" x1="81.6609" y1="43.9128" x2="104.099" y2="75.1233" gradientUnits="userSpaceOnUse">
<stop stop-color="#272C3D"/>
<stop offset="1" stop-color="#5F6B89"/>
</linearGradient>
<linearGradient id="paint34_linear_65_58124" x1="114.636" y1="93.2193" x2="131.692" y2="63.2014" gradientUnits="userSpaceOnUse">
<stop stop-color="#272C3D"/>
<stop offset="1" stop-color="#5F6B89"/>
</linearGradient>
<linearGradient id="paint35_linear_65_58124" x1="111.457" y1="91.4131" x2="128.513" y2="61.3949" gradientUnits="userSpaceOnUse">
<stop stop-color="#272C3D"/>
<stop offset="1" stop-color="#5F6B89"/>
</linearGradient>
<linearGradient id="paint36_linear_65_58124" x1="108.275" y1="89.6058" x2="125.331" y2="59.5878" gradientUnits="userSpaceOnUse">
<stop stop-color="#272C3D"/>
<stop offset="1" stop-color="#5F6B89"/>
</linearGradient>
<linearGradient id="paint37_linear_65_58124" x1="105.096" y1="87.8015" x2="122.152" y2="57.7832" gradientUnits="userSpaceOnUse">
<stop stop-color="#272C3D"/>
<stop offset="1" stop-color="#5F6B89"/>
</linearGradient>
<linearGradient id="paint38_linear_65_58124" x1="101.914" y1="85.9912" x2="118.971" y2="55.973" gradientUnits="userSpaceOnUse">
<stop stop-color="#272C3D"/>
<stop offset="1" stop-color="#5F6B89"/>
</linearGradient>
<linearGradient id="paint39_linear_65_58124" x1="98.7345" y1="84.1847" x2="115.791" y2="54.1665" gradientUnits="userSpaceOnUse">
<stop stop-color="#272C3D"/>
<stop offset="1" stop-color="#5F6B89"/>
</linearGradient>
<linearGradient id="paint40_linear_65_58124" x1="95.5573" y1="82.3796" x2="112.614" y2="52.3615" gradientUnits="userSpaceOnUse">
<stop stop-color="#272C3D"/>
<stop offset="1" stop-color="#5F6B89"/>
</linearGradient>
<linearGradient id="paint41_linear_65_58124" x1="92.3743" y1="80.5711" x2="109.43" y2="50.5532" gradientUnits="userSpaceOnUse">
<stop stop-color="#272C3D"/>
<stop offset="1" stop-color="#5F6B89"/>
</linearGradient>
<linearGradient id="paint42_linear_65_58124" x1="89.1971" y1="78.7661" x2="106.253" y2="48.7479" gradientUnits="userSpaceOnUse">
<stop stop-color="#272C3D"/>
<stop offset="1" stop-color="#5F6B89"/>
</linearGradient>
<linearGradient id="paint43_linear_65_58124" x1="86.013" y1="76.9578" x2="103.069" y2="46.9395" gradientUnits="userSpaceOnUse">
<stop stop-color="#272C3D"/>
<stop offset="1" stop-color="#5F6B89"/>
</linearGradient>
<linearGradient id="paint44_linear_65_58124" x1="82.8361" y1="75.1514" x2="99.8924" y2="45.1333" gradientUnits="userSpaceOnUse">
<stop stop-color="#272C3D"/>
<stop offset="1" stop-color="#5F6B89"/>
</linearGradient>
<linearGradient id="paint45_linear_65_58124" x1="79.6529" y1="73.3462" x2="96.7092" y2="43.328" gradientUnits="userSpaceOnUse">
<stop stop-color="#272C3D"/>
<stop offset="1" stop-color="#5F6B89"/>
</linearGradient>
<linearGradient id="paint46_linear_65_58124" x1="76.475" y1="71.5358" x2="93.5313" y2="41.5176" gradientUnits="userSpaceOnUse">
<stop stop-color="#272C3D"/>
<stop offset="1" stop-color="#5F6B89"/>
</linearGradient>
<linearGradient id="paint47_linear_65_58124" x1="73.2985" y1="69.7295" x2="90.3549" y2="39.7113" gradientUnits="userSpaceOnUse">
<stop stop-color="#272C3D"/>
<stop offset="1" stop-color="#5F6B89"/>
</linearGradient>
<linearGradient id="paint48_linear_65_58124" x1="70.1147" y1="67.9222" x2="87.171" y2="37.9042" gradientUnits="userSpaceOnUse">
<stop stop-color="#272C3D"/>
<stop offset="1" stop-color="#5F6B89"/>
</linearGradient>
<linearGradient id="paint49_linear_65_58124" x1="66.9375" y1="66.1159" x2="83.9939" y2="36.0977" gradientUnits="userSpaceOnUse">
<stop stop-color="#272C3D"/>
<stop offset="1" stop-color="#5F6B89"/>
</linearGradient>
<linearGradient id="paint50_linear_65_58124" x1="63.6743" y1="64.2628" x2="80.7306" y2="34.2445" gradientUnits="userSpaceOnUse">
<stop stop-color="#272C3D"/>
<stop offset="1" stop-color="#5F6B89"/>
</linearGradient>
<linearGradient id="paint51_linear_65_58124" x1="130.365" y1="54.8652" x2="148.182" y2="23.5089" gradientUnits="userSpaceOnUse">
<stop stop-color="#272C3D"/>
<stop offset="1" stop-color="#5F6B89"/>
</linearGradient>
<linearGradient id="paint52_linear_65_58124" x1="123.229" y1="20.2424" x2="145.668" y2="51.4528" gradientUnits="userSpaceOnUse">
<stop stop-color="#272C3D"/>
<stop offset="1" stop-color="#5F6B89"/>
</linearGradient>
<linearGradient id="paint53_linear_65_58124" x1="156.203" y1="69.5498" x2="173.259" y2="39.5316" gradientUnits="userSpaceOnUse">
<stop stop-color="#272C3D"/>
<stop offset="1" stop-color="#5F6B89"/>
</linearGradient>
<linearGradient id="paint54_linear_65_58124" x1="153.024" y1="67.7426" x2="170.08" y2="37.7245" gradientUnits="userSpaceOnUse">
<stop stop-color="#272C3D"/>
<stop offset="1" stop-color="#5F6B89"/>
</linearGradient>
<linearGradient id="paint55_linear_65_58124" x1="149.842" y1="65.9342" x2="166.898" y2="35.9162" gradientUnits="userSpaceOnUse">
<stop stop-color="#272C3D"/>
<stop offset="1" stop-color="#5F6B89"/>
</linearGradient>
<linearGradient id="paint56_linear_65_58124" x1="146.663" y1="64.1279" x2="163.719" y2="34.1098" gradientUnits="userSpaceOnUse">
<stop stop-color="#272C3D"/>
<stop offset="1" stop-color="#5F6B89"/>
</linearGradient>
<linearGradient id="paint57_linear_65_58124" x1="143.486" y1="62.3207" x2="160.542" y2="32.3025" gradientUnits="userSpaceOnUse">
<stop stop-color="#272C3D"/>
<stop offset="1" stop-color="#5F6B89"/>
</linearGradient>
<linearGradient id="paint58_linear_65_58124" x1="140.302" y1="60.5124" x2="157.358" y2="30.4941" gradientUnits="userSpaceOnUse">
<stop stop-color="#272C3D"/>
<stop offset="1" stop-color="#5F6B89"/>
</linearGradient>
<linearGradient id="paint59_linear_65_58124" x1="137.125" y1="58.7081" x2="154.181" y2="28.6899" gradientUnits="userSpaceOnUse">
<stop stop-color="#272C3D"/>
<stop offset="1" stop-color="#5F6B89"/>
</linearGradient>
<linearGradient id="paint60_linear_65_58124" x1="133.942" y1="56.8996" x2="150.998" y2="26.8814" gradientUnits="userSpaceOnUse">
<stop stop-color="#272C3D"/>
<stop offset="1" stop-color="#5F6B89"/>
</linearGradient>
<linearGradient id="paint61_linear_65_58124" x1="130.765" y1="55.0926" x2="147.821" y2="25.0743" gradientUnits="userSpaceOnUse">
<stop stop-color="#272C3D"/>
<stop offset="1" stop-color="#5F6B89"/>
</linearGradient>
<linearGradient id="paint62_linear_65_58124" x1="127.581" y1="53.286" x2="144.637" y2="23.268" gradientUnits="userSpaceOnUse">
<stop stop-color="#272C3D"/>
<stop offset="1" stop-color="#5F6B89"/>
</linearGradient>
<linearGradient id="paint63_linear_65_58124" x1="124.404" y1="51.4789" x2="141.46" y2="21.4607" gradientUnits="userSpaceOnUse">
<stop stop-color="#272C3D"/>
<stop offset="1" stop-color="#5F6B89"/>
</linearGradient>
<linearGradient id="paint64_linear_65_58124" x1="121.224" y1="49.6744" x2="138.281" y2="19.6564" gradientUnits="userSpaceOnUse">
<stop stop-color="#272C3D"/>
<stop offset="1" stop-color="#5F6B89"/>
</linearGradient>
<linearGradient id="paint65_linear_65_58124" x1="118.042" y1="47.8642" x2="135.099" y2="17.846" gradientUnits="userSpaceOnUse">
<stop stop-color="#272C3D"/>
<stop offset="1" stop-color="#5F6B89"/>
</linearGradient>
<linearGradient id="paint66_linear_65_58124" x1="114.866" y1="46.059" x2="131.922" y2="16.0409" gradientUnits="userSpaceOnUse">
<stop stop-color="#272C3D"/>
<stop offset="1" stop-color="#5F6B89"/>
</linearGradient>
<linearGradient id="paint67_linear_65_58124" x1="111.682" y1="44.2507" x2="128.738" y2="14.2327" gradientUnits="userSpaceOnUse">
<stop stop-color="#272C3D"/>
<stop offset="1" stop-color="#5F6B89"/>
</linearGradient>
<linearGradient id="paint68_linear_65_58124" x1="108.504" y1="42.4443" x2="125.56" y2="12.4261" gradientUnits="userSpaceOnUse">
<stop stop-color="#272C3D"/>
<stop offset="1" stop-color="#5F6B89"/>
</linearGradient>
<linearGradient id="paint69_linear_65_58124" x1="105.241" y1="40.5921" x2="122.297" y2="10.5742" gradientUnits="userSpaceOnUse">
<stop stop-color="#272C3D"/>
<stop offset="1" stop-color="#5F6B89"/>
</linearGradient>
<linearGradient id="paint70_linear_65_58124" x1="113.731" y1="255.554" x2="127.845" y2="151.676" gradientUnits="userSpaceOnUse">
<stop stop-color="#CBCBD6"/>
<stop offset="1" stop-color="#F9FAF9"/>
</linearGradient>
<linearGradient id="paint71_linear_65_58124" x1="13.0107" y1="253.78" x2="223.995" y2="253.78" gradientUnits="userSpaceOnUse">
<stop stop-color="#CBCBD6"/>
<stop offset="1" stop-color="#F9FAF9"/>
</linearGradient>
<linearGradient id="paint72_linear_65_58124" x1="90.7222" y1="204.104" x2="124.079" y2="204.104" gradientUnits="userSpaceOnUse">
<stop stop-color="#898FAD"/>
<stop offset="1" stop-color="#CBCBD6"/>
</linearGradient>
<linearGradient id="paint73_linear_65_58124" x1="76.4006" y1="241.458" x2="24.9003" y2="242.509" gradientUnits="userSpaceOnUse">
<stop stop-color="#CBCBD6"/>
<stop offset="1" stop-color="#F9FAF9"/>
</linearGradient>
<linearGradient id="paint74_linear_65_58124" x1="190.287" y1="307.066" x2="138.787" y2="308.117" gradientUnits="userSpaceOnUse">
<stop stop-color="#CBCBD6"/>
<stop offset="1" stop-color="#F9FAF9"/>
</linearGradient>
<linearGradient id="paint75_linear_65_58124" x1="222.181" y1="349.377" x2="189.736" y2="265.02" gradientUnits="userSpaceOnUse">
<stop stop-color="#CBCBD6"/>
<stop offset="1" stop-color="#F9FAF9"/>
</linearGradient>
<linearGradient id="paint76_linear_65_58124" x1="203.895" y1="242.767" x2="207.646" y2="272.519" gradientUnits="userSpaceOnUse">
<stop stop-color="#CBCBD6"/>
<stop offset="1" stop-color="#F9FAF9"/>
</linearGradient>
<linearGradient id="paint77_linear_65_58124" x1="193.572" y1="280.245" x2="180.166" y2="325.579" gradientUnits="userSpaceOnUse">
<stop stop-color="#CBCBD6"/>
<stop offset="1" stop-color="#F9FAF9"/>
</linearGradient>
<linearGradient id="paint78_linear_65_58124" x1="192.303" y1="259.105" x2="195.653" y2="285.677" gradientUnits="userSpaceOnUse">
<stop stop-color="#CBCBD6"/>
<stop offset="1" stop-color="#F9FAF9"/>
</linearGradient>
<linearGradient id="paint79_linear_65_58124" x1="209.941" y1="274.775" x2="201.465" y2="252.738" gradientUnits="userSpaceOnUse">
<stop stop-color="#CBCBD6"/>
<stop offset="1" stop-color="#F9FAF9"/>
</linearGradient>
<linearGradient id="paint80_linear_65_58124" x1="207.151" y1="246.027" x2="209.562" y2="265.154" gradientUnits="userSpaceOnUse">
<stop stop-color="#CBCBD6"/>
<stop offset="1" stop-color="#F9FAF9"/>
</linearGradient>
<linearGradient id="paint81_linear_65_58124" x1="188.152" y1="294.044" x2="188.179" y2="294.044" gradientUnits="userSpaceOnUse">
<stop stop-color="#FBD008"/>
<stop offset="1" stop-color="#F88019"/>
</linearGradient>
<linearGradient id="paint82_linear_65_58124" x1="188.221" y1="295.001" x2="189.887" y2="295.001" gradientUnits="userSpaceOnUse">
<stop stop-color="#FBD008"/>
<stop offset="1" stop-color="#F88019"/>
</linearGradient>
<linearGradient id="paint83_linear_65_58124" x1="189.703" y1="296.986" x2="189.887" y2="296.986" gradientUnits="userSpaceOnUse">
<stop stop-color="#FBD008"/>
<stop offset="1" stop-color="#F88019"/>
</linearGradient>
<linearGradient id="paint84_linear_65_58124" x1="191.955" y1="300.912" x2="187.821" y2="292.369" gradientUnits="userSpaceOnUse">
<stop stop-color="#898FAD"/>
<stop offset="1" stop-color="#CBCBD6"/>
</linearGradient>
<linearGradient id="paint85_linear_65_58124" x1="186.394" y1="297.463" x2="182.609" y2="289.64" gradientUnits="userSpaceOnUse">
<stop stop-color="#898FAD"/>
<stop offset="1" stop-color="#CBCBD6"/>
</linearGradient>
<linearGradient id="paint86_linear_65_58124" x1="186.238" y1="297.596" x2="182.105" y2="289.052" gradientUnits="userSpaceOnUse">
<stop stop-color="#898FAD"/>
<stop offset="1" stop-color="#CBCBD6"/>
</linearGradient>
<linearGradient id="paint87_linear_65_58124" x1="183.581" y1="290.748" x2="190.661" y2="290.748" gradientUnits="userSpaceOnUse">
<stop stop-color="#CBCBD6"/>
<stop offset="1" stop-color="#F9FAF9"/>
</linearGradient>
<linearGradient id="paint88_linear_65_58124" x1="226.754" y1="353.229" x2="304.769" y2="353.229" gradientUnits="userSpaceOnUse">
<stop stop-color="#767993"/>
<stop offset="1" stop-color="#ADAFBF"/>
</linearGradient>
</defs>
</svg>
